M48
;GenerationSoftware,Autodesk,EAGLE,9.6.2*%
;CreationDate,2023-09-06T11:06:01Z*%
FMAT,2
ICI,OFF
METRIC,TZ,000.000
T4C0.300
T3C0.800
T2C1.016
T1C3.302
%
G90
M71
T1
X69088Y34290
X38608Y42418
X74676Y42418
X74676Y114046
X2540Y34290
X33020Y34290
X33020Y2540
X2540Y2540
X105156Y114046
X2540Y114046
X38608Y34290
X2540Y74168
X69088Y2540
X38608Y2540
X33020Y114046
X33020Y82296
X74676Y34290
X105156Y34290
X105156Y2540
X74676Y2540
X2540Y82296
X105156Y82296
X74676Y82296
X33020Y74168
X33020Y42418
X2540Y42418
X38608Y114046
X69088Y114046
X38608Y74168
X69088Y74168
X69088Y42418
X69088Y82296
X38608Y82296
X74676Y74168
X105156Y74168
X105156Y42418
T2
X70358Y64643
X70358Y67183
X70358Y69723
X106426Y62103
X106426Y64643
X106426Y67183
X106426Y22225
X106426Y69723
X106426Y109601
X34290Y101981
X34290Y104521
X34290Y107061
X34290Y109601
X70358Y104521
X70358Y107061
X70358Y109601
X106426Y101981
X106426Y104521
X106426Y107061
X34290Y22225
X34290Y24765
X34290Y27305
X34290Y29845
X70358Y22225
X70358Y24765
X70358Y27305
X70358Y29845
X70358Y101981
X106426Y24765
X106426Y27305
X106426Y29845
X34290Y62103
X34290Y64643
X34290Y67183
X34290Y69723
X70358Y62103
T3
X9780Y10855
X25780Y10855
X45848Y10855
X61848Y10855
X81916Y10855
X97916Y10855
X25780Y50733
X45848Y50733
X61848Y50733
X81916Y50733
X97916Y50733
X9780Y90611
X25780Y90611
X45848Y90611
X61848Y90611
X81916Y90611
X97916Y90611
X9780Y50733
T4
X100076Y16764
X100076Y12446
X79756Y12446
X79756Y16764
X84328Y12446
X85344Y16764
X82550Y12446
X86106Y12446
X91440Y27305
X87376Y10795
X95250Y16764
X96266Y23495
X100076Y26035
X86995Y25019
X83566Y28575
X84836Y20955
X83566Y9525
X96266Y9525
X94996Y28575
X89916Y8255
X89916Y28575
X92456Y18415
X92456Y24130
X96520Y12446
X94488Y12446
X93091Y12700
X82042Y16764
X83058Y16764
X90424Y9398
X85471Y26035
X91440Y9398
X88392Y24892
X93218Y24892
X90678Y12700
X91440Y16764
X98679Y16764
X97917Y12446
X81153Y16764
X88392Y12700
X88519Y19685
X98806Y12446
X97282Y16764
X19558Y52578
X17018Y56642
X27940Y56642
X27940Y52324
X7620Y52324
X7620Y56642
X12192Y52324
X13208Y56642
X10414Y52324
X13970Y52324
X19304Y67183
X15240Y50673
X23114Y56642
X24130Y63373
X27940Y65913
X14859Y64897
X11430Y68453
X12700Y60833
X11430Y49403
X24130Y49403
X22860Y68453
X17780Y48133
X17780Y68453
X20320Y58293
X20320Y64008
X24384Y52324
X22352Y52324
X20955Y52578
X9906Y56642
X10922Y56642
X18288Y49276
X13335Y65913
X19304Y49276
X16256Y64770
X21082Y64770
X18542Y52578
X19304Y56642
X26543Y56642
X25781Y52324
X9017Y56642
X16256Y52578
X16383Y59563
X26670Y52324
X25146Y56642
X55626Y52578
X53086Y56642
X64008Y56642
X64008Y52324
X43688Y52324
X43688Y56642
X48260Y52324
X49276Y56642
X46482Y52324
X50038Y52324
X55372Y67183
X51308Y50673
X59182Y56642
X60198Y63373
X64008Y65913
X50927Y64897
X47498Y68453
X48768Y60833
X47498Y49403
X60198Y49403
X58928Y68453
X53848Y48133
X53848Y68453
X56388Y58293
X56388Y64008
X60452Y52324
X58420Y52324
X57023Y52578
X45974Y56642
X46990Y56642
X54356Y49276
X49403Y65913
X55372Y49276
X52324Y64770
X57150Y64770
X54610Y52578
X55372Y56642
X62611Y56642
X61849Y52324
X45085Y56642
X52324Y52578
X52451Y59563
X62738Y52324
X61214Y56642
X91694Y52578
X89154Y56642
X100076Y56642
X100076Y52324
X79756Y52324
X79756Y56642
X84328Y52324
X85344Y56642
X82550Y52324
X86106Y52324
X91440Y67183
X87376Y50673
X95250Y56642
X96266Y63373
X100076Y65913
X86995Y64897
X83566Y68453
X84836Y60833
X83566Y49403
X96266Y49403
X94996Y68453
X89916Y48133
X89916Y68453
X47498Y28575
X92456Y64008
X96520Y52324
X94488Y52324
X93091Y52578
X82042Y56642
X83058Y56642
X90424Y49276
X85471Y65913
X91440Y49276
X88392Y64770
X93218Y64770
X90678Y52578
X91440Y56642
X98679Y56642
X97917Y52324
X81153Y56642
X88392Y52578
X88519Y59563
X98806Y52324
X97282Y56642
X19558Y92456
X17018Y96520
X27940Y96520
X27940Y92202
X7620Y92202
X7620Y96520
X12192Y92202
X13208Y96520
X10414Y92202
X13970Y92202
X19304Y107061
X15240Y90551
X23114Y96520
X24130Y103251
X27940Y105791
X14859Y104775
X11430Y108331
X12700Y100711
X11430Y89281
X24130Y89281
X22860Y108331
X17780Y88011
X17780Y108331
X20320Y98171
X20320Y103886
X24384Y92202
X22352Y92202
X20955Y92456
X9906Y96520
X10922Y96520
X18288Y89154
X13335Y105791
X19304Y89154
X16256Y104648
X21082Y104648
X18542Y92456
X19304Y96520
X26543Y96520
X25781Y92202
X9017Y96520
X16256Y92456
X16383Y99441
X26670Y92202
X25146Y96520
X55626Y92456
X53086Y96520
X64008Y96520
X64008Y92202
X43688Y92202
X43688Y96520
X48260Y92202
X49276Y96520
X46482Y92202
X50038Y92202
X55372Y107061
X51308Y90551
X59182Y96520
X60198Y103251
X64008Y105791
X50927Y104775
X47498Y108331
X48768Y100711
X47498Y89281
X60198Y89281
X58928Y108331
X53848Y88011
X53848Y108331
X56388Y98171
X56388Y103886
X60452Y92202
X58420Y92202
X57023Y92456
X45974Y96520
X46990Y96520
X54356Y89154
X49403Y105791
X55372Y89154
X52324Y104648
X57150Y104648
X54610Y92456
X55372Y96520
X62611Y96520
X61849Y92202
X45085Y96520
X52324Y92456
X52451Y99441
X62738Y92202
X61214Y96520
X91694Y92456
X89154Y96520
X100076Y96520
X100076Y92202
X79756Y92202
X79756Y96520
X84328Y92202
X85344Y96520
X82550Y92202
X86106Y92202
X91440Y107061
X87376Y90551
X95250Y96520
X19558Y12700
X100076Y105791
X86995Y104775
X83566Y108331
X84836Y100711
X83566Y89281
X96266Y89281
X94996Y108331
X89916Y88011
X89916Y108331
X92456Y98171
X92456Y103886
X96520Y92202
X94488Y92202
X93091Y92456
X82042Y96520
X83058Y96520
X90424Y89154
X85471Y105791
X91440Y89154
X88392Y104648
X93218Y104648
X90678Y92456
X91440Y96520
X98679Y96520
X97917Y92202
X81153Y96520
X88392Y92456
X88519Y99441
X98806Y92202
X97282Y96520
X17018Y16764
X27940Y16764
X27940Y12446
X7620Y12446
X7620Y16764
X12192Y12446
X13208Y16764
X10414Y12446
X13970Y12446
X19304Y27305
X15240Y10795
X23114Y16764
X24130Y23495
X27940Y26035
X14859Y25019
X11430Y28575
X12700Y20955
X11430Y9525
X24130Y9525
X22860Y28575
X17780Y8255
X17780Y28575
X20320Y18415
X20320Y24130
X24384Y12446
X22352Y12446
X20955Y12700
X9906Y16764
X10922Y16764
X92456Y58293
X18288Y9398
X13335Y26035
X19304Y9398
X16256Y24892
X21082Y24892
X18542Y12700
X19304Y16764
X26543Y16764
X25781Y12446
X9017Y16764
X16256Y12700
X16383Y19685
X26670Y12446
X25146Y16764
X55626Y12700
X53086Y16764
X64008Y16764
X64008Y12446
X43688Y12446
X43688Y16764
X48260Y12446
X49276Y16764
X46482Y12446
X50038Y12446
X55372Y27305
X51308Y10795
X59182Y16764
X60198Y23495
X64008Y26035
X50927Y25019
X48768Y20955
X47498Y9525
X60198Y9525
X58928Y28575
X53848Y8255
X53848Y28575
X56388Y18415
X56388Y24130
X60452Y12446
X58420Y12446
X57023Y12700
X45974Y16764
X46990Y16764
X54356Y9398
X49403Y26035
X55372Y9398
X52324Y24892
X57150Y24892
X54610Y12700
X55372Y16764
X62611Y16764
X61849Y12446
X45085Y16764
X52324Y12700
X52451Y19685
X62738Y12446
X61214Y16764
X91694Y12700
X89154Y16764
X96266Y103251
M30