G04 EAGLE Gerber RS-274X export*
G75*
%MOMM*%
%FSLAX34Y34*%
%LPD*%
%INSoldermask Bottom*%
%IPPOS*%
%AMOC8*
5,1,8,0,0,1.08239X$1,22.5*%
G01*
%ADD10C,0.228959*%
%ADD11C,0.927000*%
%ADD12C,2.006600*%
%ADD13C,3.429000*%
%ADD14C,1.127000*%
%ADD15C,1.270000*%
%ADD16C,1.627000*%


D10*
X278060Y160540D02*
X280540Y160540D01*
X280540Y136560D01*
X278060Y136560D01*
X278060Y160540D01*
X278060Y138735D02*
X280540Y138735D01*
X280540Y140910D02*
X278060Y140910D01*
X278060Y143085D02*
X280540Y143085D01*
X280540Y145260D02*
X278060Y145260D01*
X278060Y147435D02*
X280540Y147435D01*
X280540Y149610D02*
X278060Y149610D01*
X278060Y151785D02*
X280540Y151785D01*
X280540Y153960D02*
X278060Y153960D01*
X278060Y156135D02*
X280540Y156135D01*
X280540Y158310D02*
X278060Y158310D01*
X278060Y160485D02*
X280540Y160485D01*
X273540Y160540D02*
X271060Y160540D01*
X273540Y160540D02*
X273540Y136560D01*
X271060Y136560D01*
X271060Y160540D01*
X271060Y138735D02*
X273540Y138735D01*
X273540Y140910D02*
X271060Y140910D01*
X271060Y143085D02*
X273540Y143085D01*
X273540Y145260D02*
X271060Y145260D01*
X271060Y147435D02*
X273540Y147435D01*
X273540Y149610D02*
X271060Y149610D01*
X271060Y151785D02*
X273540Y151785D01*
X273540Y153960D02*
X271060Y153960D01*
X271060Y156135D02*
X273540Y156135D01*
X273540Y158310D02*
X271060Y158310D01*
X271060Y160485D02*
X273540Y160485D01*
X266540Y160540D02*
X264060Y160540D01*
X266540Y160540D02*
X266540Y136560D01*
X264060Y136560D01*
X264060Y160540D01*
X264060Y138735D02*
X266540Y138735D01*
X266540Y140910D02*
X264060Y140910D01*
X264060Y143085D02*
X266540Y143085D01*
X266540Y145260D02*
X264060Y145260D01*
X264060Y147435D02*
X266540Y147435D01*
X266540Y149610D02*
X264060Y149610D01*
X264060Y151785D02*
X266540Y151785D01*
X266540Y153960D02*
X264060Y153960D01*
X264060Y156135D02*
X266540Y156135D01*
X266540Y158310D02*
X264060Y158310D01*
X264060Y160485D02*
X266540Y160485D01*
X259540Y160540D02*
X257060Y160540D01*
X259540Y160540D02*
X259540Y136560D01*
X257060Y136560D01*
X257060Y160540D01*
X257060Y138735D02*
X259540Y138735D01*
X259540Y140910D02*
X257060Y140910D01*
X257060Y143085D02*
X259540Y143085D01*
X259540Y145260D02*
X257060Y145260D01*
X257060Y147435D02*
X259540Y147435D01*
X259540Y149610D02*
X257060Y149610D01*
X257060Y151785D02*
X259540Y151785D01*
X259540Y153960D02*
X257060Y153960D01*
X257060Y156135D02*
X259540Y156135D01*
X259540Y158310D02*
X257060Y158310D01*
X257060Y160485D02*
X259540Y160485D01*
X252540Y160540D02*
X250060Y160540D01*
X252540Y160540D02*
X252540Y136560D01*
X250060Y136560D01*
X250060Y160540D01*
X250060Y138735D02*
X252540Y138735D01*
X252540Y140910D02*
X250060Y140910D01*
X250060Y143085D02*
X252540Y143085D01*
X252540Y145260D02*
X250060Y145260D01*
X250060Y147435D02*
X252540Y147435D01*
X252540Y149610D02*
X250060Y149610D01*
X250060Y151785D02*
X252540Y151785D01*
X252540Y153960D02*
X250060Y153960D01*
X250060Y156135D02*
X252540Y156135D01*
X252540Y158310D02*
X250060Y158310D01*
X250060Y160485D02*
X252540Y160485D01*
X245540Y160540D02*
X243060Y160540D01*
X245540Y160540D02*
X245540Y136560D01*
X243060Y136560D01*
X243060Y160540D01*
X243060Y138735D02*
X245540Y138735D01*
X245540Y140910D02*
X243060Y140910D01*
X243060Y143085D02*
X245540Y143085D01*
X245540Y145260D02*
X243060Y145260D01*
X243060Y147435D02*
X245540Y147435D01*
X245540Y149610D02*
X243060Y149610D01*
X243060Y151785D02*
X245540Y151785D01*
X245540Y153960D02*
X243060Y153960D01*
X243060Y156135D02*
X245540Y156135D01*
X245540Y158310D02*
X243060Y158310D01*
X243060Y160485D02*
X245540Y160485D01*
X238540Y160540D02*
X236060Y160540D01*
X238540Y160540D02*
X238540Y136560D01*
X236060Y136560D01*
X236060Y160540D01*
X236060Y138735D02*
X238540Y138735D01*
X238540Y140910D02*
X236060Y140910D01*
X236060Y143085D02*
X238540Y143085D01*
X238540Y145260D02*
X236060Y145260D01*
X236060Y147435D02*
X238540Y147435D01*
X238540Y149610D02*
X236060Y149610D01*
X236060Y151785D02*
X238540Y151785D01*
X238540Y153960D02*
X236060Y153960D01*
X236060Y156135D02*
X238540Y156135D01*
X238540Y158310D02*
X236060Y158310D01*
X236060Y160485D02*
X238540Y160485D01*
X231540Y160540D02*
X229060Y160540D01*
X231540Y160540D02*
X231540Y136560D01*
X229060Y136560D01*
X229060Y160540D01*
X229060Y138735D02*
X231540Y138735D01*
X231540Y140910D02*
X229060Y140910D01*
X229060Y143085D02*
X231540Y143085D01*
X231540Y145260D02*
X229060Y145260D01*
X229060Y147435D02*
X231540Y147435D01*
X231540Y149610D02*
X229060Y149610D01*
X229060Y151785D02*
X231540Y151785D01*
X231540Y153960D02*
X229060Y153960D01*
X229060Y156135D02*
X231540Y156135D01*
X231540Y158310D02*
X229060Y158310D01*
X229060Y160485D02*
X231540Y160485D01*
X224540Y160540D02*
X222060Y160540D01*
X224540Y160540D02*
X224540Y136560D01*
X222060Y136560D01*
X222060Y160540D01*
X222060Y138735D02*
X224540Y138735D01*
X224540Y140910D02*
X222060Y140910D01*
X222060Y143085D02*
X224540Y143085D01*
X224540Y145260D02*
X222060Y145260D01*
X222060Y147435D02*
X224540Y147435D01*
X224540Y149610D02*
X222060Y149610D01*
X222060Y151785D02*
X224540Y151785D01*
X224540Y153960D02*
X222060Y153960D01*
X222060Y156135D02*
X224540Y156135D01*
X224540Y158310D02*
X222060Y158310D01*
X222060Y160485D02*
X224540Y160485D01*
X217540Y160540D02*
X215060Y160540D01*
X217540Y160540D02*
X217540Y136560D01*
X215060Y136560D01*
X215060Y160540D01*
X215060Y138735D02*
X217540Y138735D01*
X217540Y140910D02*
X215060Y140910D01*
X215060Y143085D02*
X217540Y143085D01*
X217540Y145260D02*
X215060Y145260D01*
X215060Y147435D02*
X217540Y147435D01*
X217540Y149610D02*
X215060Y149610D01*
X215060Y151785D02*
X217540Y151785D01*
X217540Y153960D02*
X215060Y153960D01*
X215060Y156135D02*
X217540Y156135D01*
X217540Y158310D02*
X215060Y158310D01*
X215060Y160485D02*
X217540Y160485D01*
X210540Y160540D02*
X208060Y160540D01*
X210540Y160540D02*
X210540Y136560D01*
X208060Y136560D01*
X208060Y160540D01*
X208060Y138735D02*
X210540Y138735D01*
X210540Y140910D02*
X208060Y140910D01*
X208060Y143085D02*
X210540Y143085D01*
X210540Y145260D02*
X208060Y145260D01*
X208060Y147435D02*
X210540Y147435D01*
X210540Y149610D02*
X208060Y149610D01*
X208060Y151785D02*
X210540Y151785D01*
X210540Y153960D02*
X208060Y153960D01*
X208060Y156135D02*
X210540Y156135D01*
X210540Y158310D02*
X208060Y158310D01*
X208060Y160485D02*
X210540Y160485D01*
X203540Y160540D02*
X201060Y160540D01*
X203540Y160540D02*
X203540Y136560D01*
X201060Y136560D01*
X201060Y160540D01*
X201060Y138735D02*
X203540Y138735D01*
X203540Y140910D02*
X201060Y140910D01*
X201060Y143085D02*
X203540Y143085D01*
X203540Y145260D02*
X201060Y145260D01*
X201060Y147435D02*
X203540Y147435D01*
X203540Y149610D02*
X201060Y149610D01*
X201060Y151785D02*
X203540Y151785D01*
X203540Y153960D02*
X201060Y153960D01*
X201060Y156135D02*
X203540Y156135D01*
X203540Y158310D02*
X201060Y158310D01*
X201060Y160485D02*
X203540Y160485D01*
X196540Y160540D02*
X194060Y160540D01*
X196540Y160540D02*
X196540Y136560D01*
X194060Y136560D01*
X194060Y160540D01*
X194060Y138735D02*
X196540Y138735D01*
X196540Y140910D02*
X194060Y140910D01*
X194060Y143085D02*
X196540Y143085D01*
X196540Y145260D02*
X194060Y145260D01*
X194060Y147435D02*
X196540Y147435D01*
X196540Y149610D02*
X194060Y149610D01*
X194060Y151785D02*
X196540Y151785D01*
X196540Y153960D02*
X194060Y153960D01*
X194060Y156135D02*
X196540Y156135D01*
X196540Y158310D02*
X194060Y158310D01*
X194060Y160485D02*
X196540Y160485D01*
X189540Y160540D02*
X187060Y160540D01*
X189540Y160540D02*
X189540Y136560D01*
X187060Y136560D01*
X187060Y160540D01*
X187060Y138735D02*
X189540Y138735D01*
X189540Y140910D02*
X187060Y140910D01*
X187060Y143085D02*
X189540Y143085D01*
X189540Y145260D02*
X187060Y145260D01*
X187060Y147435D02*
X189540Y147435D01*
X189540Y149610D02*
X187060Y149610D01*
X187060Y151785D02*
X189540Y151785D01*
X189540Y153960D02*
X187060Y153960D01*
X187060Y156135D02*
X189540Y156135D01*
X189540Y158310D02*
X187060Y158310D01*
X187060Y160485D02*
X189540Y160485D01*
X182540Y160540D02*
X180060Y160540D01*
X182540Y160540D02*
X182540Y136560D01*
X180060Y136560D01*
X180060Y160540D01*
X180060Y138735D02*
X182540Y138735D01*
X182540Y140910D02*
X180060Y140910D01*
X180060Y143085D02*
X182540Y143085D01*
X182540Y145260D02*
X180060Y145260D01*
X180060Y147435D02*
X182540Y147435D01*
X182540Y149610D02*
X180060Y149610D01*
X180060Y151785D02*
X182540Y151785D01*
X182540Y153960D02*
X180060Y153960D01*
X180060Y156135D02*
X182540Y156135D01*
X182540Y158310D02*
X180060Y158310D01*
X180060Y160485D02*
X182540Y160485D01*
X175540Y160540D02*
X173060Y160540D01*
X175540Y160540D02*
X175540Y136560D01*
X173060Y136560D01*
X173060Y160540D01*
X173060Y138735D02*
X175540Y138735D01*
X175540Y140910D02*
X173060Y140910D01*
X173060Y143085D02*
X175540Y143085D01*
X175540Y145260D02*
X173060Y145260D01*
X173060Y147435D02*
X175540Y147435D01*
X175540Y149610D02*
X173060Y149610D01*
X173060Y151785D02*
X175540Y151785D01*
X175540Y153960D02*
X173060Y153960D01*
X173060Y156135D02*
X175540Y156135D01*
X175540Y158310D02*
X173060Y158310D01*
X173060Y160485D02*
X175540Y160485D01*
X168540Y160540D02*
X166060Y160540D01*
X168540Y160540D02*
X168540Y136560D01*
X166060Y136560D01*
X166060Y160540D01*
X166060Y138735D02*
X168540Y138735D01*
X168540Y140910D02*
X166060Y140910D01*
X166060Y143085D02*
X168540Y143085D01*
X168540Y145260D02*
X166060Y145260D01*
X166060Y147435D02*
X168540Y147435D01*
X168540Y149610D02*
X166060Y149610D01*
X166060Y151785D02*
X168540Y151785D01*
X168540Y153960D02*
X166060Y153960D01*
X166060Y156135D02*
X168540Y156135D01*
X168540Y158310D02*
X166060Y158310D01*
X166060Y160485D02*
X168540Y160485D01*
X161540Y160540D02*
X159060Y160540D01*
X161540Y160540D02*
X161540Y136560D01*
X159060Y136560D01*
X159060Y160540D01*
X159060Y138735D02*
X161540Y138735D01*
X161540Y140910D02*
X159060Y140910D01*
X159060Y143085D02*
X161540Y143085D01*
X161540Y145260D02*
X159060Y145260D01*
X159060Y147435D02*
X161540Y147435D01*
X161540Y149610D02*
X159060Y149610D01*
X159060Y151785D02*
X161540Y151785D01*
X161540Y153960D02*
X159060Y153960D01*
X159060Y156135D02*
X161540Y156135D01*
X161540Y158310D02*
X159060Y158310D01*
X159060Y160485D02*
X161540Y160485D01*
X154540Y160540D02*
X152060Y160540D01*
X154540Y160540D02*
X154540Y136560D01*
X152060Y136560D01*
X152060Y160540D01*
X152060Y138735D02*
X154540Y138735D01*
X154540Y140910D02*
X152060Y140910D01*
X152060Y143085D02*
X154540Y143085D01*
X154540Y145260D02*
X152060Y145260D01*
X152060Y147435D02*
X154540Y147435D01*
X154540Y149610D02*
X152060Y149610D01*
X152060Y151785D02*
X154540Y151785D01*
X154540Y153960D02*
X152060Y153960D01*
X152060Y156135D02*
X154540Y156135D01*
X154540Y158310D02*
X152060Y158310D01*
X152060Y160485D02*
X154540Y160485D01*
X147540Y160540D02*
X145060Y160540D01*
X147540Y160540D02*
X147540Y136560D01*
X145060Y136560D01*
X145060Y160540D01*
X145060Y138735D02*
X147540Y138735D01*
X147540Y140910D02*
X145060Y140910D01*
X145060Y143085D02*
X147540Y143085D01*
X147540Y145260D02*
X145060Y145260D01*
X145060Y147435D02*
X147540Y147435D01*
X147540Y149610D02*
X145060Y149610D01*
X145060Y151785D02*
X147540Y151785D01*
X147540Y153960D02*
X145060Y153960D01*
X145060Y156135D02*
X147540Y156135D01*
X147540Y158310D02*
X145060Y158310D01*
X145060Y160485D02*
X147540Y160485D01*
X140540Y160540D02*
X138060Y160540D01*
X140540Y160540D02*
X140540Y136560D01*
X138060Y136560D01*
X138060Y160540D01*
X138060Y138735D02*
X140540Y138735D01*
X140540Y140910D02*
X138060Y140910D01*
X138060Y143085D02*
X140540Y143085D01*
X140540Y145260D02*
X138060Y145260D01*
X138060Y147435D02*
X140540Y147435D01*
X140540Y149610D02*
X138060Y149610D01*
X138060Y151785D02*
X140540Y151785D01*
X140540Y153960D02*
X138060Y153960D01*
X138060Y156135D02*
X140540Y156135D01*
X140540Y158310D02*
X138060Y158310D01*
X138060Y160485D02*
X140540Y160485D01*
X133540Y160540D02*
X131060Y160540D01*
X133540Y160540D02*
X133540Y136560D01*
X131060Y136560D01*
X131060Y160540D01*
X131060Y138735D02*
X133540Y138735D01*
X133540Y140910D02*
X131060Y140910D01*
X131060Y143085D02*
X133540Y143085D01*
X133540Y145260D02*
X131060Y145260D01*
X131060Y147435D02*
X133540Y147435D01*
X133540Y149610D02*
X131060Y149610D01*
X131060Y151785D02*
X133540Y151785D01*
X133540Y153960D02*
X131060Y153960D01*
X131060Y156135D02*
X133540Y156135D01*
X133540Y158310D02*
X131060Y158310D01*
X131060Y160485D02*
X133540Y160485D01*
X126540Y160540D02*
X124060Y160540D01*
X126540Y160540D02*
X126540Y136560D01*
X124060Y136560D01*
X124060Y160540D01*
X124060Y138735D02*
X126540Y138735D01*
X126540Y140910D02*
X124060Y140910D01*
X124060Y143085D02*
X126540Y143085D01*
X126540Y145260D02*
X124060Y145260D01*
X124060Y147435D02*
X126540Y147435D01*
X126540Y149610D02*
X124060Y149610D01*
X124060Y151785D02*
X126540Y151785D01*
X126540Y153960D02*
X124060Y153960D01*
X124060Y156135D02*
X126540Y156135D01*
X126540Y158310D02*
X124060Y158310D01*
X124060Y160485D02*
X126540Y160485D01*
X119540Y160540D02*
X117060Y160540D01*
X119540Y160540D02*
X119540Y136560D01*
X117060Y136560D01*
X117060Y160540D01*
X117060Y138735D02*
X119540Y138735D01*
X119540Y140910D02*
X117060Y140910D01*
X117060Y143085D02*
X119540Y143085D01*
X119540Y145260D02*
X117060Y145260D01*
X117060Y147435D02*
X119540Y147435D01*
X119540Y149610D02*
X117060Y149610D01*
X117060Y151785D02*
X119540Y151785D01*
X119540Y153960D02*
X117060Y153960D01*
X117060Y156135D02*
X119540Y156135D01*
X119540Y158310D02*
X117060Y158310D01*
X117060Y160485D02*
X119540Y160485D01*
X112540Y160540D02*
X110060Y160540D01*
X112540Y160540D02*
X112540Y136560D01*
X110060Y136560D01*
X110060Y160540D01*
X110060Y138735D02*
X112540Y138735D01*
X112540Y140910D02*
X110060Y140910D01*
X110060Y143085D02*
X112540Y143085D01*
X112540Y145260D02*
X110060Y145260D01*
X110060Y147435D02*
X112540Y147435D01*
X112540Y149610D02*
X110060Y149610D01*
X110060Y151785D02*
X112540Y151785D01*
X112540Y153960D02*
X110060Y153960D01*
X110060Y156135D02*
X112540Y156135D01*
X112540Y158310D02*
X110060Y158310D01*
X110060Y160485D02*
X112540Y160485D01*
X105540Y160540D02*
X103060Y160540D01*
X105540Y160540D02*
X105540Y136560D01*
X103060Y136560D01*
X103060Y160540D01*
X103060Y138735D02*
X105540Y138735D01*
X105540Y140910D02*
X103060Y140910D01*
X103060Y143085D02*
X105540Y143085D01*
X105540Y145260D02*
X103060Y145260D01*
X103060Y147435D02*
X105540Y147435D01*
X105540Y149610D02*
X103060Y149610D01*
X103060Y151785D02*
X105540Y151785D01*
X105540Y153960D02*
X103060Y153960D01*
X103060Y156135D02*
X105540Y156135D01*
X105540Y158310D02*
X103060Y158310D01*
X103060Y160485D02*
X105540Y160485D01*
X98540Y160540D02*
X96060Y160540D01*
X98540Y160540D02*
X98540Y136560D01*
X96060Y136560D01*
X96060Y160540D01*
X96060Y138735D02*
X98540Y138735D01*
X98540Y140910D02*
X96060Y140910D01*
X96060Y143085D02*
X98540Y143085D01*
X98540Y145260D02*
X96060Y145260D01*
X96060Y147435D02*
X98540Y147435D01*
X98540Y149610D02*
X96060Y149610D01*
X96060Y151785D02*
X98540Y151785D01*
X98540Y153960D02*
X96060Y153960D01*
X96060Y156135D02*
X98540Y156135D01*
X98540Y158310D02*
X96060Y158310D01*
X96060Y160485D02*
X98540Y160485D01*
X91540Y160540D02*
X89060Y160540D01*
X91540Y160540D02*
X91540Y136560D01*
X89060Y136560D01*
X89060Y160540D01*
X89060Y138735D02*
X91540Y138735D01*
X91540Y140910D02*
X89060Y140910D01*
X89060Y143085D02*
X91540Y143085D01*
X91540Y145260D02*
X89060Y145260D01*
X89060Y147435D02*
X91540Y147435D01*
X91540Y149610D02*
X89060Y149610D01*
X89060Y151785D02*
X91540Y151785D01*
X91540Y153960D02*
X89060Y153960D01*
X89060Y156135D02*
X91540Y156135D01*
X91540Y158310D02*
X89060Y158310D01*
X89060Y160485D02*
X91540Y160485D01*
D11*
X97800Y108550D03*
X257800Y108550D03*
D10*
X84540Y160540D02*
X82060Y160540D01*
X84540Y160540D02*
X84540Y136560D01*
X82060Y136560D01*
X82060Y160540D01*
X82060Y138735D02*
X84540Y138735D01*
X84540Y140910D02*
X82060Y140910D01*
X82060Y143085D02*
X84540Y143085D01*
X84540Y145260D02*
X82060Y145260D01*
X82060Y147435D02*
X84540Y147435D01*
X84540Y149610D02*
X82060Y149610D01*
X82060Y151785D02*
X84540Y151785D01*
X84540Y153960D02*
X82060Y153960D01*
X82060Y156135D02*
X84540Y156135D01*
X84540Y158310D02*
X82060Y158310D01*
X82060Y160485D02*
X84540Y160485D01*
X77540Y160540D02*
X75060Y160540D01*
X77540Y160540D02*
X77540Y136560D01*
X75060Y136560D01*
X75060Y160540D01*
X75060Y138735D02*
X77540Y138735D01*
X77540Y140910D02*
X75060Y140910D01*
X75060Y143085D02*
X77540Y143085D01*
X77540Y145260D02*
X75060Y145260D01*
X75060Y147435D02*
X77540Y147435D01*
X77540Y149610D02*
X75060Y149610D01*
X75060Y151785D02*
X77540Y151785D01*
X77540Y153960D02*
X75060Y153960D01*
X75060Y156135D02*
X77540Y156135D01*
X77540Y158310D02*
X75060Y158310D01*
X75060Y160485D02*
X77540Y160485D01*
D12*
X342900Y222250D03*
X342900Y247650D03*
X342900Y273050D03*
X342900Y298450D03*
D13*
X25400Y342900D03*
X330200Y342900D03*
D14*
X25400Y285750D03*
X330200Y82550D03*
D13*
X330200Y25400D03*
X25400Y25400D03*
D10*
X638740Y160540D02*
X641220Y160540D01*
X641220Y136560D01*
X638740Y136560D01*
X638740Y160540D01*
X638740Y138735D02*
X641220Y138735D01*
X641220Y140910D02*
X638740Y140910D01*
X638740Y143085D02*
X641220Y143085D01*
X641220Y145260D02*
X638740Y145260D01*
X638740Y147435D02*
X641220Y147435D01*
X641220Y149610D02*
X638740Y149610D01*
X638740Y151785D02*
X641220Y151785D01*
X641220Y153960D02*
X638740Y153960D01*
X638740Y156135D02*
X641220Y156135D01*
X641220Y158310D02*
X638740Y158310D01*
X638740Y160485D02*
X641220Y160485D01*
X634220Y160540D02*
X631740Y160540D01*
X634220Y160540D02*
X634220Y136560D01*
X631740Y136560D01*
X631740Y160540D01*
X631740Y138735D02*
X634220Y138735D01*
X634220Y140910D02*
X631740Y140910D01*
X631740Y143085D02*
X634220Y143085D01*
X634220Y145260D02*
X631740Y145260D01*
X631740Y147435D02*
X634220Y147435D01*
X634220Y149610D02*
X631740Y149610D01*
X631740Y151785D02*
X634220Y151785D01*
X634220Y153960D02*
X631740Y153960D01*
X631740Y156135D02*
X634220Y156135D01*
X634220Y158310D02*
X631740Y158310D01*
X631740Y160485D02*
X634220Y160485D01*
X627220Y160540D02*
X624740Y160540D01*
X627220Y160540D02*
X627220Y136560D01*
X624740Y136560D01*
X624740Y160540D01*
X624740Y138735D02*
X627220Y138735D01*
X627220Y140910D02*
X624740Y140910D01*
X624740Y143085D02*
X627220Y143085D01*
X627220Y145260D02*
X624740Y145260D01*
X624740Y147435D02*
X627220Y147435D01*
X627220Y149610D02*
X624740Y149610D01*
X624740Y151785D02*
X627220Y151785D01*
X627220Y153960D02*
X624740Y153960D01*
X624740Y156135D02*
X627220Y156135D01*
X627220Y158310D02*
X624740Y158310D01*
X624740Y160485D02*
X627220Y160485D01*
X620220Y160540D02*
X617740Y160540D01*
X620220Y160540D02*
X620220Y136560D01*
X617740Y136560D01*
X617740Y160540D01*
X617740Y138735D02*
X620220Y138735D01*
X620220Y140910D02*
X617740Y140910D01*
X617740Y143085D02*
X620220Y143085D01*
X620220Y145260D02*
X617740Y145260D01*
X617740Y147435D02*
X620220Y147435D01*
X620220Y149610D02*
X617740Y149610D01*
X617740Y151785D02*
X620220Y151785D01*
X620220Y153960D02*
X617740Y153960D01*
X617740Y156135D02*
X620220Y156135D01*
X620220Y158310D02*
X617740Y158310D01*
X617740Y160485D02*
X620220Y160485D01*
X613220Y160540D02*
X610740Y160540D01*
X613220Y160540D02*
X613220Y136560D01*
X610740Y136560D01*
X610740Y160540D01*
X610740Y138735D02*
X613220Y138735D01*
X613220Y140910D02*
X610740Y140910D01*
X610740Y143085D02*
X613220Y143085D01*
X613220Y145260D02*
X610740Y145260D01*
X610740Y147435D02*
X613220Y147435D01*
X613220Y149610D02*
X610740Y149610D01*
X610740Y151785D02*
X613220Y151785D01*
X613220Y153960D02*
X610740Y153960D01*
X610740Y156135D02*
X613220Y156135D01*
X613220Y158310D02*
X610740Y158310D01*
X610740Y160485D02*
X613220Y160485D01*
X606220Y160540D02*
X603740Y160540D01*
X606220Y160540D02*
X606220Y136560D01*
X603740Y136560D01*
X603740Y160540D01*
X603740Y138735D02*
X606220Y138735D01*
X606220Y140910D02*
X603740Y140910D01*
X603740Y143085D02*
X606220Y143085D01*
X606220Y145260D02*
X603740Y145260D01*
X603740Y147435D02*
X606220Y147435D01*
X606220Y149610D02*
X603740Y149610D01*
X603740Y151785D02*
X606220Y151785D01*
X606220Y153960D02*
X603740Y153960D01*
X603740Y156135D02*
X606220Y156135D01*
X606220Y158310D02*
X603740Y158310D01*
X603740Y160485D02*
X606220Y160485D01*
X599220Y160540D02*
X596740Y160540D01*
X599220Y160540D02*
X599220Y136560D01*
X596740Y136560D01*
X596740Y160540D01*
X596740Y138735D02*
X599220Y138735D01*
X599220Y140910D02*
X596740Y140910D01*
X596740Y143085D02*
X599220Y143085D01*
X599220Y145260D02*
X596740Y145260D01*
X596740Y147435D02*
X599220Y147435D01*
X599220Y149610D02*
X596740Y149610D01*
X596740Y151785D02*
X599220Y151785D01*
X599220Y153960D02*
X596740Y153960D01*
X596740Y156135D02*
X599220Y156135D01*
X599220Y158310D02*
X596740Y158310D01*
X596740Y160485D02*
X599220Y160485D01*
X592220Y160540D02*
X589740Y160540D01*
X592220Y160540D02*
X592220Y136560D01*
X589740Y136560D01*
X589740Y160540D01*
X589740Y138735D02*
X592220Y138735D01*
X592220Y140910D02*
X589740Y140910D01*
X589740Y143085D02*
X592220Y143085D01*
X592220Y145260D02*
X589740Y145260D01*
X589740Y147435D02*
X592220Y147435D01*
X592220Y149610D02*
X589740Y149610D01*
X589740Y151785D02*
X592220Y151785D01*
X592220Y153960D02*
X589740Y153960D01*
X589740Y156135D02*
X592220Y156135D01*
X592220Y158310D02*
X589740Y158310D01*
X589740Y160485D02*
X592220Y160485D01*
X585220Y160540D02*
X582740Y160540D01*
X585220Y160540D02*
X585220Y136560D01*
X582740Y136560D01*
X582740Y160540D01*
X582740Y138735D02*
X585220Y138735D01*
X585220Y140910D02*
X582740Y140910D01*
X582740Y143085D02*
X585220Y143085D01*
X585220Y145260D02*
X582740Y145260D01*
X582740Y147435D02*
X585220Y147435D01*
X585220Y149610D02*
X582740Y149610D01*
X582740Y151785D02*
X585220Y151785D01*
X585220Y153960D02*
X582740Y153960D01*
X582740Y156135D02*
X585220Y156135D01*
X585220Y158310D02*
X582740Y158310D01*
X582740Y160485D02*
X585220Y160485D01*
X578220Y160540D02*
X575740Y160540D01*
X578220Y160540D02*
X578220Y136560D01*
X575740Y136560D01*
X575740Y160540D01*
X575740Y138735D02*
X578220Y138735D01*
X578220Y140910D02*
X575740Y140910D01*
X575740Y143085D02*
X578220Y143085D01*
X578220Y145260D02*
X575740Y145260D01*
X575740Y147435D02*
X578220Y147435D01*
X578220Y149610D02*
X575740Y149610D01*
X575740Y151785D02*
X578220Y151785D01*
X578220Y153960D02*
X575740Y153960D01*
X575740Y156135D02*
X578220Y156135D01*
X578220Y158310D02*
X575740Y158310D01*
X575740Y160485D02*
X578220Y160485D01*
X571220Y160540D02*
X568740Y160540D01*
X571220Y160540D02*
X571220Y136560D01*
X568740Y136560D01*
X568740Y160540D01*
X568740Y138735D02*
X571220Y138735D01*
X571220Y140910D02*
X568740Y140910D01*
X568740Y143085D02*
X571220Y143085D01*
X571220Y145260D02*
X568740Y145260D01*
X568740Y147435D02*
X571220Y147435D01*
X571220Y149610D02*
X568740Y149610D01*
X568740Y151785D02*
X571220Y151785D01*
X571220Y153960D02*
X568740Y153960D01*
X568740Y156135D02*
X571220Y156135D01*
X571220Y158310D02*
X568740Y158310D01*
X568740Y160485D02*
X571220Y160485D01*
X564220Y160540D02*
X561740Y160540D01*
X564220Y160540D02*
X564220Y136560D01*
X561740Y136560D01*
X561740Y160540D01*
X561740Y138735D02*
X564220Y138735D01*
X564220Y140910D02*
X561740Y140910D01*
X561740Y143085D02*
X564220Y143085D01*
X564220Y145260D02*
X561740Y145260D01*
X561740Y147435D02*
X564220Y147435D01*
X564220Y149610D02*
X561740Y149610D01*
X561740Y151785D02*
X564220Y151785D01*
X564220Y153960D02*
X561740Y153960D01*
X561740Y156135D02*
X564220Y156135D01*
X564220Y158310D02*
X561740Y158310D01*
X561740Y160485D02*
X564220Y160485D01*
X557220Y160540D02*
X554740Y160540D01*
X557220Y160540D02*
X557220Y136560D01*
X554740Y136560D01*
X554740Y160540D01*
X554740Y138735D02*
X557220Y138735D01*
X557220Y140910D02*
X554740Y140910D01*
X554740Y143085D02*
X557220Y143085D01*
X557220Y145260D02*
X554740Y145260D01*
X554740Y147435D02*
X557220Y147435D01*
X557220Y149610D02*
X554740Y149610D01*
X554740Y151785D02*
X557220Y151785D01*
X557220Y153960D02*
X554740Y153960D01*
X554740Y156135D02*
X557220Y156135D01*
X557220Y158310D02*
X554740Y158310D01*
X554740Y160485D02*
X557220Y160485D01*
X550220Y160540D02*
X547740Y160540D01*
X550220Y160540D02*
X550220Y136560D01*
X547740Y136560D01*
X547740Y160540D01*
X547740Y138735D02*
X550220Y138735D01*
X550220Y140910D02*
X547740Y140910D01*
X547740Y143085D02*
X550220Y143085D01*
X550220Y145260D02*
X547740Y145260D01*
X547740Y147435D02*
X550220Y147435D01*
X550220Y149610D02*
X547740Y149610D01*
X547740Y151785D02*
X550220Y151785D01*
X550220Y153960D02*
X547740Y153960D01*
X547740Y156135D02*
X550220Y156135D01*
X550220Y158310D02*
X547740Y158310D01*
X547740Y160485D02*
X550220Y160485D01*
X543220Y160540D02*
X540740Y160540D01*
X543220Y160540D02*
X543220Y136560D01*
X540740Y136560D01*
X540740Y160540D01*
X540740Y138735D02*
X543220Y138735D01*
X543220Y140910D02*
X540740Y140910D01*
X540740Y143085D02*
X543220Y143085D01*
X543220Y145260D02*
X540740Y145260D01*
X540740Y147435D02*
X543220Y147435D01*
X543220Y149610D02*
X540740Y149610D01*
X540740Y151785D02*
X543220Y151785D01*
X543220Y153960D02*
X540740Y153960D01*
X540740Y156135D02*
X543220Y156135D01*
X543220Y158310D02*
X540740Y158310D01*
X540740Y160485D02*
X543220Y160485D01*
X536220Y160540D02*
X533740Y160540D01*
X536220Y160540D02*
X536220Y136560D01*
X533740Y136560D01*
X533740Y160540D01*
X533740Y138735D02*
X536220Y138735D01*
X536220Y140910D02*
X533740Y140910D01*
X533740Y143085D02*
X536220Y143085D01*
X536220Y145260D02*
X533740Y145260D01*
X533740Y147435D02*
X536220Y147435D01*
X536220Y149610D02*
X533740Y149610D01*
X533740Y151785D02*
X536220Y151785D01*
X536220Y153960D02*
X533740Y153960D01*
X533740Y156135D02*
X536220Y156135D01*
X536220Y158310D02*
X533740Y158310D01*
X533740Y160485D02*
X536220Y160485D01*
X529220Y160540D02*
X526740Y160540D01*
X529220Y160540D02*
X529220Y136560D01*
X526740Y136560D01*
X526740Y160540D01*
X526740Y138735D02*
X529220Y138735D01*
X529220Y140910D02*
X526740Y140910D01*
X526740Y143085D02*
X529220Y143085D01*
X529220Y145260D02*
X526740Y145260D01*
X526740Y147435D02*
X529220Y147435D01*
X529220Y149610D02*
X526740Y149610D01*
X526740Y151785D02*
X529220Y151785D01*
X529220Y153960D02*
X526740Y153960D01*
X526740Y156135D02*
X529220Y156135D01*
X529220Y158310D02*
X526740Y158310D01*
X526740Y160485D02*
X529220Y160485D01*
X522220Y160540D02*
X519740Y160540D01*
X522220Y160540D02*
X522220Y136560D01*
X519740Y136560D01*
X519740Y160540D01*
X519740Y138735D02*
X522220Y138735D01*
X522220Y140910D02*
X519740Y140910D01*
X519740Y143085D02*
X522220Y143085D01*
X522220Y145260D02*
X519740Y145260D01*
X519740Y147435D02*
X522220Y147435D01*
X522220Y149610D02*
X519740Y149610D01*
X519740Y151785D02*
X522220Y151785D01*
X522220Y153960D02*
X519740Y153960D01*
X519740Y156135D02*
X522220Y156135D01*
X522220Y158310D02*
X519740Y158310D01*
X519740Y160485D02*
X522220Y160485D01*
X515220Y160540D02*
X512740Y160540D01*
X515220Y160540D02*
X515220Y136560D01*
X512740Y136560D01*
X512740Y160540D01*
X512740Y138735D02*
X515220Y138735D01*
X515220Y140910D02*
X512740Y140910D01*
X512740Y143085D02*
X515220Y143085D01*
X515220Y145260D02*
X512740Y145260D01*
X512740Y147435D02*
X515220Y147435D01*
X515220Y149610D02*
X512740Y149610D01*
X512740Y151785D02*
X515220Y151785D01*
X515220Y153960D02*
X512740Y153960D01*
X512740Y156135D02*
X515220Y156135D01*
X515220Y158310D02*
X512740Y158310D01*
X512740Y160485D02*
X515220Y160485D01*
X508220Y160540D02*
X505740Y160540D01*
X508220Y160540D02*
X508220Y136560D01*
X505740Y136560D01*
X505740Y160540D01*
X505740Y138735D02*
X508220Y138735D01*
X508220Y140910D02*
X505740Y140910D01*
X505740Y143085D02*
X508220Y143085D01*
X508220Y145260D02*
X505740Y145260D01*
X505740Y147435D02*
X508220Y147435D01*
X508220Y149610D02*
X505740Y149610D01*
X505740Y151785D02*
X508220Y151785D01*
X508220Y153960D02*
X505740Y153960D01*
X505740Y156135D02*
X508220Y156135D01*
X508220Y158310D02*
X505740Y158310D01*
X505740Y160485D02*
X508220Y160485D01*
X501220Y160540D02*
X498740Y160540D01*
X501220Y160540D02*
X501220Y136560D01*
X498740Y136560D01*
X498740Y160540D01*
X498740Y138735D02*
X501220Y138735D01*
X501220Y140910D02*
X498740Y140910D01*
X498740Y143085D02*
X501220Y143085D01*
X501220Y145260D02*
X498740Y145260D01*
X498740Y147435D02*
X501220Y147435D01*
X501220Y149610D02*
X498740Y149610D01*
X498740Y151785D02*
X501220Y151785D01*
X501220Y153960D02*
X498740Y153960D01*
X498740Y156135D02*
X501220Y156135D01*
X501220Y158310D02*
X498740Y158310D01*
X498740Y160485D02*
X501220Y160485D01*
X494220Y160540D02*
X491740Y160540D01*
X494220Y160540D02*
X494220Y136560D01*
X491740Y136560D01*
X491740Y160540D01*
X491740Y138735D02*
X494220Y138735D01*
X494220Y140910D02*
X491740Y140910D01*
X491740Y143085D02*
X494220Y143085D01*
X494220Y145260D02*
X491740Y145260D01*
X491740Y147435D02*
X494220Y147435D01*
X494220Y149610D02*
X491740Y149610D01*
X491740Y151785D02*
X494220Y151785D01*
X494220Y153960D02*
X491740Y153960D01*
X491740Y156135D02*
X494220Y156135D01*
X494220Y158310D02*
X491740Y158310D01*
X491740Y160485D02*
X494220Y160485D01*
X487220Y160540D02*
X484740Y160540D01*
X487220Y160540D02*
X487220Y136560D01*
X484740Y136560D01*
X484740Y160540D01*
X484740Y138735D02*
X487220Y138735D01*
X487220Y140910D02*
X484740Y140910D01*
X484740Y143085D02*
X487220Y143085D01*
X487220Y145260D02*
X484740Y145260D01*
X484740Y147435D02*
X487220Y147435D01*
X487220Y149610D02*
X484740Y149610D01*
X484740Y151785D02*
X487220Y151785D01*
X487220Y153960D02*
X484740Y153960D01*
X484740Y156135D02*
X487220Y156135D01*
X487220Y158310D02*
X484740Y158310D01*
X484740Y160485D02*
X487220Y160485D01*
X480220Y160540D02*
X477740Y160540D01*
X480220Y160540D02*
X480220Y136560D01*
X477740Y136560D01*
X477740Y160540D01*
X477740Y138735D02*
X480220Y138735D01*
X480220Y140910D02*
X477740Y140910D01*
X477740Y143085D02*
X480220Y143085D01*
X480220Y145260D02*
X477740Y145260D01*
X477740Y147435D02*
X480220Y147435D01*
X480220Y149610D02*
X477740Y149610D01*
X477740Y151785D02*
X480220Y151785D01*
X480220Y153960D02*
X477740Y153960D01*
X477740Y156135D02*
X480220Y156135D01*
X480220Y158310D02*
X477740Y158310D01*
X477740Y160485D02*
X480220Y160485D01*
X473220Y160540D02*
X470740Y160540D01*
X473220Y160540D02*
X473220Y136560D01*
X470740Y136560D01*
X470740Y160540D01*
X470740Y138735D02*
X473220Y138735D01*
X473220Y140910D02*
X470740Y140910D01*
X470740Y143085D02*
X473220Y143085D01*
X473220Y145260D02*
X470740Y145260D01*
X470740Y147435D02*
X473220Y147435D01*
X473220Y149610D02*
X470740Y149610D01*
X470740Y151785D02*
X473220Y151785D01*
X473220Y153960D02*
X470740Y153960D01*
X470740Y156135D02*
X473220Y156135D01*
X473220Y158310D02*
X470740Y158310D01*
X470740Y160485D02*
X473220Y160485D01*
X466220Y160540D02*
X463740Y160540D01*
X466220Y160540D02*
X466220Y136560D01*
X463740Y136560D01*
X463740Y160540D01*
X463740Y138735D02*
X466220Y138735D01*
X466220Y140910D02*
X463740Y140910D01*
X463740Y143085D02*
X466220Y143085D01*
X466220Y145260D02*
X463740Y145260D01*
X463740Y147435D02*
X466220Y147435D01*
X466220Y149610D02*
X463740Y149610D01*
X463740Y151785D02*
X466220Y151785D01*
X466220Y153960D02*
X463740Y153960D01*
X463740Y156135D02*
X466220Y156135D01*
X466220Y158310D02*
X463740Y158310D01*
X463740Y160485D02*
X466220Y160485D01*
X459220Y160540D02*
X456740Y160540D01*
X459220Y160540D02*
X459220Y136560D01*
X456740Y136560D01*
X456740Y160540D01*
X456740Y138735D02*
X459220Y138735D01*
X459220Y140910D02*
X456740Y140910D01*
X456740Y143085D02*
X459220Y143085D01*
X459220Y145260D02*
X456740Y145260D01*
X456740Y147435D02*
X459220Y147435D01*
X459220Y149610D02*
X456740Y149610D01*
X456740Y151785D02*
X459220Y151785D01*
X459220Y153960D02*
X456740Y153960D01*
X456740Y156135D02*
X459220Y156135D01*
X459220Y158310D02*
X456740Y158310D01*
X456740Y160485D02*
X459220Y160485D01*
X452220Y160540D02*
X449740Y160540D01*
X452220Y160540D02*
X452220Y136560D01*
X449740Y136560D01*
X449740Y160540D01*
X449740Y138735D02*
X452220Y138735D01*
X452220Y140910D02*
X449740Y140910D01*
X449740Y143085D02*
X452220Y143085D01*
X452220Y145260D02*
X449740Y145260D01*
X449740Y147435D02*
X452220Y147435D01*
X452220Y149610D02*
X449740Y149610D01*
X449740Y151785D02*
X452220Y151785D01*
X452220Y153960D02*
X449740Y153960D01*
X449740Y156135D02*
X452220Y156135D01*
X452220Y158310D02*
X449740Y158310D01*
X449740Y160485D02*
X452220Y160485D01*
D11*
X458480Y108550D03*
X618480Y108550D03*
D10*
X445220Y160540D02*
X442740Y160540D01*
X445220Y160540D02*
X445220Y136560D01*
X442740Y136560D01*
X442740Y160540D01*
X442740Y138735D02*
X445220Y138735D01*
X445220Y140910D02*
X442740Y140910D01*
X442740Y143085D02*
X445220Y143085D01*
X445220Y145260D02*
X442740Y145260D01*
X442740Y147435D02*
X445220Y147435D01*
X445220Y149610D02*
X442740Y149610D01*
X442740Y151785D02*
X445220Y151785D01*
X445220Y153960D02*
X442740Y153960D01*
X442740Y156135D02*
X445220Y156135D01*
X445220Y158310D02*
X442740Y158310D01*
X442740Y160485D02*
X445220Y160485D01*
X438220Y160540D02*
X435740Y160540D01*
X438220Y160540D02*
X438220Y136560D01*
X435740Y136560D01*
X435740Y160540D01*
X435740Y138735D02*
X438220Y138735D01*
X438220Y140910D02*
X435740Y140910D01*
X435740Y143085D02*
X438220Y143085D01*
X438220Y145260D02*
X435740Y145260D01*
X435740Y147435D02*
X438220Y147435D01*
X438220Y149610D02*
X435740Y149610D01*
X435740Y151785D02*
X438220Y151785D01*
X438220Y153960D02*
X435740Y153960D01*
X435740Y156135D02*
X438220Y156135D01*
X438220Y158310D02*
X435740Y158310D01*
X435740Y160485D02*
X438220Y160485D01*
D12*
X703580Y222250D03*
X703580Y247650D03*
X703580Y273050D03*
X703580Y298450D03*
D13*
X386080Y342900D03*
X690880Y342900D03*
D14*
X386080Y285750D03*
X690880Y82550D03*
D13*
X690880Y25400D03*
X386080Y25400D03*
D10*
X999420Y160540D02*
X1001900Y160540D01*
X1001900Y136560D01*
X999420Y136560D01*
X999420Y160540D01*
X999420Y138735D02*
X1001900Y138735D01*
X1001900Y140910D02*
X999420Y140910D01*
X999420Y143085D02*
X1001900Y143085D01*
X1001900Y145260D02*
X999420Y145260D01*
X999420Y147435D02*
X1001900Y147435D01*
X1001900Y149610D02*
X999420Y149610D01*
X999420Y151785D02*
X1001900Y151785D01*
X1001900Y153960D02*
X999420Y153960D01*
X999420Y156135D02*
X1001900Y156135D01*
X1001900Y158310D02*
X999420Y158310D01*
X999420Y160485D02*
X1001900Y160485D01*
X994900Y160540D02*
X992420Y160540D01*
X994900Y160540D02*
X994900Y136560D01*
X992420Y136560D01*
X992420Y160540D01*
X992420Y138735D02*
X994900Y138735D01*
X994900Y140910D02*
X992420Y140910D01*
X992420Y143085D02*
X994900Y143085D01*
X994900Y145260D02*
X992420Y145260D01*
X992420Y147435D02*
X994900Y147435D01*
X994900Y149610D02*
X992420Y149610D01*
X992420Y151785D02*
X994900Y151785D01*
X994900Y153960D02*
X992420Y153960D01*
X992420Y156135D02*
X994900Y156135D01*
X994900Y158310D02*
X992420Y158310D01*
X992420Y160485D02*
X994900Y160485D01*
X987900Y160540D02*
X985420Y160540D01*
X987900Y160540D02*
X987900Y136560D01*
X985420Y136560D01*
X985420Y160540D01*
X985420Y138735D02*
X987900Y138735D01*
X987900Y140910D02*
X985420Y140910D01*
X985420Y143085D02*
X987900Y143085D01*
X987900Y145260D02*
X985420Y145260D01*
X985420Y147435D02*
X987900Y147435D01*
X987900Y149610D02*
X985420Y149610D01*
X985420Y151785D02*
X987900Y151785D01*
X987900Y153960D02*
X985420Y153960D01*
X985420Y156135D02*
X987900Y156135D01*
X987900Y158310D02*
X985420Y158310D01*
X985420Y160485D02*
X987900Y160485D01*
X980900Y160540D02*
X978420Y160540D01*
X980900Y160540D02*
X980900Y136560D01*
X978420Y136560D01*
X978420Y160540D01*
X978420Y138735D02*
X980900Y138735D01*
X980900Y140910D02*
X978420Y140910D01*
X978420Y143085D02*
X980900Y143085D01*
X980900Y145260D02*
X978420Y145260D01*
X978420Y147435D02*
X980900Y147435D01*
X980900Y149610D02*
X978420Y149610D01*
X978420Y151785D02*
X980900Y151785D01*
X980900Y153960D02*
X978420Y153960D01*
X978420Y156135D02*
X980900Y156135D01*
X980900Y158310D02*
X978420Y158310D01*
X978420Y160485D02*
X980900Y160485D01*
X973900Y160540D02*
X971420Y160540D01*
X973900Y160540D02*
X973900Y136560D01*
X971420Y136560D01*
X971420Y160540D01*
X971420Y138735D02*
X973900Y138735D01*
X973900Y140910D02*
X971420Y140910D01*
X971420Y143085D02*
X973900Y143085D01*
X973900Y145260D02*
X971420Y145260D01*
X971420Y147435D02*
X973900Y147435D01*
X973900Y149610D02*
X971420Y149610D01*
X971420Y151785D02*
X973900Y151785D01*
X973900Y153960D02*
X971420Y153960D01*
X971420Y156135D02*
X973900Y156135D01*
X973900Y158310D02*
X971420Y158310D01*
X971420Y160485D02*
X973900Y160485D01*
X966900Y160540D02*
X964420Y160540D01*
X966900Y160540D02*
X966900Y136560D01*
X964420Y136560D01*
X964420Y160540D01*
X964420Y138735D02*
X966900Y138735D01*
X966900Y140910D02*
X964420Y140910D01*
X964420Y143085D02*
X966900Y143085D01*
X966900Y145260D02*
X964420Y145260D01*
X964420Y147435D02*
X966900Y147435D01*
X966900Y149610D02*
X964420Y149610D01*
X964420Y151785D02*
X966900Y151785D01*
X966900Y153960D02*
X964420Y153960D01*
X964420Y156135D02*
X966900Y156135D01*
X966900Y158310D02*
X964420Y158310D01*
X964420Y160485D02*
X966900Y160485D01*
X959900Y160540D02*
X957420Y160540D01*
X959900Y160540D02*
X959900Y136560D01*
X957420Y136560D01*
X957420Y160540D01*
X957420Y138735D02*
X959900Y138735D01*
X959900Y140910D02*
X957420Y140910D01*
X957420Y143085D02*
X959900Y143085D01*
X959900Y145260D02*
X957420Y145260D01*
X957420Y147435D02*
X959900Y147435D01*
X959900Y149610D02*
X957420Y149610D01*
X957420Y151785D02*
X959900Y151785D01*
X959900Y153960D02*
X957420Y153960D01*
X957420Y156135D02*
X959900Y156135D01*
X959900Y158310D02*
X957420Y158310D01*
X957420Y160485D02*
X959900Y160485D01*
X952900Y160540D02*
X950420Y160540D01*
X952900Y160540D02*
X952900Y136560D01*
X950420Y136560D01*
X950420Y160540D01*
X950420Y138735D02*
X952900Y138735D01*
X952900Y140910D02*
X950420Y140910D01*
X950420Y143085D02*
X952900Y143085D01*
X952900Y145260D02*
X950420Y145260D01*
X950420Y147435D02*
X952900Y147435D01*
X952900Y149610D02*
X950420Y149610D01*
X950420Y151785D02*
X952900Y151785D01*
X952900Y153960D02*
X950420Y153960D01*
X950420Y156135D02*
X952900Y156135D01*
X952900Y158310D02*
X950420Y158310D01*
X950420Y160485D02*
X952900Y160485D01*
X945900Y160540D02*
X943420Y160540D01*
X945900Y160540D02*
X945900Y136560D01*
X943420Y136560D01*
X943420Y160540D01*
X943420Y138735D02*
X945900Y138735D01*
X945900Y140910D02*
X943420Y140910D01*
X943420Y143085D02*
X945900Y143085D01*
X945900Y145260D02*
X943420Y145260D01*
X943420Y147435D02*
X945900Y147435D01*
X945900Y149610D02*
X943420Y149610D01*
X943420Y151785D02*
X945900Y151785D01*
X945900Y153960D02*
X943420Y153960D01*
X943420Y156135D02*
X945900Y156135D01*
X945900Y158310D02*
X943420Y158310D01*
X943420Y160485D02*
X945900Y160485D01*
X938900Y160540D02*
X936420Y160540D01*
X938900Y160540D02*
X938900Y136560D01*
X936420Y136560D01*
X936420Y160540D01*
X936420Y138735D02*
X938900Y138735D01*
X938900Y140910D02*
X936420Y140910D01*
X936420Y143085D02*
X938900Y143085D01*
X938900Y145260D02*
X936420Y145260D01*
X936420Y147435D02*
X938900Y147435D01*
X938900Y149610D02*
X936420Y149610D01*
X936420Y151785D02*
X938900Y151785D01*
X938900Y153960D02*
X936420Y153960D01*
X936420Y156135D02*
X938900Y156135D01*
X938900Y158310D02*
X936420Y158310D01*
X936420Y160485D02*
X938900Y160485D01*
X931900Y160540D02*
X929420Y160540D01*
X931900Y160540D02*
X931900Y136560D01*
X929420Y136560D01*
X929420Y160540D01*
X929420Y138735D02*
X931900Y138735D01*
X931900Y140910D02*
X929420Y140910D01*
X929420Y143085D02*
X931900Y143085D01*
X931900Y145260D02*
X929420Y145260D01*
X929420Y147435D02*
X931900Y147435D01*
X931900Y149610D02*
X929420Y149610D01*
X929420Y151785D02*
X931900Y151785D01*
X931900Y153960D02*
X929420Y153960D01*
X929420Y156135D02*
X931900Y156135D01*
X931900Y158310D02*
X929420Y158310D01*
X929420Y160485D02*
X931900Y160485D01*
X924900Y160540D02*
X922420Y160540D01*
X924900Y160540D02*
X924900Y136560D01*
X922420Y136560D01*
X922420Y160540D01*
X922420Y138735D02*
X924900Y138735D01*
X924900Y140910D02*
X922420Y140910D01*
X922420Y143085D02*
X924900Y143085D01*
X924900Y145260D02*
X922420Y145260D01*
X922420Y147435D02*
X924900Y147435D01*
X924900Y149610D02*
X922420Y149610D01*
X922420Y151785D02*
X924900Y151785D01*
X924900Y153960D02*
X922420Y153960D01*
X922420Y156135D02*
X924900Y156135D01*
X924900Y158310D02*
X922420Y158310D01*
X922420Y160485D02*
X924900Y160485D01*
X917900Y160540D02*
X915420Y160540D01*
X917900Y160540D02*
X917900Y136560D01*
X915420Y136560D01*
X915420Y160540D01*
X915420Y138735D02*
X917900Y138735D01*
X917900Y140910D02*
X915420Y140910D01*
X915420Y143085D02*
X917900Y143085D01*
X917900Y145260D02*
X915420Y145260D01*
X915420Y147435D02*
X917900Y147435D01*
X917900Y149610D02*
X915420Y149610D01*
X915420Y151785D02*
X917900Y151785D01*
X917900Y153960D02*
X915420Y153960D01*
X915420Y156135D02*
X917900Y156135D01*
X917900Y158310D02*
X915420Y158310D01*
X915420Y160485D02*
X917900Y160485D01*
X910900Y160540D02*
X908420Y160540D01*
X910900Y160540D02*
X910900Y136560D01*
X908420Y136560D01*
X908420Y160540D01*
X908420Y138735D02*
X910900Y138735D01*
X910900Y140910D02*
X908420Y140910D01*
X908420Y143085D02*
X910900Y143085D01*
X910900Y145260D02*
X908420Y145260D01*
X908420Y147435D02*
X910900Y147435D01*
X910900Y149610D02*
X908420Y149610D01*
X908420Y151785D02*
X910900Y151785D01*
X910900Y153960D02*
X908420Y153960D01*
X908420Y156135D02*
X910900Y156135D01*
X910900Y158310D02*
X908420Y158310D01*
X908420Y160485D02*
X910900Y160485D01*
X903900Y160540D02*
X901420Y160540D01*
X903900Y160540D02*
X903900Y136560D01*
X901420Y136560D01*
X901420Y160540D01*
X901420Y138735D02*
X903900Y138735D01*
X903900Y140910D02*
X901420Y140910D01*
X901420Y143085D02*
X903900Y143085D01*
X903900Y145260D02*
X901420Y145260D01*
X901420Y147435D02*
X903900Y147435D01*
X903900Y149610D02*
X901420Y149610D01*
X901420Y151785D02*
X903900Y151785D01*
X903900Y153960D02*
X901420Y153960D01*
X901420Y156135D02*
X903900Y156135D01*
X903900Y158310D02*
X901420Y158310D01*
X901420Y160485D02*
X903900Y160485D01*
X896900Y160540D02*
X894420Y160540D01*
X896900Y160540D02*
X896900Y136560D01*
X894420Y136560D01*
X894420Y160540D01*
X894420Y138735D02*
X896900Y138735D01*
X896900Y140910D02*
X894420Y140910D01*
X894420Y143085D02*
X896900Y143085D01*
X896900Y145260D02*
X894420Y145260D01*
X894420Y147435D02*
X896900Y147435D01*
X896900Y149610D02*
X894420Y149610D01*
X894420Y151785D02*
X896900Y151785D01*
X896900Y153960D02*
X894420Y153960D01*
X894420Y156135D02*
X896900Y156135D01*
X896900Y158310D02*
X894420Y158310D01*
X894420Y160485D02*
X896900Y160485D01*
X889900Y160540D02*
X887420Y160540D01*
X889900Y160540D02*
X889900Y136560D01*
X887420Y136560D01*
X887420Y160540D01*
X887420Y138735D02*
X889900Y138735D01*
X889900Y140910D02*
X887420Y140910D01*
X887420Y143085D02*
X889900Y143085D01*
X889900Y145260D02*
X887420Y145260D01*
X887420Y147435D02*
X889900Y147435D01*
X889900Y149610D02*
X887420Y149610D01*
X887420Y151785D02*
X889900Y151785D01*
X889900Y153960D02*
X887420Y153960D01*
X887420Y156135D02*
X889900Y156135D01*
X889900Y158310D02*
X887420Y158310D01*
X887420Y160485D02*
X889900Y160485D01*
X882900Y160540D02*
X880420Y160540D01*
X882900Y160540D02*
X882900Y136560D01*
X880420Y136560D01*
X880420Y160540D01*
X880420Y138735D02*
X882900Y138735D01*
X882900Y140910D02*
X880420Y140910D01*
X880420Y143085D02*
X882900Y143085D01*
X882900Y145260D02*
X880420Y145260D01*
X880420Y147435D02*
X882900Y147435D01*
X882900Y149610D02*
X880420Y149610D01*
X880420Y151785D02*
X882900Y151785D01*
X882900Y153960D02*
X880420Y153960D01*
X880420Y156135D02*
X882900Y156135D01*
X882900Y158310D02*
X880420Y158310D01*
X880420Y160485D02*
X882900Y160485D01*
X875900Y160540D02*
X873420Y160540D01*
X875900Y160540D02*
X875900Y136560D01*
X873420Y136560D01*
X873420Y160540D01*
X873420Y138735D02*
X875900Y138735D01*
X875900Y140910D02*
X873420Y140910D01*
X873420Y143085D02*
X875900Y143085D01*
X875900Y145260D02*
X873420Y145260D01*
X873420Y147435D02*
X875900Y147435D01*
X875900Y149610D02*
X873420Y149610D01*
X873420Y151785D02*
X875900Y151785D01*
X875900Y153960D02*
X873420Y153960D01*
X873420Y156135D02*
X875900Y156135D01*
X875900Y158310D02*
X873420Y158310D01*
X873420Y160485D02*
X875900Y160485D01*
X868900Y160540D02*
X866420Y160540D01*
X868900Y160540D02*
X868900Y136560D01*
X866420Y136560D01*
X866420Y160540D01*
X866420Y138735D02*
X868900Y138735D01*
X868900Y140910D02*
X866420Y140910D01*
X866420Y143085D02*
X868900Y143085D01*
X868900Y145260D02*
X866420Y145260D01*
X866420Y147435D02*
X868900Y147435D01*
X868900Y149610D02*
X866420Y149610D01*
X866420Y151785D02*
X868900Y151785D01*
X868900Y153960D02*
X866420Y153960D01*
X866420Y156135D02*
X868900Y156135D01*
X868900Y158310D02*
X866420Y158310D01*
X866420Y160485D02*
X868900Y160485D01*
X861900Y160540D02*
X859420Y160540D01*
X861900Y160540D02*
X861900Y136560D01*
X859420Y136560D01*
X859420Y160540D01*
X859420Y138735D02*
X861900Y138735D01*
X861900Y140910D02*
X859420Y140910D01*
X859420Y143085D02*
X861900Y143085D01*
X861900Y145260D02*
X859420Y145260D01*
X859420Y147435D02*
X861900Y147435D01*
X861900Y149610D02*
X859420Y149610D01*
X859420Y151785D02*
X861900Y151785D01*
X861900Y153960D02*
X859420Y153960D01*
X859420Y156135D02*
X861900Y156135D01*
X861900Y158310D02*
X859420Y158310D01*
X859420Y160485D02*
X861900Y160485D01*
X854900Y160540D02*
X852420Y160540D01*
X854900Y160540D02*
X854900Y136560D01*
X852420Y136560D01*
X852420Y160540D01*
X852420Y138735D02*
X854900Y138735D01*
X854900Y140910D02*
X852420Y140910D01*
X852420Y143085D02*
X854900Y143085D01*
X854900Y145260D02*
X852420Y145260D01*
X852420Y147435D02*
X854900Y147435D01*
X854900Y149610D02*
X852420Y149610D01*
X852420Y151785D02*
X854900Y151785D01*
X854900Y153960D02*
X852420Y153960D01*
X852420Y156135D02*
X854900Y156135D01*
X854900Y158310D02*
X852420Y158310D01*
X852420Y160485D02*
X854900Y160485D01*
X847900Y160540D02*
X845420Y160540D01*
X847900Y160540D02*
X847900Y136560D01*
X845420Y136560D01*
X845420Y160540D01*
X845420Y138735D02*
X847900Y138735D01*
X847900Y140910D02*
X845420Y140910D01*
X845420Y143085D02*
X847900Y143085D01*
X847900Y145260D02*
X845420Y145260D01*
X845420Y147435D02*
X847900Y147435D01*
X847900Y149610D02*
X845420Y149610D01*
X845420Y151785D02*
X847900Y151785D01*
X847900Y153960D02*
X845420Y153960D01*
X845420Y156135D02*
X847900Y156135D01*
X847900Y158310D02*
X845420Y158310D01*
X845420Y160485D02*
X847900Y160485D01*
X840900Y160540D02*
X838420Y160540D01*
X840900Y160540D02*
X840900Y136560D01*
X838420Y136560D01*
X838420Y160540D01*
X838420Y138735D02*
X840900Y138735D01*
X840900Y140910D02*
X838420Y140910D01*
X838420Y143085D02*
X840900Y143085D01*
X840900Y145260D02*
X838420Y145260D01*
X838420Y147435D02*
X840900Y147435D01*
X840900Y149610D02*
X838420Y149610D01*
X838420Y151785D02*
X840900Y151785D01*
X840900Y153960D02*
X838420Y153960D01*
X838420Y156135D02*
X840900Y156135D01*
X840900Y158310D02*
X838420Y158310D01*
X838420Y160485D02*
X840900Y160485D01*
X833900Y160540D02*
X831420Y160540D01*
X833900Y160540D02*
X833900Y136560D01*
X831420Y136560D01*
X831420Y160540D01*
X831420Y138735D02*
X833900Y138735D01*
X833900Y140910D02*
X831420Y140910D01*
X831420Y143085D02*
X833900Y143085D01*
X833900Y145260D02*
X831420Y145260D01*
X831420Y147435D02*
X833900Y147435D01*
X833900Y149610D02*
X831420Y149610D01*
X831420Y151785D02*
X833900Y151785D01*
X833900Y153960D02*
X831420Y153960D01*
X831420Y156135D02*
X833900Y156135D01*
X833900Y158310D02*
X831420Y158310D01*
X831420Y160485D02*
X833900Y160485D01*
X826900Y160540D02*
X824420Y160540D01*
X826900Y160540D02*
X826900Y136560D01*
X824420Y136560D01*
X824420Y160540D01*
X824420Y138735D02*
X826900Y138735D01*
X826900Y140910D02*
X824420Y140910D01*
X824420Y143085D02*
X826900Y143085D01*
X826900Y145260D02*
X824420Y145260D01*
X824420Y147435D02*
X826900Y147435D01*
X826900Y149610D02*
X824420Y149610D01*
X824420Y151785D02*
X826900Y151785D01*
X826900Y153960D02*
X824420Y153960D01*
X824420Y156135D02*
X826900Y156135D01*
X826900Y158310D02*
X824420Y158310D01*
X824420Y160485D02*
X826900Y160485D01*
X819900Y160540D02*
X817420Y160540D01*
X819900Y160540D02*
X819900Y136560D01*
X817420Y136560D01*
X817420Y160540D01*
X817420Y138735D02*
X819900Y138735D01*
X819900Y140910D02*
X817420Y140910D01*
X817420Y143085D02*
X819900Y143085D01*
X819900Y145260D02*
X817420Y145260D01*
X817420Y147435D02*
X819900Y147435D01*
X819900Y149610D02*
X817420Y149610D01*
X817420Y151785D02*
X819900Y151785D01*
X819900Y153960D02*
X817420Y153960D01*
X817420Y156135D02*
X819900Y156135D01*
X819900Y158310D02*
X817420Y158310D01*
X817420Y160485D02*
X819900Y160485D01*
X812900Y160540D02*
X810420Y160540D01*
X812900Y160540D02*
X812900Y136560D01*
X810420Y136560D01*
X810420Y160540D01*
X810420Y138735D02*
X812900Y138735D01*
X812900Y140910D02*
X810420Y140910D01*
X810420Y143085D02*
X812900Y143085D01*
X812900Y145260D02*
X810420Y145260D01*
X810420Y147435D02*
X812900Y147435D01*
X812900Y149610D02*
X810420Y149610D01*
X810420Y151785D02*
X812900Y151785D01*
X812900Y153960D02*
X810420Y153960D01*
X810420Y156135D02*
X812900Y156135D01*
X812900Y158310D02*
X810420Y158310D01*
X810420Y160485D02*
X812900Y160485D01*
D11*
X819160Y108550D03*
X979160Y108550D03*
D10*
X805900Y160540D02*
X803420Y160540D01*
X805900Y160540D02*
X805900Y136560D01*
X803420Y136560D01*
X803420Y160540D01*
X803420Y138735D02*
X805900Y138735D01*
X805900Y140910D02*
X803420Y140910D01*
X803420Y143085D02*
X805900Y143085D01*
X805900Y145260D02*
X803420Y145260D01*
X803420Y147435D02*
X805900Y147435D01*
X805900Y149610D02*
X803420Y149610D01*
X803420Y151785D02*
X805900Y151785D01*
X805900Y153960D02*
X803420Y153960D01*
X803420Y156135D02*
X805900Y156135D01*
X805900Y158310D02*
X803420Y158310D01*
X803420Y160485D02*
X805900Y160485D01*
X798900Y160540D02*
X796420Y160540D01*
X798900Y160540D02*
X798900Y136560D01*
X796420Y136560D01*
X796420Y160540D01*
X796420Y138735D02*
X798900Y138735D01*
X798900Y140910D02*
X796420Y140910D01*
X796420Y143085D02*
X798900Y143085D01*
X798900Y145260D02*
X796420Y145260D01*
X796420Y147435D02*
X798900Y147435D01*
X798900Y149610D02*
X796420Y149610D01*
X796420Y151785D02*
X798900Y151785D01*
X798900Y153960D02*
X796420Y153960D01*
X796420Y156135D02*
X798900Y156135D01*
X798900Y158310D02*
X796420Y158310D01*
X796420Y160485D02*
X798900Y160485D01*
D12*
X1064260Y222250D03*
X1064260Y247650D03*
X1064260Y273050D03*
X1064260Y298450D03*
D13*
X746760Y342900D03*
X1051560Y342900D03*
D14*
X746760Y285750D03*
X1051560Y82550D03*
D13*
X1051560Y25400D03*
X746760Y25400D03*
D10*
X280540Y559320D02*
X278060Y559320D01*
X280540Y559320D02*
X280540Y535340D01*
X278060Y535340D01*
X278060Y559320D01*
X278060Y537515D02*
X280540Y537515D01*
X280540Y539690D02*
X278060Y539690D01*
X278060Y541865D02*
X280540Y541865D01*
X280540Y544040D02*
X278060Y544040D01*
X278060Y546215D02*
X280540Y546215D01*
X280540Y548390D02*
X278060Y548390D01*
X278060Y550565D02*
X280540Y550565D01*
X280540Y552740D02*
X278060Y552740D01*
X278060Y554915D02*
X280540Y554915D01*
X280540Y557090D02*
X278060Y557090D01*
X278060Y559265D02*
X280540Y559265D01*
X273540Y559320D02*
X271060Y559320D01*
X273540Y559320D02*
X273540Y535340D01*
X271060Y535340D01*
X271060Y559320D01*
X271060Y537515D02*
X273540Y537515D01*
X273540Y539690D02*
X271060Y539690D01*
X271060Y541865D02*
X273540Y541865D01*
X273540Y544040D02*
X271060Y544040D01*
X271060Y546215D02*
X273540Y546215D01*
X273540Y548390D02*
X271060Y548390D01*
X271060Y550565D02*
X273540Y550565D01*
X273540Y552740D02*
X271060Y552740D01*
X271060Y554915D02*
X273540Y554915D01*
X273540Y557090D02*
X271060Y557090D01*
X271060Y559265D02*
X273540Y559265D01*
X266540Y559320D02*
X264060Y559320D01*
X266540Y559320D02*
X266540Y535340D01*
X264060Y535340D01*
X264060Y559320D01*
X264060Y537515D02*
X266540Y537515D01*
X266540Y539690D02*
X264060Y539690D01*
X264060Y541865D02*
X266540Y541865D01*
X266540Y544040D02*
X264060Y544040D01*
X264060Y546215D02*
X266540Y546215D01*
X266540Y548390D02*
X264060Y548390D01*
X264060Y550565D02*
X266540Y550565D01*
X266540Y552740D02*
X264060Y552740D01*
X264060Y554915D02*
X266540Y554915D01*
X266540Y557090D02*
X264060Y557090D01*
X264060Y559265D02*
X266540Y559265D01*
X259540Y559320D02*
X257060Y559320D01*
X259540Y559320D02*
X259540Y535340D01*
X257060Y535340D01*
X257060Y559320D01*
X257060Y537515D02*
X259540Y537515D01*
X259540Y539690D02*
X257060Y539690D01*
X257060Y541865D02*
X259540Y541865D01*
X259540Y544040D02*
X257060Y544040D01*
X257060Y546215D02*
X259540Y546215D01*
X259540Y548390D02*
X257060Y548390D01*
X257060Y550565D02*
X259540Y550565D01*
X259540Y552740D02*
X257060Y552740D01*
X257060Y554915D02*
X259540Y554915D01*
X259540Y557090D02*
X257060Y557090D01*
X257060Y559265D02*
X259540Y559265D01*
X252540Y559320D02*
X250060Y559320D01*
X252540Y559320D02*
X252540Y535340D01*
X250060Y535340D01*
X250060Y559320D01*
X250060Y537515D02*
X252540Y537515D01*
X252540Y539690D02*
X250060Y539690D01*
X250060Y541865D02*
X252540Y541865D01*
X252540Y544040D02*
X250060Y544040D01*
X250060Y546215D02*
X252540Y546215D01*
X252540Y548390D02*
X250060Y548390D01*
X250060Y550565D02*
X252540Y550565D01*
X252540Y552740D02*
X250060Y552740D01*
X250060Y554915D02*
X252540Y554915D01*
X252540Y557090D02*
X250060Y557090D01*
X250060Y559265D02*
X252540Y559265D01*
X245540Y559320D02*
X243060Y559320D01*
X245540Y559320D02*
X245540Y535340D01*
X243060Y535340D01*
X243060Y559320D01*
X243060Y537515D02*
X245540Y537515D01*
X245540Y539690D02*
X243060Y539690D01*
X243060Y541865D02*
X245540Y541865D01*
X245540Y544040D02*
X243060Y544040D01*
X243060Y546215D02*
X245540Y546215D01*
X245540Y548390D02*
X243060Y548390D01*
X243060Y550565D02*
X245540Y550565D01*
X245540Y552740D02*
X243060Y552740D01*
X243060Y554915D02*
X245540Y554915D01*
X245540Y557090D02*
X243060Y557090D01*
X243060Y559265D02*
X245540Y559265D01*
X238540Y559320D02*
X236060Y559320D01*
X238540Y559320D02*
X238540Y535340D01*
X236060Y535340D01*
X236060Y559320D01*
X236060Y537515D02*
X238540Y537515D01*
X238540Y539690D02*
X236060Y539690D01*
X236060Y541865D02*
X238540Y541865D01*
X238540Y544040D02*
X236060Y544040D01*
X236060Y546215D02*
X238540Y546215D01*
X238540Y548390D02*
X236060Y548390D01*
X236060Y550565D02*
X238540Y550565D01*
X238540Y552740D02*
X236060Y552740D01*
X236060Y554915D02*
X238540Y554915D01*
X238540Y557090D02*
X236060Y557090D01*
X236060Y559265D02*
X238540Y559265D01*
X231540Y559320D02*
X229060Y559320D01*
X231540Y559320D02*
X231540Y535340D01*
X229060Y535340D01*
X229060Y559320D01*
X229060Y537515D02*
X231540Y537515D01*
X231540Y539690D02*
X229060Y539690D01*
X229060Y541865D02*
X231540Y541865D01*
X231540Y544040D02*
X229060Y544040D01*
X229060Y546215D02*
X231540Y546215D01*
X231540Y548390D02*
X229060Y548390D01*
X229060Y550565D02*
X231540Y550565D01*
X231540Y552740D02*
X229060Y552740D01*
X229060Y554915D02*
X231540Y554915D01*
X231540Y557090D02*
X229060Y557090D01*
X229060Y559265D02*
X231540Y559265D01*
X224540Y559320D02*
X222060Y559320D01*
X224540Y559320D02*
X224540Y535340D01*
X222060Y535340D01*
X222060Y559320D01*
X222060Y537515D02*
X224540Y537515D01*
X224540Y539690D02*
X222060Y539690D01*
X222060Y541865D02*
X224540Y541865D01*
X224540Y544040D02*
X222060Y544040D01*
X222060Y546215D02*
X224540Y546215D01*
X224540Y548390D02*
X222060Y548390D01*
X222060Y550565D02*
X224540Y550565D01*
X224540Y552740D02*
X222060Y552740D01*
X222060Y554915D02*
X224540Y554915D01*
X224540Y557090D02*
X222060Y557090D01*
X222060Y559265D02*
X224540Y559265D01*
X217540Y559320D02*
X215060Y559320D01*
X217540Y559320D02*
X217540Y535340D01*
X215060Y535340D01*
X215060Y559320D01*
X215060Y537515D02*
X217540Y537515D01*
X217540Y539690D02*
X215060Y539690D01*
X215060Y541865D02*
X217540Y541865D01*
X217540Y544040D02*
X215060Y544040D01*
X215060Y546215D02*
X217540Y546215D01*
X217540Y548390D02*
X215060Y548390D01*
X215060Y550565D02*
X217540Y550565D01*
X217540Y552740D02*
X215060Y552740D01*
X215060Y554915D02*
X217540Y554915D01*
X217540Y557090D02*
X215060Y557090D01*
X215060Y559265D02*
X217540Y559265D01*
X210540Y559320D02*
X208060Y559320D01*
X210540Y559320D02*
X210540Y535340D01*
X208060Y535340D01*
X208060Y559320D01*
X208060Y537515D02*
X210540Y537515D01*
X210540Y539690D02*
X208060Y539690D01*
X208060Y541865D02*
X210540Y541865D01*
X210540Y544040D02*
X208060Y544040D01*
X208060Y546215D02*
X210540Y546215D01*
X210540Y548390D02*
X208060Y548390D01*
X208060Y550565D02*
X210540Y550565D01*
X210540Y552740D02*
X208060Y552740D01*
X208060Y554915D02*
X210540Y554915D01*
X210540Y557090D02*
X208060Y557090D01*
X208060Y559265D02*
X210540Y559265D01*
X203540Y559320D02*
X201060Y559320D01*
X203540Y559320D02*
X203540Y535340D01*
X201060Y535340D01*
X201060Y559320D01*
X201060Y537515D02*
X203540Y537515D01*
X203540Y539690D02*
X201060Y539690D01*
X201060Y541865D02*
X203540Y541865D01*
X203540Y544040D02*
X201060Y544040D01*
X201060Y546215D02*
X203540Y546215D01*
X203540Y548390D02*
X201060Y548390D01*
X201060Y550565D02*
X203540Y550565D01*
X203540Y552740D02*
X201060Y552740D01*
X201060Y554915D02*
X203540Y554915D01*
X203540Y557090D02*
X201060Y557090D01*
X201060Y559265D02*
X203540Y559265D01*
X196540Y559320D02*
X194060Y559320D01*
X196540Y559320D02*
X196540Y535340D01*
X194060Y535340D01*
X194060Y559320D01*
X194060Y537515D02*
X196540Y537515D01*
X196540Y539690D02*
X194060Y539690D01*
X194060Y541865D02*
X196540Y541865D01*
X196540Y544040D02*
X194060Y544040D01*
X194060Y546215D02*
X196540Y546215D01*
X196540Y548390D02*
X194060Y548390D01*
X194060Y550565D02*
X196540Y550565D01*
X196540Y552740D02*
X194060Y552740D01*
X194060Y554915D02*
X196540Y554915D01*
X196540Y557090D02*
X194060Y557090D01*
X194060Y559265D02*
X196540Y559265D01*
X189540Y559320D02*
X187060Y559320D01*
X189540Y559320D02*
X189540Y535340D01*
X187060Y535340D01*
X187060Y559320D01*
X187060Y537515D02*
X189540Y537515D01*
X189540Y539690D02*
X187060Y539690D01*
X187060Y541865D02*
X189540Y541865D01*
X189540Y544040D02*
X187060Y544040D01*
X187060Y546215D02*
X189540Y546215D01*
X189540Y548390D02*
X187060Y548390D01*
X187060Y550565D02*
X189540Y550565D01*
X189540Y552740D02*
X187060Y552740D01*
X187060Y554915D02*
X189540Y554915D01*
X189540Y557090D02*
X187060Y557090D01*
X187060Y559265D02*
X189540Y559265D01*
X182540Y559320D02*
X180060Y559320D01*
X182540Y559320D02*
X182540Y535340D01*
X180060Y535340D01*
X180060Y559320D01*
X180060Y537515D02*
X182540Y537515D01*
X182540Y539690D02*
X180060Y539690D01*
X180060Y541865D02*
X182540Y541865D01*
X182540Y544040D02*
X180060Y544040D01*
X180060Y546215D02*
X182540Y546215D01*
X182540Y548390D02*
X180060Y548390D01*
X180060Y550565D02*
X182540Y550565D01*
X182540Y552740D02*
X180060Y552740D01*
X180060Y554915D02*
X182540Y554915D01*
X182540Y557090D02*
X180060Y557090D01*
X180060Y559265D02*
X182540Y559265D01*
X175540Y559320D02*
X173060Y559320D01*
X175540Y559320D02*
X175540Y535340D01*
X173060Y535340D01*
X173060Y559320D01*
X173060Y537515D02*
X175540Y537515D01*
X175540Y539690D02*
X173060Y539690D01*
X173060Y541865D02*
X175540Y541865D01*
X175540Y544040D02*
X173060Y544040D01*
X173060Y546215D02*
X175540Y546215D01*
X175540Y548390D02*
X173060Y548390D01*
X173060Y550565D02*
X175540Y550565D01*
X175540Y552740D02*
X173060Y552740D01*
X173060Y554915D02*
X175540Y554915D01*
X175540Y557090D02*
X173060Y557090D01*
X173060Y559265D02*
X175540Y559265D01*
X168540Y559320D02*
X166060Y559320D01*
X168540Y559320D02*
X168540Y535340D01*
X166060Y535340D01*
X166060Y559320D01*
X166060Y537515D02*
X168540Y537515D01*
X168540Y539690D02*
X166060Y539690D01*
X166060Y541865D02*
X168540Y541865D01*
X168540Y544040D02*
X166060Y544040D01*
X166060Y546215D02*
X168540Y546215D01*
X168540Y548390D02*
X166060Y548390D01*
X166060Y550565D02*
X168540Y550565D01*
X168540Y552740D02*
X166060Y552740D01*
X166060Y554915D02*
X168540Y554915D01*
X168540Y557090D02*
X166060Y557090D01*
X166060Y559265D02*
X168540Y559265D01*
X161540Y559320D02*
X159060Y559320D01*
X161540Y559320D02*
X161540Y535340D01*
X159060Y535340D01*
X159060Y559320D01*
X159060Y537515D02*
X161540Y537515D01*
X161540Y539690D02*
X159060Y539690D01*
X159060Y541865D02*
X161540Y541865D01*
X161540Y544040D02*
X159060Y544040D01*
X159060Y546215D02*
X161540Y546215D01*
X161540Y548390D02*
X159060Y548390D01*
X159060Y550565D02*
X161540Y550565D01*
X161540Y552740D02*
X159060Y552740D01*
X159060Y554915D02*
X161540Y554915D01*
X161540Y557090D02*
X159060Y557090D01*
X159060Y559265D02*
X161540Y559265D01*
X154540Y559320D02*
X152060Y559320D01*
X154540Y559320D02*
X154540Y535340D01*
X152060Y535340D01*
X152060Y559320D01*
X152060Y537515D02*
X154540Y537515D01*
X154540Y539690D02*
X152060Y539690D01*
X152060Y541865D02*
X154540Y541865D01*
X154540Y544040D02*
X152060Y544040D01*
X152060Y546215D02*
X154540Y546215D01*
X154540Y548390D02*
X152060Y548390D01*
X152060Y550565D02*
X154540Y550565D01*
X154540Y552740D02*
X152060Y552740D01*
X152060Y554915D02*
X154540Y554915D01*
X154540Y557090D02*
X152060Y557090D01*
X152060Y559265D02*
X154540Y559265D01*
X147540Y559320D02*
X145060Y559320D01*
X147540Y559320D02*
X147540Y535340D01*
X145060Y535340D01*
X145060Y559320D01*
X145060Y537515D02*
X147540Y537515D01*
X147540Y539690D02*
X145060Y539690D01*
X145060Y541865D02*
X147540Y541865D01*
X147540Y544040D02*
X145060Y544040D01*
X145060Y546215D02*
X147540Y546215D01*
X147540Y548390D02*
X145060Y548390D01*
X145060Y550565D02*
X147540Y550565D01*
X147540Y552740D02*
X145060Y552740D01*
X145060Y554915D02*
X147540Y554915D01*
X147540Y557090D02*
X145060Y557090D01*
X145060Y559265D02*
X147540Y559265D01*
X140540Y559320D02*
X138060Y559320D01*
X140540Y559320D02*
X140540Y535340D01*
X138060Y535340D01*
X138060Y559320D01*
X138060Y537515D02*
X140540Y537515D01*
X140540Y539690D02*
X138060Y539690D01*
X138060Y541865D02*
X140540Y541865D01*
X140540Y544040D02*
X138060Y544040D01*
X138060Y546215D02*
X140540Y546215D01*
X140540Y548390D02*
X138060Y548390D01*
X138060Y550565D02*
X140540Y550565D01*
X140540Y552740D02*
X138060Y552740D01*
X138060Y554915D02*
X140540Y554915D01*
X140540Y557090D02*
X138060Y557090D01*
X138060Y559265D02*
X140540Y559265D01*
X133540Y559320D02*
X131060Y559320D01*
X133540Y559320D02*
X133540Y535340D01*
X131060Y535340D01*
X131060Y559320D01*
X131060Y537515D02*
X133540Y537515D01*
X133540Y539690D02*
X131060Y539690D01*
X131060Y541865D02*
X133540Y541865D01*
X133540Y544040D02*
X131060Y544040D01*
X131060Y546215D02*
X133540Y546215D01*
X133540Y548390D02*
X131060Y548390D01*
X131060Y550565D02*
X133540Y550565D01*
X133540Y552740D02*
X131060Y552740D01*
X131060Y554915D02*
X133540Y554915D01*
X133540Y557090D02*
X131060Y557090D01*
X131060Y559265D02*
X133540Y559265D01*
X126540Y559320D02*
X124060Y559320D01*
X126540Y559320D02*
X126540Y535340D01*
X124060Y535340D01*
X124060Y559320D01*
X124060Y537515D02*
X126540Y537515D01*
X126540Y539690D02*
X124060Y539690D01*
X124060Y541865D02*
X126540Y541865D01*
X126540Y544040D02*
X124060Y544040D01*
X124060Y546215D02*
X126540Y546215D01*
X126540Y548390D02*
X124060Y548390D01*
X124060Y550565D02*
X126540Y550565D01*
X126540Y552740D02*
X124060Y552740D01*
X124060Y554915D02*
X126540Y554915D01*
X126540Y557090D02*
X124060Y557090D01*
X124060Y559265D02*
X126540Y559265D01*
X119540Y559320D02*
X117060Y559320D01*
X119540Y559320D02*
X119540Y535340D01*
X117060Y535340D01*
X117060Y559320D01*
X117060Y537515D02*
X119540Y537515D01*
X119540Y539690D02*
X117060Y539690D01*
X117060Y541865D02*
X119540Y541865D01*
X119540Y544040D02*
X117060Y544040D01*
X117060Y546215D02*
X119540Y546215D01*
X119540Y548390D02*
X117060Y548390D01*
X117060Y550565D02*
X119540Y550565D01*
X119540Y552740D02*
X117060Y552740D01*
X117060Y554915D02*
X119540Y554915D01*
X119540Y557090D02*
X117060Y557090D01*
X117060Y559265D02*
X119540Y559265D01*
X112540Y559320D02*
X110060Y559320D01*
X112540Y559320D02*
X112540Y535340D01*
X110060Y535340D01*
X110060Y559320D01*
X110060Y537515D02*
X112540Y537515D01*
X112540Y539690D02*
X110060Y539690D01*
X110060Y541865D02*
X112540Y541865D01*
X112540Y544040D02*
X110060Y544040D01*
X110060Y546215D02*
X112540Y546215D01*
X112540Y548390D02*
X110060Y548390D01*
X110060Y550565D02*
X112540Y550565D01*
X112540Y552740D02*
X110060Y552740D01*
X110060Y554915D02*
X112540Y554915D01*
X112540Y557090D02*
X110060Y557090D01*
X110060Y559265D02*
X112540Y559265D01*
X105540Y559320D02*
X103060Y559320D01*
X105540Y559320D02*
X105540Y535340D01*
X103060Y535340D01*
X103060Y559320D01*
X103060Y537515D02*
X105540Y537515D01*
X105540Y539690D02*
X103060Y539690D01*
X103060Y541865D02*
X105540Y541865D01*
X105540Y544040D02*
X103060Y544040D01*
X103060Y546215D02*
X105540Y546215D01*
X105540Y548390D02*
X103060Y548390D01*
X103060Y550565D02*
X105540Y550565D01*
X105540Y552740D02*
X103060Y552740D01*
X103060Y554915D02*
X105540Y554915D01*
X105540Y557090D02*
X103060Y557090D01*
X103060Y559265D02*
X105540Y559265D01*
X98540Y559320D02*
X96060Y559320D01*
X98540Y559320D02*
X98540Y535340D01*
X96060Y535340D01*
X96060Y559320D01*
X96060Y537515D02*
X98540Y537515D01*
X98540Y539690D02*
X96060Y539690D01*
X96060Y541865D02*
X98540Y541865D01*
X98540Y544040D02*
X96060Y544040D01*
X96060Y546215D02*
X98540Y546215D01*
X98540Y548390D02*
X96060Y548390D01*
X96060Y550565D02*
X98540Y550565D01*
X98540Y552740D02*
X96060Y552740D01*
X96060Y554915D02*
X98540Y554915D01*
X98540Y557090D02*
X96060Y557090D01*
X96060Y559265D02*
X98540Y559265D01*
X91540Y559320D02*
X89060Y559320D01*
X91540Y559320D02*
X91540Y535340D01*
X89060Y535340D01*
X89060Y559320D01*
X89060Y537515D02*
X91540Y537515D01*
X91540Y539690D02*
X89060Y539690D01*
X89060Y541865D02*
X91540Y541865D01*
X91540Y544040D02*
X89060Y544040D01*
X89060Y546215D02*
X91540Y546215D01*
X91540Y548390D02*
X89060Y548390D01*
X89060Y550565D02*
X91540Y550565D01*
X91540Y552740D02*
X89060Y552740D01*
X89060Y554915D02*
X91540Y554915D01*
X91540Y557090D02*
X89060Y557090D01*
X89060Y559265D02*
X91540Y559265D01*
D11*
X97800Y507330D03*
X257800Y507330D03*
D10*
X84540Y559320D02*
X82060Y559320D01*
X84540Y559320D02*
X84540Y535340D01*
X82060Y535340D01*
X82060Y559320D01*
X82060Y537515D02*
X84540Y537515D01*
X84540Y539690D02*
X82060Y539690D01*
X82060Y541865D02*
X84540Y541865D01*
X84540Y544040D02*
X82060Y544040D01*
X82060Y546215D02*
X84540Y546215D01*
X84540Y548390D02*
X82060Y548390D01*
X82060Y550565D02*
X84540Y550565D01*
X84540Y552740D02*
X82060Y552740D01*
X82060Y554915D02*
X84540Y554915D01*
X84540Y557090D02*
X82060Y557090D01*
X82060Y559265D02*
X84540Y559265D01*
X77540Y559320D02*
X75060Y559320D01*
X77540Y559320D02*
X77540Y535340D01*
X75060Y535340D01*
X75060Y559320D01*
X75060Y537515D02*
X77540Y537515D01*
X77540Y539690D02*
X75060Y539690D01*
X75060Y541865D02*
X77540Y541865D01*
X77540Y544040D02*
X75060Y544040D01*
X75060Y546215D02*
X77540Y546215D01*
X77540Y548390D02*
X75060Y548390D01*
X75060Y550565D02*
X77540Y550565D01*
X77540Y552740D02*
X75060Y552740D01*
X75060Y554915D02*
X77540Y554915D01*
X77540Y557090D02*
X75060Y557090D01*
X75060Y559265D02*
X77540Y559265D01*
D12*
X342900Y621030D03*
X342900Y646430D03*
X342900Y671830D03*
X342900Y697230D03*
D13*
X25400Y741680D03*
X330200Y741680D03*
D14*
X25400Y684530D03*
X330200Y481330D03*
D13*
X330200Y424180D03*
X25400Y424180D03*
D10*
X638740Y559320D02*
X641220Y559320D01*
X641220Y535340D01*
X638740Y535340D01*
X638740Y559320D01*
X638740Y537515D02*
X641220Y537515D01*
X641220Y539690D02*
X638740Y539690D01*
X638740Y541865D02*
X641220Y541865D01*
X641220Y544040D02*
X638740Y544040D01*
X638740Y546215D02*
X641220Y546215D01*
X641220Y548390D02*
X638740Y548390D01*
X638740Y550565D02*
X641220Y550565D01*
X641220Y552740D02*
X638740Y552740D01*
X638740Y554915D02*
X641220Y554915D01*
X641220Y557090D02*
X638740Y557090D01*
X638740Y559265D02*
X641220Y559265D01*
X634220Y559320D02*
X631740Y559320D01*
X634220Y559320D02*
X634220Y535340D01*
X631740Y535340D01*
X631740Y559320D01*
X631740Y537515D02*
X634220Y537515D01*
X634220Y539690D02*
X631740Y539690D01*
X631740Y541865D02*
X634220Y541865D01*
X634220Y544040D02*
X631740Y544040D01*
X631740Y546215D02*
X634220Y546215D01*
X634220Y548390D02*
X631740Y548390D01*
X631740Y550565D02*
X634220Y550565D01*
X634220Y552740D02*
X631740Y552740D01*
X631740Y554915D02*
X634220Y554915D01*
X634220Y557090D02*
X631740Y557090D01*
X631740Y559265D02*
X634220Y559265D01*
X627220Y559320D02*
X624740Y559320D01*
X627220Y559320D02*
X627220Y535340D01*
X624740Y535340D01*
X624740Y559320D01*
X624740Y537515D02*
X627220Y537515D01*
X627220Y539690D02*
X624740Y539690D01*
X624740Y541865D02*
X627220Y541865D01*
X627220Y544040D02*
X624740Y544040D01*
X624740Y546215D02*
X627220Y546215D01*
X627220Y548390D02*
X624740Y548390D01*
X624740Y550565D02*
X627220Y550565D01*
X627220Y552740D02*
X624740Y552740D01*
X624740Y554915D02*
X627220Y554915D01*
X627220Y557090D02*
X624740Y557090D01*
X624740Y559265D02*
X627220Y559265D01*
X620220Y559320D02*
X617740Y559320D01*
X620220Y559320D02*
X620220Y535340D01*
X617740Y535340D01*
X617740Y559320D01*
X617740Y537515D02*
X620220Y537515D01*
X620220Y539690D02*
X617740Y539690D01*
X617740Y541865D02*
X620220Y541865D01*
X620220Y544040D02*
X617740Y544040D01*
X617740Y546215D02*
X620220Y546215D01*
X620220Y548390D02*
X617740Y548390D01*
X617740Y550565D02*
X620220Y550565D01*
X620220Y552740D02*
X617740Y552740D01*
X617740Y554915D02*
X620220Y554915D01*
X620220Y557090D02*
X617740Y557090D01*
X617740Y559265D02*
X620220Y559265D01*
X613220Y559320D02*
X610740Y559320D01*
X613220Y559320D02*
X613220Y535340D01*
X610740Y535340D01*
X610740Y559320D01*
X610740Y537515D02*
X613220Y537515D01*
X613220Y539690D02*
X610740Y539690D01*
X610740Y541865D02*
X613220Y541865D01*
X613220Y544040D02*
X610740Y544040D01*
X610740Y546215D02*
X613220Y546215D01*
X613220Y548390D02*
X610740Y548390D01*
X610740Y550565D02*
X613220Y550565D01*
X613220Y552740D02*
X610740Y552740D01*
X610740Y554915D02*
X613220Y554915D01*
X613220Y557090D02*
X610740Y557090D01*
X610740Y559265D02*
X613220Y559265D01*
X606220Y559320D02*
X603740Y559320D01*
X606220Y559320D02*
X606220Y535340D01*
X603740Y535340D01*
X603740Y559320D01*
X603740Y537515D02*
X606220Y537515D01*
X606220Y539690D02*
X603740Y539690D01*
X603740Y541865D02*
X606220Y541865D01*
X606220Y544040D02*
X603740Y544040D01*
X603740Y546215D02*
X606220Y546215D01*
X606220Y548390D02*
X603740Y548390D01*
X603740Y550565D02*
X606220Y550565D01*
X606220Y552740D02*
X603740Y552740D01*
X603740Y554915D02*
X606220Y554915D01*
X606220Y557090D02*
X603740Y557090D01*
X603740Y559265D02*
X606220Y559265D01*
X599220Y559320D02*
X596740Y559320D01*
X599220Y559320D02*
X599220Y535340D01*
X596740Y535340D01*
X596740Y559320D01*
X596740Y537515D02*
X599220Y537515D01*
X599220Y539690D02*
X596740Y539690D01*
X596740Y541865D02*
X599220Y541865D01*
X599220Y544040D02*
X596740Y544040D01*
X596740Y546215D02*
X599220Y546215D01*
X599220Y548390D02*
X596740Y548390D01*
X596740Y550565D02*
X599220Y550565D01*
X599220Y552740D02*
X596740Y552740D01*
X596740Y554915D02*
X599220Y554915D01*
X599220Y557090D02*
X596740Y557090D01*
X596740Y559265D02*
X599220Y559265D01*
X592220Y559320D02*
X589740Y559320D01*
X592220Y559320D02*
X592220Y535340D01*
X589740Y535340D01*
X589740Y559320D01*
X589740Y537515D02*
X592220Y537515D01*
X592220Y539690D02*
X589740Y539690D01*
X589740Y541865D02*
X592220Y541865D01*
X592220Y544040D02*
X589740Y544040D01*
X589740Y546215D02*
X592220Y546215D01*
X592220Y548390D02*
X589740Y548390D01*
X589740Y550565D02*
X592220Y550565D01*
X592220Y552740D02*
X589740Y552740D01*
X589740Y554915D02*
X592220Y554915D01*
X592220Y557090D02*
X589740Y557090D01*
X589740Y559265D02*
X592220Y559265D01*
X585220Y559320D02*
X582740Y559320D01*
X585220Y559320D02*
X585220Y535340D01*
X582740Y535340D01*
X582740Y559320D01*
X582740Y537515D02*
X585220Y537515D01*
X585220Y539690D02*
X582740Y539690D01*
X582740Y541865D02*
X585220Y541865D01*
X585220Y544040D02*
X582740Y544040D01*
X582740Y546215D02*
X585220Y546215D01*
X585220Y548390D02*
X582740Y548390D01*
X582740Y550565D02*
X585220Y550565D01*
X585220Y552740D02*
X582740Y552740D01*
X582740Y554915D02*
X585220Y554915D01*
X585220Y557090D02*
X582740Y557090D01*
X582740Y559265D02*
X585220Y559265D01*
X578220Y559320D02*
X575740Y559320D01*
X578220Y559320D02*
X578220Y535340D01*
X575740Y535340D01*
X575740Y559320D01*
X575740Y537515D02*
X578220Y537515D01*
X578220Y539690D02*
X575740Y539690D01*
X575740Y541865D02*
X578220Y541865D01*
X578220Y544040D02*
X575740Y544040D01*
X575740Y546215D02*
X578220Y546215D01*
X578220Y548390D02*
X575740Y548390D01*
X575740Y550565D02*
X578220Y550565D01*
X578220Y552740D02*
X575740Y552740D01*
X575740Y554915D02*
X578220Y554915D01*
X578220Y557090D02*
X575740Y557090D01*
X575740Y559265D02*
X578220Y559265D01*
X571220Y559320D02*
X568740Y559320D01*
X571220Y559320D02*
X571220Y535340D01*
X568740Y535340D01*
X568740Y559320D01*
X568740Y537515D02*
X571220Y537515D01*
X571220Y539690D02*
X568740Y539690D01*
X568740Y541865D02*
X571220Y541865D01*
X571220Y544040D02*
X568740Y544040D01*
X568740Y546215D02*
X571220Y546215D01*
X571220Y548390D02*
X568740Y548390D01*
X568740Y550565D02*
X571220Y550565D01*
X571220Y552740D02*
X568740Y552740D01*
X568740Y554915D02*
X571220Y554915D01*
X571220Y557090D02*
X568740Y557090D01*
X568740Y559265D02*
X571220Y559265D01*
X564220Y559320D02*
X561740Y559320D01*
X564220Y559320D02*
X564220Y535340D01*
X561740Y535340D01*
X561740Y559320D01*
X561740Y537515D02*
X564220Y537515D01*
X564220Y539690D02*
X561740Y539690D01*
X561740Y541865D02*
X564220Y541865D01*
X564220Y544040D02*
X561740Y544040D01*
X561740Y546215D02*
X564220Y546215D01*
X564220Y548390D02*
X561740Y548390D01*
X561740Y550565D02*
X564220Y550565D01*
X564220Y552740D02*
X561740Y552740D01*
X561740Y554915D02*
X564220Y554915D01*
X564220Y557090D02*
X561740Y557090D01*
X561740Y559265D02*
X564220Y559265D01*
X557220Y559320D02*
X554740Y559320D01*
X557220Y559320D02*
X557220Y535340D01*
X554740Y535340D01*
X554740Y559320D01*
X554740Y537515D02*
X557220Y537515D01*
X557220Y539690D02*
X554740Y539690D01*
X554740Y541865D02*
X557220Y541865D01*
X557220Y544040D02*
X554740Y544040D01*
X554740Y546215D02*
X557220Y546215D01*
X557220Y548390D02*
X554740Y548390D01*
X554740Y550565D02*
X557220Y550565D01*
X557220Y552740D02*
X554740Y552740D01*
X554740Y554915D02*
X557220Y554915D01*
X557220Y557090D02*
X554740Y557090D01*
X554740Y559265D02*
X557220Y559265D01*
X550220Y559320D02*
X547740Y559320D01*
X550220Y559320D02*
X550220Y535340D01*
X547740Y535340D01*
X547740Y559320D01*
X547740Y537515D02*
X550220Y537515D01*
X550220Y539690D02*
X547740Y539690D01*
X547740Y541865D02*
X550220Y541865D01*
X550220Y544040D02*
X547740Y544040D01*
X547740Y546215D02*
X550220Y546215D01*
X550220Y548390D02*
X547740Y548390D01*
X547740Y550565D02*
X550220Y550565D01*
X550220Y552740D02*
X547740Y552740D01*
X547740Y554915D02*
X550220Y554915D01*
X550220Y557090D02*
X547740Y557090D01*
X547740Y559265D02*
X550220Y559265D01*
X543220Y559320D02*
X540740Y559320D01*
X543220Y559320D02*
X543220Y535340D01*
X540740Y535340D01*
X540740Y559320D01*
X540740Y537515D02*
X543220Y537515D01*
X543220Y539690D02*
X540740Y539690D01*
X540740Y541865D02*
X543220Y541865D01*
X543220Y544040D02*
X540740Y544040D01*
X540740Y546215D02*
X543220Y546215D01*
X543220Y548390D02*
X540740Y548390D01*
X540740Y550565D02*
X543220Y550565D01*
X543220Y552740D02*
X540740Y552740D01*
X540740Y554915D02*
X543220Y554915D01*
X543220Y557090D02*
X540740Y557090D01*
X540740Y559265D02*
X543220Y559265D01*
X536220Y559320D02*
X533740Y559320D01*
X536220Y559320D02*
X536220Y535340D01*
X533740Y535340D01*
X533740Y559320D01*
X533740Y537515D02*
X536220Y537515D01*
X536220Y539690D02*
X533740Y539690D01*
X533740Y541865D02*
X536220Y541865D01*
X536220Y544040D02*
X533740Y544040D01*
X533740Y546215D02*
X536220Y546215D01*
X536220Y548390D02*
X533740Y548390D01*
X533740Y550565D02*
X536220Y550565D01*
X536220Y552740D02*
X533740Y552740D01*
X533740Y554915D02*
X536220Y554915D01*
X536220Y557090D02*
X533740Y557090D01*
X533740Y559265D02*
X536220Y559265D01*
X529220Y559320D02*
X526740Y559320D01*
X529220Y559320D02*
X529220Y535340D01*
X526740Y535340D01*
X526740Y559320D01*
X526740Y537515D02*
X529220Y537515D01*
X529220Y539690D02*
X526740Y539690D01*
X526740Y541865D02*
X529220Y541865D01*
X529220Y544040D02*
X526740Y544040D01*
X526740Y546215D02*
X529220Y546215D01*
X529220Y548390D02*
X526740Y548390D01*
X526740Y550565D02*
X529220Y550565D01*
X529220Y552740D02*
X526740Y552740D01*
X526740Y554915D02*
X529220Y554915D01*
X529220Y557090D02*
X526740Y557090D01*
X526740Y559265D02*
X529220Y559265D01*
X522220Y559320D02*
X519740Y559320D01*
X522220Y559320D02*
X522220Y535340D01*
X519740Y535340D01*
X519740Y559320D01*
X519740Y537515D02*
X522220Y537515D01*
X522220Y539690D02*
X519740Y539690D01*
X519740Y541865D02*
X522220Y541865D01*
X522220Y544040D02*
X519740Y544040D01*
X519740Y546215D02*
X522220Y546215D01*
X522220Y548390D02*
X519740Y548390D01*
X519740Y550565D02*
X522220Y550565D01*
X522220Y552740D02*
X519740Y552740D01*
X519740Y554915D02*
X522220Y554915D01*
X522220Y557090D02*
X519740Y557090D01*
X519740Y559265D02*
X522220Y559265D01*
X515220Y559320D02*
X512740Y559320D01*
X515220Y559320D02*
X515220Y535340D01*
X512740Y535340D01*
X512740Y559320D01*
X512740Y537515D02*
X515220Y537515D01*
X515220Y539690D02*
X512740Y539690D01*
X512740Y541865D02*
X515220Y541865D01*
X515220Y544040D02*
X512740Y544040D01*
X512740Y546215D02*
X515220Y546215D01*
X515220Y548390D02*
X512740Y548390D01*
X512740Y550565D02*
X515220Y550565D01*
X515220Y552740D02*
X512740Y552740D01*
X512740Y554915D02*
X515220Y554915D01*
X515220Y557090D02*
X512740Y557090D01*
X512740Y559265D02*
X515220Y559265D01*
X508220Y559320D02*
X505740Y559320D01*
X508220Y559320D02*
X508220Y535340D01*
X505740Y535340D01*
X505740Y559320D01*
X505740Y537515D02*
X508220Y537515D01*
X508220Y539690D02*
X505740Y539690D01*
X505740Y541865D02*
X508220Y541865D01*
X508220Y544040D02*
X505740Y544040D01*
X505740Y546215D02*
X508220Y546215D01*
X508220Y548390D02*
X505740Y548390D01*
X505740Y550565D02*
X508220Y550565D01*
X508220Y552740D02*
X505740Y552740D01*
X505740Y554915D02*
X508220Y554915D01*
X508220Y557090D02*
X505740Y557090D01*
X505740Y559265D02*
X508220Y559265D01*
X501220Y559320D02*
X498740Y559320D01*
X501220Y559320D02*
X501220Y535340D01*
X498740Y535340D01*
X498740Y559320D01*
X498740Y537515D02*
X501220Y537515D01*
X501220Y539690D02*
X498740Y539690D01*
X498740Y541865D02*
X501220Y541865D01*
X501220Y544040D02*
X498740Y544040D01*
X498740Y546215D02*
X501220Y546215D01*
X501220Y548390D02*
X498740Y548390D01*
X498740Y550565D02*
X501220Y550565D01*
X501220Y552740D02*
X498740Y552740D01*
X498740Y554915D02*
X501220Y554915D01*
X501220Y557090D02*
X498740Y557090D01*
X498740Y559265D02*
X501220Y559265D01*
X494220Y559320D02*
X491740Y559320D01*
X494220Y559320D02*
X494220Y535340D01*
X491740Y535340D01*
X491740Y559320D01*
X491740Y537515D02*
X494220Y537515D01*
X494220Y539690D02*
X491740Y539690D01*
X491740Y541865D02*
X494220Y541865D01*
X494220Y544040D02*
X491740Y544040D01*
X491740Y546215D02*
X494220Y546215D01*
X494220Y548390D02*
X491740Y548390D01*
X491740Y550565D02*
X494220Y550565D01*
X494220Y552740D02*
X491740Y552740D01*
X491740Y554915D02*
X494220Y554915D01*
X494220Y557090D02*
X491740Y557090D01*
X491740Y559265D02*
X494220Y559265D01*
X487220Y559320D02*
X484740Y559320D01*
X487220Y559320D02*
X487220Y535340D01*
X484740Y535340D01*
X484740Y559320D01*
X484740Y537515D02*
X487220Y537515D01*
X487220Y539690D02*
X484740Y539690D01*
X484740Y541865D02*
X487220Y541865D01*
X487220Y544040D02*
X484740Y544040D01*
X484740Y546215D02*
X487220Y546215D01*
X487220Y548390D02*
X484740Y548390D01*
X484740Y550565D02*
X487220Y550565D01*
X487220Y552740D02*
X484740Y552740D01*
X484740Y554915D02*
X487220Y554915D01*
X487220Y557090D02*
X484740Y557090D01*
X484740Y559265D02*
X487220Y559265D01*
X480220Y559320D02*
X477740Y559320D01*
X480220Y559320D02*
X480220Y535340D01*
X477740Y535340D01*
X477740Y559320D01*
X477740Y537515D02*
X480220Y537515D01*
X480220Y539690D02*
X477740Y539690D01*
X477740Y541865D02*
X480220Y541865D01*
X480220Y544040D02*
X477740Y544040D01*
X477740Y546215D02*
X480220Y546215D01*
X480220Y548390D02*
X477740Y548390D01*
X477740Y550565D02*
X480220Y550565D01*
X480220Y552740D02*
X477740Y552740D01*
X477740Y554915D02*
X480220Y554915D01*
X480220Y557090D02*
X477740Y557090D01*
X477740Y559265D02*
X480220Y559265D01*
X473220Y559320D02*
X470740Y559320D01*
X473220Y559320D02*
X473220Y535340D01*
X470740Y535340D01*
X470740Y559320D01*
X470740Y537515D02*
X473220Y537515D01*
X473220Y539690D02*
X470740Y539690D01*
X470740Y541865D02*
X473220Y541865D01*
X473220Y544040D02*
X470740Y544040D01*
X470740Y546215D02*
X473220Y546215D01*
X473220Y548390D02*
X470740Y548390D01*
X470740Y550565D02*
X473220Y550565D01*
X473220Y552740D02*
X470740Y552740D01*
X470740Y554915D02*
X473220Y554915D01*
X473220Y557090D02*
X470740Y557090D01*
X470740Y559265D02*
X473220Y559265D01*
X466220Y559320D02*
X463740Y559320D01*
X466220Y559320D02*
X466220Y535340D01*
X463740Y535340D01*
X463740Y559320D01*
X463740Y537515D02*
X466220Y537515D01*
X466220Y539690D02*
X463740Y539690D01*
X463740Y541865D02*
X466220Y541865D01*
X466220Y544040D02*
X463740Y544040D01*
X463740Y546215D02*
X466220Y546215D01*
X466220Y548390D02*
X463740Y548390D01*
X463740Y550565D02*
X466220Y550565D01*
X466220Y552740D02*
X463740Y552740D01*
X463740Y554915D02*
X466220Y554915D01*
X466220Y557090D02*
X463740Y557090D01*
X463740Y559265D02*
X466220Y559265D01*
X459220Y559320D02*
X456740Y559320D01*
X459220Y559320D02*
X459220Y535340D01*
X456740Y535340D01*
X456740Y559320D01*
X456740Y537515D02*
X459220Y537515D01*
X459220Y539690D02*
X456740Y539690D01*
X456740Y541865D02*
X459220Y541865D01*
X459220Y544040D02*
X456740Y544040D01*
X456740Y546215D02*
X459220Y546215D01*
X459220Y548390D02*
X456740Y548390D01*
X456740Y550565D02*
X459220Y550565D01*
X459220Y552740D02*
X456740Y552740D01*
X456740Y554915D02*
X459220Y554915D01*
X459220Y557090D02*
X456740Y557090D01*
X456740Y559265D02*
X459220Y559265D01*
X452220Y559320D02*
X449740Y559320D01*
X452220Y559320D02*
X452220Y535340D01*
X449740Y535340D01*
X449740Y559320D01*
X449740Y537515D02*
X452220Y537515D01*
X452220Y539690D02*
X449740Y539690D01*
X449740Y541865D02*
X452220Y541865D01*
X452220Y544040D02*
X449740Y544040D01*
X449740Y546215D02*
X452220Y546215D01*
X452220Y548390D02*
X449740Y548390D01*
X449740Y550565D02*
X452220Y550565D01*
X452220Y552740D02*
X449740Y552740D01*
X449740Y554915D02*
X452220Y554915D01*
X452220Y557090D02*
X449740Y557090D01*
X449740Y559265D02*
X452220Y559265D01*
D11*
X458480Y507330D03*
X618480Y507330D03*
D10*
X445220Y559320D02*
X442740Y559320D01*
X445220Y559320D02*
X445220Y535340D01*
X442740Y535340D01*
X442740Y559320D01*
X442740Y537515D02*
X445220Y537515D01*
X445220Y539690D02*
X442740Y539690D01*
X442740Y541865D02*
X445220Y541865D01*
X445220Y544040D02*
X442740Y544040D01*
X442740Y546215D02*
X445220Y546215D01*
X445220Y548390D02*
X442740Y548390D01*
X442740Y550565D02*
X445220Y550565D01*
X445220Y552740D02*
X442740Y552740D01*
X442740Y554915D02*
X445220Y554915D01*
X445220Y557090D02*
X442740Y557090D01*
X442740Y559265D02*
X445220Y559265D01*
X438220Y559320D02*
X435740Y559320D01*
X438220Y559320D02*
X438220Y535340D01*
X435740Y535340D01*
X435740Y559320D01*
X435740Y537515D02*
X438220Y537515D01*
X438220Y539690D02*
X435740Y539690D01*
X435740Y541865D02*
X438220Y541865D01*
X438220Y544040D02*
X435740Y544040D01*
X435740Y546215D02*
X438220Y546215D01*
X438220Y548390D02*
X435740Y548390D01*
X435740Y550565D02*
X438220Y550565D01*
X438220Y552740D02*
X435740Y552740D01*
X435740Y554915D02*
X438220Y554915D01*
X438220Y557090D02*
X435740Y557090D01*
X435740Y559265D02*
X438220Y559265D01*
D12*
X703580Y621030D03*
X703580Y646430D03*
X703580Y671830D03*
X703580Y697230D03*
D13*
X386080Y741680D03*
X690880Y741680D03*
D14*
X386080Y684530D03*
X690880Y481330D03*
D13*
X690880Y424180D03*
X386080Y424180D03*
D10*
X999420Y559320D02*
X1001900Y559320D01*
X1001900Y535340D01*
X999420Y535340D01*
X999420Y559320D01*
X999420Y537515D02*
X1001900Y537515D01*
X1001900Y539690D02*
X999420Y539690D01*
X999420Y541865D02*
X1001900Y541865D01*
X1001900Y544040D02*
X999420Y544040D01*
X999420Y546215D02*
X1001900Y546215D01*
X1001900Y548390D02*
X999420Y548390D01*
X999420Y550565D02*
X1001900Y550565D01*
X1001900Y552740D02*
X999420Y552740D01*
X999420Y554915D02*
X1001900Y554915D01*
X1001900Y557090D02*
X999420Y557090D01*
X999420Y559265D02*
X1001900Y559265D01*
X994900Y559320D02*
X992420Y559320D01*
X994900Y559320D02*
X994900Y535340D01*
X992420Y535340D01*
X992420Y559320D01*
X992420Y537515D02*
X994900Y537515D01*
X994900Y539690D02*
X992420Y539690D01*
X992420Y541865D02*
X994900Y541865D01*
X994900Y544040D02*
X992420Y544040D01*
X992420Y546215D02*
X994900Y546215D01*
X994900Y548390D02*
X992420Y548390D01*
X992420Y550565D02*
X994900Y550565D01*
X994900Y552740D02*
X992420Y552740D01*
X992420Y554915D02*
X994900Y554915D01*
X994900Y557090D02*
X992420Y557090D01*
X992420Y559265D02*
X994900Y559265D01*
X987900Y559320D02*
X985420Y559320D01*
X987900Y559320D02*
X987900Y535340D01*
X985420Y535340D01*
X985420Y559320D01*
X985420Y537515D02*
X987900Y537515D01*
X987900Y539690D02*
X985420Y539690D01*
X985420Y541865D02*
X987900Y541865D01*
X987900Y544040D02*
X985420Y544040D01*
X985420Y546215D02*
X987900Y546215D01*
X987900Y548390D02*
X985420Y548390D01*
X985420Y550565D02*
X987900Y550565D01*
X987900Y552740D02*
X985420Y552740D01*
X985420Y554915D02*
X987900Y554915D01*
X987900Y557090D02*
X985420Y557090D01*
X985420Y559265D02*
X987900Y559265D01*
X980900Y559320D02*
X978420Y559320D01*
X980900Y559320D02*
X980900Y535340D01*
X978420Y535340D01*
X978420Y559320D01*
X978420Y537515D02*
X980900Y537515D01*
X980900Y539690D02*
X978420Y539690D01*
X978420Y541865D02*
X980900Y541865D01*
X980900Y544040D02*
X978420Y544040D01*
X978420Y546215D02*
X980900Y546215D01*
X980900Y548390D02*
X978420Y548390D01*
X978420Y550565D02*
X980900Y550565D01*
X980900Y552740D02*
X978420Y552740D01*
X978420Y554915D02*
X980900Y554915D01*
X980900Y557090D02*
X978420Y557090D01*
X978420Y559265D02*
X980900Y559265D01*
X973900Y559320D02*
X971420Y559320D01*
X973900Y559320D02*
X973900Y535340D01*
X971420Y535340D01*
X971420Y559320D01*
X971420Y537515D02*
X973900Y537515D01*
X973900Y539690D02*
X971420Y539690D01*
X971420Y541865D02*
X973900Y541865D01*
X973900Y544040D02*
X971420Y544040D01*
X971420Y546215D02*
X973900Y546215D01*
X973900Y548390D02*
X971420Y548390D01*
X971420Y550565D02*
X973900Y550565D01*
X973900Y552740D02*
X971420Y552740D01*
X971420Y554915D02*
X973900Y554915D01*
X973900Y557090D02*
X971420Y557090D01*
X971420Y559265D02*
X973900Y559265D01*
X966900Y559320D02*
X964420Y559320D01*
X966900Y559320D02*
X966900Y535340D01*
X964420Y535340D01*
X964420Y559320D01*
X964420Y537515D02*
X966900Y537515D01*
X966900Y539690D02*
X964420Y539690D01*
X964420Y541865D02*
X966900Y541865D01*
X966900Y544040D02*
X964420Y544040D01*
X964420Y546215D02*
X966900Y546215D01*
X966900Y548390D02*
X964420Y548390D01*
X964420Y550565D02*
X966900Y550565D01*
X966900Y552740D02*
X964420Y552740D01*
X964420Y554915D02*
X966900Y554915D01*
X966900Y557090D02*
X964420Y557090D01*
X964420Y559265D02*
X966900Y559265D01*
X959900Y559320D02*
X957420Y559320D01*
X959900Y559320D02*
X959900Y535340D01*
X957420Y535340D01*
X957420Y559320D01*
X957420Y537515D02*
X959900Y537515D01*
X959900Y539690D02*
X957420Y539690D01*
X957420Y541865D02*
X959900Y541865D01*
X959900Y544040D02*
X957420Y544040D01*
X957420Y546215D02*
X959900Y546215D01*
X959900Y548390D02*
X957420Y548390D01*
X957420Y550565D02*
X959900Y550565D01*
X959900Y552740D02*
X957420Y552740D01*
X957420Y554915D02*
X959900Y554915D01*
X959900Y557090D02*
X957420Y557090D01*
X957420Y559265D02*
X959900Y559265D01*
X952900Y559320D02*
X950420Y559320D01*
X952900Y559320D02*
X952900Y535340D01*
X950420Y535340D01*
X950420Y559320D01*
X950420Y537515D02*
X952900Y537515D01*
X952900Y539690D02*
X950420Y539690D01*
X950420Y541865D02*
X952900Y541865D01*
X952900Y544040D02*
X950420Y544040D01*
X950420Y546215D02*
X952900Y546215D01*
X952900Y548390D02*
X950420Y548390D01*
X950420Y550565D02*
X952900Y550565D01*
X952900Y552740D02*
X950420Y552740D01*
X950420Y554915D02*
X952900Y554915D01*
X952900Y557090D02*
X950420Y557090D01*
X950420Y559265D02*
X952900Y559265D01*
X945900Y559320D02*
X943420Y559320D01*
X945900Y559320D02*
X945900Y535340D01*
X943420Y535340D01*
X943420Y559320D01*
X943420Y537515D02*
X945900Y537515D01*
X945900Y539690D02*
X943420Y539690D01*
X943420Y541865D02*
X945900Y541865D01*
X945900Y544040D02*
X943420Y544040D01*
X943420Y546215D02*
X945900Y546215D01*
X945900Y548390D02*
X943420Y548390D01*
X943420Y550565D02*
X945900Y550565D01*
X945900Y552740D02*
X943420Y552740D01*
X943420Y554915D02*
X945900Y554915D01*
X945900Y557090D02*
X943420Y557090D01*
X943420Y559265D02*
X945900Y559265D01*
X938900Y559320D02*
X936420Y559320D01*
X938900Y559320D02*
X938900Y535340D01*
X936420Y535340D01*
X936420Y559320D01*
X936420Y537515D02*
X938900Y537515D01*
X938900Y539690D02*
X936420Y539690D01*
X936420Y541865D02*
X938900Y541865D01*
X938900Y544040D02*
X936420Y544040D01*
X936420Y546215D02*
X938900Y546215D01*
X938900Y548390D02*
X936420Y548390D01*
X936420Y550565D02*
X938900Y550565D01*
X938900Y552740D02*
X936420Y552740D01*
X936420Y554915D02*
X938900Y554915D01*
X938900Y557090D02*
X936420Y557090D01*
X936420Y559265D02*
X938900Y559265D01*
X931900Y559320D02*
X929420Y559320D01*
X931900Y559320D02*
X931900Y535340D01*
X929420Y535340D01*
X929420Y559320D01*
X929420Y537515D02*
X931900Y537515D01*
X931900Y539690D02*
X929420Y539690D01*
X929420Y541865D02*
X931900Y541865D01*
X931900Y544040D02*
X929420Y544040D01*
X929420Y546215D02*
X931900Y546215D01*
X931900Y548390D02*
X929420Y548390D01*
X929420Y550565D02*
X931900Y550565D01*
X931900Y552740D02*
X929420Y552740D01*
X929420Y554915D02*
X931900Y554915D01*
X931900Y557090D02*
X929420Y557090D01*
X929420Y559265D02*
X931900Y559265D01*
X924900Y559320D02*
X922420Y559320D01*
X924900Y559320D02*
X924900Y535340D01*
X922420Y535340D01*
X922420Y559320D01*
X922420Y537515D02*
X924900Y537515D01*
X924900Y539690D02*
X922420Y539690D01*
X922420Y541865D02*
X924900Y541865D01*
X924900Y544040D02*
X922420Y544040D01*
X922420Y546215D02*
X924900Y546215D01*
X924900Y548390D02*
X922420Y548390D01*
X922420Y550565D02*
X924900Y550565D01*
X924900Y552740D02*
X922420Y552740D01*
X922420Y554915D02*
X924900Y554915D01*
X924900Y557090D02*
X922420Y557090D01*
X922420Y559265D02*
X924900Y559265D01*
X917900Y559320D02*
X915420Y559320D01*
X917900Y559320D02*
X917900Y535340D01*
X915420Y535340D01*
X915420Y559320D01*
X915420Y537515D02*
X917900Y537515D01*
X917900Y539690D02*
X915420Y539690D01*
X915420Y541865D02*
X917900Y541865D01*
X917900Y544040D02*
X915420Y544040D01*
X915420Y546215D02*
X917900Y546215D01*
X917900Y548390D02*
X915420Y548390D01*
X915420Y550565D02*
X917900Y550565D01*
X917900Y552740D02*
X915420Y552740D01*
X915420Y554915D02*
X917900Y554915D01*
X917900Y557090D02*
X915420Y557090D01*
X915420Y559265D02*
X917900Y559265D01*
X910900Y559320D02*
X908420Y559320D01*
X910900Y559320D02*
X910900Y535340D01*
X908420Y535340D01*
X908420Y559320D01*
X908420Y537515D02*
X910900Y537515D01*
X910900Y539690D02*
X908420Y539690D01*
X908420Y541865D02*
X910900Y541865D01*
X910900Y544040D02*
X908420Y544040D01*
X908420Y546215D02*
X910900Y546215D01*
X910900Y548390D02*
X908420Y548390D01*
X908420Y550565D02*
X910900Y550565D01*
X910900Y552740D02*
X908420Y552740D01*
X908420Y554915D02*
X910900Y554915D01*
X910900Y557090D02*
X908420Y557090D01*
X908420Y559265D02*
X910900Y559265D01*
X903900Y559320D02*
X901420Y559320D01*
X903900Y559320D02*
X903900Y535340D01*
X901420Y535340D01*
X901420Y559320D01*
X901420Y537515D02*
X903900Y537515D01*
X903900Y539690D02*
X901420Y539690D01*
X901420Y541865D02*
X903900Y541865D01*
X903900Y544040D02*
X901420Y544040D01*
X901420Y546215D02*
X903900Y546215D01*
X903900Y548390D02*
X901420Y548390D01*
X901420Y550565D02*
X903900Y550565D01*
X903900Y552740D02*
X901420Y552740D01*
X901420Y554915D02*
X903900Y554915D01*
X903900Y557090D02*
X901420Y557090D01*
X901420Y559265D02*
X903900Y559265D01*
X896900Y559320D02*
X894420Y559320D01*
X896900Y559320D02*
X896900Y535340D01*
X894420Y535340D01*
X894420Y559320D01*
X894420Y537515D02*
X896900Y537515D01*
X896900Y539690D02*
X894420Y539690D01*
X894420Y541865D02*
X896900Y541865D01*
X896900Y544040D02*
X894420Y544040D01*
X894420Y546215D02*
X896900Y546215D01*
X896900Y548390D02*
X894420Y548390D01*
X894420Y550565D02*
X896900Y550565D01*
X896900Y552740D02*
X894420Y552740D01*
X894420Y554915D02*
X896900Y554915D01*
X896900Y557090D02*
X894420Y557090D01*
X894420Y559265D02*
X896900Y559265D01*
X889900Y559320D02*
X887420Y559320D01*
X889900Y559320D02*
X889900Y535340D01*
X887420Y535340D01*
X887420Y559320D01*
X887420Y537515D02*
X889900Y537515D01*
X889900Y539690D02*
X887420Y539690D01*
X887420Y541865D02*
X889900Y541865D01*
X889900Y544040D02*
X887420Y544040D01*
X887420Y546215D02*
X889900Y546215D01*
X889900Y548390D02*
X887420Y548390D01*
X887420Y550565D02*
X889900Y550565D01*
X889900Y552740D02*
X887420Y552740D01*
X887420Y554915D02*
X889900Y554915D01*
X889900Y557090D02*
X887420Y557090D01*
X887420Y559265D02*
X889900Y559265D01*
X882900Y559320D02*
X880420Y559320D01*
X882900Y559320D02*
X882900Y535340D01*
X880420Y535340D01*
X880420Y559320D01*
X880420Y537515D02*
X882900Y537515D01*
X882900Y539690D02*
X880420Y539690D01*
X880420Y541865D02*
X882900Y541865D01*
X882900Y544040D02*
X880420Y544040D01*
X880420Y546215D02*
X882900Y546215D01*
X882900Y548390D02*
X880420Y548390D01*
X880420Y550565D02*
X882900Y550565D01*
X882900Y552740D02*
X880420Y552740D01*
X880420Y554915D02*
X882900Y554915D01*
X882900Y557090D02*
X880420Y557090D01*
X880420Y559265D02*
X882900Y559265D01*
X875900Y559320D02*
X873420Y559320D01*
X875900Y559320D02*
X875900Y535340D01*
X873420Y535340D01*
X873420Y559320D01*
X873420Y537515D02*
X875900Y537515D01*
X875900Y539690D02*
X873420Y539690D01*
X873420Y541865D02*
X875900Y541865D01*
X875900Y544040D02*
X873420Y544040D01*
X873420Y546215D02*
X875900Y546215D01*
X875900Y548390D02*
X873420Y548390D01*
X873420Y550565D02*
X875900Y550565D01*
X875900Y552740D02*
X873420Y552740D01*
X873420Y554915D02*
X875900Y554915D01*
X875900Y557090D02*
X873420Y557090D01*
X873420Y559265D02*
X875900Y559265D01*
X868900Y559320D02*
X866420Y559320D01*
X868900Y559320D02*
X868900Y535340D01*
X866420Y535340D01*
X866420Y559320D01*
X866420Y537515D02*
X868900Y537515D01*
X868900Y539690D02*
X866420Y539690D01*
X866420Y541865D02*
X868900Y541865D01*
X868900Y544040D02*
X866420Y544040D01*
X866420Y546215D02*
X868900Y546215D01*
X868900Y548390D02*
X866420Y548390D01*
X866420Y550565D02*
X868900Y550565D01*
X868900Y552740D02*
X866420Y552740D01*
X866420Y554915D02*
X868900Y554915D01*
X868900Y557090D02*
X866420Y557090D01*
X866420Y559265D02*
X868900Y559265D01*
X861900Y559320D02*
X859420Y559320D01*
X861900Y559320D02*
X861900Y535340D01*
X859420Y535340D01*
X859420Y559320D01*
X859420Y537515D02*
X861900Y537515D01*
X861900Y539690D02*
X859420Y539690D01*
X859420Y541865D02*
X861900Y541865D01*
X861900Y544040D02*
X859420Y544040D01*
X859420Y546215D02*
X861900Y546215D01*
X861900Y548390D02*
X859420Y548390D01*
X859420Y550565D02*
X861900Y550565D01*
X861900Y552740D02*
X859420Y552740D01*
X859420Y554915D02*
X861900Y554915D01*
X861900Y557090D02*
X859420Y557090D01*
X859420Y559265D02*
X861900Y559265D01*
X854900Y559320D02*
X852420Y559320D01*
X854900Y559320D02*
X854900Y535340D01*
X852420Y535340D01*
X852420Y559320D01*
X852420Y537515D02*
X854900Y537515D01*
X854900Y539690D02*
X852420Y539690D01*
X852420Y541865D02*
X854900Y541865D01*
X854900Y544040D02*
X852420Y544040D01*
X852420Y546215D02*
X854900Y546215D01*
X854900Y548390D02*
X852420Y548390D01*
X852420Y550565D02*
X854900Y550565D01*
X854900Y552740D02*
X852420Y552740D01*
X852420Y554915D02*
X854900Y554915D01*
X854900Y557090D02*
X852420Y557090D01*
X852420Y559265D02*
X854900Y559265D01*
X847900Y559320D02*
X845420Y559320D01*
X847900Y559320D02*
X847900Y535340D01*
X845420Y535340D01*
X845420Y559320D01*
X845420Y537515D02*
X847900Y537515D01*
X847900Y539690D02*
X845420Y539690D01*
X845420Y541865D02*
X847900Y541865D01*
X847900Y544040D02*
X845420Y544040D01*
X845420Y546215D02*
X847900Y546215D01*
X847900Y548390D02*
X845420Y548390D01*
X845420Y550565D02*
X847900Y550565D01*
X847900Y552740D02*
X845420Y552740D01*
X845420Y554915D02*
X847900Y554915D01*
X847900Y557090D02*
X845420Y557090D01*
X845420Y559265D02*
X847900Y559265D01*
X840900Y559320D02*
X838420Y559320D01*
X840900Y559320D02*
X840900Y535340D01*
X838420Y535340D01*
X838420Y559320D01*
X838420Y537515D02*
X840900Y537515D01*
X840900Y539690D02*
X838420Y539690D01*
X838420Y541865D02*
X840900Y541865D01*
X840900Y544040D02*
X838420Y544040D01*
X838420Y546215D02*
X840900Y546215D01*
X840900Y548390D02*
X838420Y548390D01*
X838420Y550565D02*
X840900Y550565D01*
X840900Y552740D02*
X838420Y552740D01*
X838420Y554915D02*
X840900Y554915D01*
X840900Y557090D02*
X838420Y557090D01*
X838420Y559265D02*
X840900Y559265D01*
X833900Y559320D02*
X831420Y559320D01*
X833900Y559320D02*
X833900Y535340D01*
X831420Y535340D01*
X831420Y559320D01*
X831420Y537515D02*
X833900Y537515D01*
X833900Y539690D02*
X831420Y539690D01*
X831420Y541865D02*
X833900Y541865D01*
X833900Y544040D02*
X831420Y544040D01*
X831420Y546215D02*
X833900Y546215D01*
X833900Y548390D02*
X831420Y548390D01*
X831420Y550565D02*
X833900Y550565D01*
X833900Y552740D02*
X831420Y552740D01*
X831420Y554915D02*
X833900Y554915D01*
X833900Y557090D02*
X831420Y557090D01*
X831420Y559265D02*
X833900Y559265D01*
X826900Y559320D02*
X824420Y559320D01*
X826900Y559320D02*
X826900Y535340D01*
X824420Y535340D01*
X824420Y559320D01*
X824420Y537515D02*
X826900Y537515D01*
X826900Y539690D02*
X824420Y539690D01*
X824420Y541865D02*
X826900Y541865D01*
X826900Y544040D02*
X824420Y544040D01*
X824420Y546215D02*
X826900Y546215D01*
X826900Y548390D02*
X824420Y548390D01*
X824420Y550565D02*
X826900Y550565D01*
X826900Y552740D02*
X824420Y552740D01*
X824420Y554915D02*
X826900Y554915D01*
X826900Y557090D02*
X824420Y557090D01*
X824420Y559265D02*
X826900Y559265D01*
X819900Y559320D02*
X817420Y559320D01*
X819900Y559320D02*
X819900Y535340D01*
X817420Y535340D01*
X817420Y559320D01*
X817420Y537515D02*
X819900Y537515D01*
X819900Y539690D02*
X817420Y539690D01*
X817420Y541865D02*
X819900Y541865D01*
X819900Y544040D02*
X817420Y544040D01*
X817420Y546215D02*
X819900Y546215D01*
X819900Y548390D02*
X817420Y548390D01*
X817420Y550565D02*
X819900Y550565D01*
X819900Y552740D02*
X817420Y552740D01*
X817420Y554915D02*
X819900Y554915D01*
X819900Y557090D02*
X817420Y557090D01*
X817420Y559265D02*
X819900Y559265D01*
X812900Y559320D02*
X810420Y559320D01*
X812900Y559320D02*
X812900Y535340D01*
X810420Y535340D01*
X810420Y559320D01*
X810420Y537515D02*
X812900Y537515D01*
X812900Y539690D02*
X810420Y539690D01*
X810420Y541865D02*
X812900Y541865D01*
X812900Y544040D02*
X810420Y544040D01*
X810420Y546215D02*
X812900Y546215D01*
X812900Y548390D02*
X810420Y548390D01*
X810420Y550565D02*
X812900Y550565D01*
X812900Y552740D02*
X810420Y552740D01*
X810420Y554915D02*
X812900Y554915D01*
X812900Y557090D02*
X810420Y557090D01*
X810420Y559265D02*
X812900Y559265D01*
D11*
X819160Y507330D03*
X979160Y507330D03*
D10*
X805900Y559320D02*
X803420Y559320D01*
X805900Y559320D02*
X805900Y535340D01*
X803420Y535340D01*
X803420Y559320D01*
X803420Y537515D02*
X805900Y537515D01*
X805900Y539690D02*
X803420Y539690D01*
X803420Y541865D02*
X805900Y541865D01*
X805900Y544040D02*
X803420Y544040D01*
X803420Y546215D02*
X805900Y546215D01*
X805900Y548390D02*
X803420Y548390D01*
X803420Y550565D02*
X805900Y550565D01*
X805900Y552740D02*
X803420Y552740D01*
X803420Y554915D02*
X805900Y554915D01*
X805900Y557090D02*
X803420Y557090D01*
X803420Y559265D02*
X805900Y559265D01*
X798900Y559320D02*
X796420Y559320D01*
X798900Y559320D02*
X798900Y535340D01*
X796420Y535340D01*
X796420Y559320D01*
X796420Y537515D02*
X798900Y537515D01*
X798900Y539690D02*
X796420Y539690D01*
X796420Y541865D02*
X798900Y541865D01*
X798900Y544040D02*
X796420Y544040D01*
X796420Y546215D02*
X798900Y546215D01*
X798900Y548390D02*
X796420Y548390D01*
X796420Y550565D02*
X798900Y550565D01*
X798900Y552740D02*
X796420Y552740D01*
X796420Y554915D02*
X798900Y554915D01*
X798900Y557090D02*
X796420Y557090D01*
X796420Y559265D02*
X798900Y559265D01*
D12*
X1064260Y621030D03*
X1064260Y646430D03*
X1064260Y671830D03*
X1064260Y697230D03*
D13*
X746760Y741680D03*
X1051560Y741680D03*
D14*
X746760Y684530D03*
X1051560Y481330D03*
D13*
X1051560Y424180D03*
X746760Y424180D03*
D10*
X280540Y958100D02*
X278060Y958100D01*
X280540Y958100D02*
X280540Y934120D01*
X278060Y934120D01*
X278060Y958100D01*
X278060Y936295D02*
X280540Y936295D01*
X280540Y938470D02*
X278060Y938470D01*
X278060Y940645D02*
X280540Y940645D01*
X280540Y942820D02*
X278060Y942820D01*
X278060Y944995D02*
X280540Y944995D01*
X280540Y947170D02*
X278060Y947170D01*
X278060Y949345D02*
X280540Y949345D01*
X280540Y951520D02*
X278060Y951520D01*
X278060Y953695D02*
X280540Y953695D01*
X280540Y955870D02*
X278060Y955870D01*
X278060Y958045D02*
X280540Y958045D01*
X273540Y958100D02*
X271060Y958100D01*
X273540Y958100D02*
X273540Y934120D01*
X271060Y934120D01*
X271060Y958100D01*
X271060Y936295D02*
X273540Y936295D01*
X273540Y938470D02*
X271060Y938470D01*
X271060Y940645D02*
X273540Y940645D01*
X273540Y942820D02*
X271060Y942820D01*
X271060Y944995D02*
X273540Y944995D01*
X273540Y947170D02*
X271060Y947170D01*
X271060Y949345D02*
X273540Y949345D01*
X273540Y951520D02*
X271060Y951520D01*
X271060Y953695D02*
X273540Y953695D01*
X273540Y955870D02*
X271060Y955870D01*
X271060Y958045D02*
X273540Y958045D01*
X266540Y958100D02*
X264060Y958100D01*
X266540Y958100D02*
X266540Y934120D01*
X264060Y934120D01*
X264060Y958100D01*
X264060Y936295D02*
X266540Y936295D01*
X266540Y938470D02*
X264060Y938470D01*
X264060Y940645D02*
X266540Y940645D01*
X266540Y942820D02*
X264060Y942820D01*
X264060Y944995D02*
X266540Y944995D01*
X266540Y947170D02*
X264060Y947170D01*
X264060Y949345D02*
X266540Y949345D01*
X266540Y951520D02*
X264060Y951520D01*
X264060Y953695D02*
X266540Y953695D01*
X266540Y955870D02*
X264060Y955870D01*
X264060Y958045D02*
X266540Y958045D01*
X259540Y958100D02*
X257060Y958100D01*
X259540Y958100D02*
X259540Y934120D01*
X257060Y934120D01*
X257060Y958100D01*
X257060Y936295D02*
X259540Y936295D01*
X259540Y938470D02*
X257060Y938470D01*
X257060Y940645D02*
X259540Y940645D01*
X259540Y942820D02*
X257060Y942820D01*
X257060Y944995D02*
X259540Y944995D01*
X259540Y947170D02*
X257060Y947170D01*
X257060Y949345D02*
X259540Y949345D01*
X259540Y951520D02*
X257060Y951520D01*
X257060Y953695D02*
X259540Y953695D01*
X259540Y955870D02*
X257060Y955870D01*
X257060Y958045D02*
X259540Y958045D01*
X252540Y958100D02*
X250060Y958100D01*
X252540Y958100D02*
X252540Y934120D01*
X250060Y934120D01*
X250060Y958100D01*
X250060Y936295D02*
X252540Y936295D01*
X252540Y938470D02*
X250060Y938470D01*
X250060Y940645D02*
X252540Y940645D01*
X252540Y942820D02*
X250060Y942820D01*
X250060Y944995D02*
X252540Y944995D01*
X252540Y947170D02*
X250060Y947170D01*
X250060Y949345D02*
X252540Y949345D01*
X252540Y951520D02*
X250060Y951520D01*
X250060Y953695D02*
X252540Y953695D01*
X252540Y955870D02*
X250060Y955870D01*
X250060Y958045D02*
X252540Y958045D01*
X245540Y958100D02*
X243060Y958100D01*
X245540Y958100D02*
X245540Y934120D01*
X243060Y934120D01*
X243060Y958100D01*
X243060Y936295D02*
X245540Y936295D01*
X245540Y938470D02*
X243060Y938470D01*
X243060Y940645D02*
X245540Y940645D01*
X245540Y942820D02*
X243060Y942820D01*
X243060Y944995D02*
X245540Y944995D01*
X245540Y947170D02*
X243060Y947170D01*
X243060Y949345D02*
X245540Y949345D01*
X245540Y951520D02*
X243060Y951520D01*
X243060Y953695D02*
X245540Y953695D01*
X245540Y955870D02*
X243060Y955870D01*
X243060Y958045D02*
X245540Y958045D01*
X238540Y958100D02*
X236060Y958100D01*
X238540Y958100D02*
X238540Y934120D01*
X236060Y934120D01*
X236060Y958100D01*
X236060Y936295D02*
X238540Y936295D01*
X238540Y938470D02*
X236060Y938470D01*
X236060Y940645D02*
X238540Y940645D01*
X238540Y942820D02*
X236060Y942820D01*
X236060Y944995D02*
X238540Y944995D01*
X238540Y947170D02*
X236060Y947170D01*
X236060Y949345D02*
X238540Y949345D01*
X238540Y951520D02*
X236060Y951520D01*
X236060Y953695D02*
X238540Y953695D01*
X238540Y955870D02*
X236060Y955870D01*
X236060Y958045D02*
X238540Y958045D01*
X231540Y958100D02*
X229060Y958100D01*
X231540Y958100D02*
X231540Y934120D01*
X229060Y934120D01*
X229060Y958100D01*
X229060Y936295D02*
X231540Y936295D01*
X231540Y938470D02*
X229060Y938470D01*
X229060Y940645D02*
X231540Y940645D01*
X231540Y942820D02*
X229060Y942820D01*
X229060Y944995D02*
X231540Y944995D01*
X231540Y947170D02*
X229060Y947170D01*
X229060Y949345D02*
X231540Y949345D01*
X231540Y951520D02*
X229060Y951520D01*
X229060Y953695D02*
X231540Y953695D01*
X231540Y955870D02*
X229060Y955870D01*
X229060Y958045D02*
X231540Y958045D01*
X224540Y958100D02*
X222060Y958100D01*
X224540Y958100D02*
X224540Y934120D01*
X222060Y934120D01*
X222060Y958100D01*
X222060Y936295D02*
X224540Y936295D01*
X224540Y938470D02*
X222060Y938470D01*
X222060Y940645D02*
X224540Y940645D01*
X224540Y942820D02*
X222060Y942820D01*
X222060Y944995D02*
X224540Y944995D01*
X224540Y947170D02*
X222060Y947170D01*
X222060Y949345D02*
X224540Y949345D01*
X224540Y951520D02*
X222060Y951520D01*
X222060Y953695D02*
X224540Y953695D01*
X224540Y955870D02*
X222060Y955870D01*
X222060Y958045D02*
X224540Y958045D01*
X217540Y958100D02*
X215060Y958100D01*
X217540Y958100D02*
X217540Y934120D01*
X215060Y934120D01*
X215060Y958100D01*
X215060Y936295D02*
X217540Y936295D01*
X217540Y938470D02*
X215060Y938470D01*
X215060Y940645D02*
X217540Y940645D01*
X217540Y942820D02*
X215060Y942820D01*
X215060Y944995D02*
X217540Y944995D01*
X217540Y947170D02*
X215060Y947170D01*
X215060Y949345D02*
X217540Y949345D01*
X217540Y951520D02*
X215060Y951520D01*
X215060Y953695D02*
X217540Y953695D01*
X217540Y955870D02*
X215060Y955870D01*
X215060Y958045D02*
X217540Y958045D01*
X210540Y958100D02*
X208060Y958100D01*
X210540Y958100D02*
X210540Y934120D01*
X208060Y934120D01*
X208060Y958100D01*
X208060Y936295D02*
X210540Y936295D01*
X210540Y938470D02*
X208060Y938470D01*
X208060Y940645D02*
X210540Y940645D01*
X210540Y942820D02*
X208060Y942820D01*
X208060Y944995D02*
X210540Y944995D01*
X210540Y947170D02*
X208060Y947170D01*
X208060Y949345D02*
X210540Y949345D01*
X210540Y951520D02*
X208060Y951520D01*
X208060Y953695D02*
X210540Y953695D01*
X210540Y955870D02*
X208060Y955870D01*
X208060Y958045D02*
X210540Y958045D01*
X203540Y958100D02*
X201060Y958100D01*
X203540Y958100D02*
X203540Y934120D01*
X201060Y934120D01*
X201060Y958100D01*
X201060Y936295D02*
X203540Y936295D01*
X203540Y938470D02*
X201060Y938470D01*
X201060Y940645D02*
X203540Y940645D01*
X203540Y942820D02*
X201060Y942820D01*
X201060Y944995D02*
X203540Y944995D01*
X203540Y947170D02*
X201060Y947170D01*
X201060Y949345D02*
X203540Y949345D01*
X203540Y951520D02*
X201060Y951520D01*
X201060Y953695D02*
X203540Y953695D01*
X203540Y955870D02*
X201060Y955870D01*
X201060Y958045D02*
X203540Y958045D01*
X196540Y958100D02*
X194060Y958100D01*
X196540Y958100D02*
X196540Y934120D01*
X194060Y934120D01*
X194060Y958100D01*
X194060Y936295D02*
X196540Y936295D01*
X196540Y938470D02*
X194060Y938470D01*
X194060Y940645D02*
X196540Y940645D01*
X196540Y942820D02*
X194060Y942820D01*
X194060Y944995D02*
X196540Y944995D01*
X196540Y947170D02*
X194060Y947170D01*
X194060Y949345D02*
X196540Y949345D01*
X196540Y951520D02*
X194060Y951520D01*
X194060Y953695D02*
X196540Y953695D01*
X196540Y955870D02*
X194060Y955870D01*
X194060Y958045D02*
X196540Y958045D01*
X189540Y958100D02*
X187060Y958100D01*
X189540Y958100D02*
X189540Y934120D01*
X187060Y934120D01*
X187060Y958100D01*
X187060Y936295D02*
X189540Y936295D01*
X189540Y938470D02*
X187060Y938470D01*
X187060Y940645D02*
X189540Y940645D01*
X189540Y942820D02*
X187060Y942820D01*
X187060Y944995D02*
X189540Y944995D01*
X189540Y947170D02*
X187060Y947170D01*
X187060Y949345D02*
X189540Y949345D01*
X189540Y951520D02*
X187060Y951520D01*
X187060Y953695D02*
X189540Y953695D01*
X189540Y955870D02*
X187060Y955870D01*
X187060Y958045D02*
X189540Y958045D01*
X182540Y958100D02*
X180060Y958100D01*
X182540Y958100D02*
X182540Y934120D01*
X180060Y934120D01*
X180060Y958100D01*
X180060Y936295D02*
X182540Y936295D01*
X182540Y938470D02*
X180060Y938470D01*
X180060Y940645D02*
X182540Y940645D01*
X182540Y942820D02*
X180060Y942820D01*
X180060Y944995D02*
X182540Y944995D01*
X182540Y947170D02*
X180060Y947170D01*
X180060Y949345D02*
X182540Y949345D01*
X182540Y951520D02*
X180060Y951520D01*
X180060Y953695D02*
X182540Y953695D01*
X182540Y955870D02*
X180060Y955870D01*
X180060Y958045D02*
X182540Y958045D01*
X175540Y958100D02*
X173060Y958100D01*
X175540Y958100D02*
X175540Y934120D01*
X173060Y934120D01*
X173060Y958100D01*
X173060Y936295D02*
X175540Y936295D01*
X175540Y938470D02*
X173060Y938470D01*
X173060Y940645D02*
X175540Y940645D01*
X175540Y942820D02*
X173060Y942820D01*
X173060Y944995D02*
X175540Y944995D01*
X175540Y947170D02*
X173060Y947170D01*
X173060Y949345D02*
X175540Y949345D01*
X175540Y951520D02*
X173060Y951520D01*
X173060Y953695D02*
X175540Y953695D01*
X175540Y955870D02*
X173060Y955870D01*
X173060Y958045D02*
X175540Y958045D01*
X168540Y958100D02*
X166060Y958100D01*
X168540Y958100D02*
X168540Y934120D01*
X166060Y934120D01*
X166060Y958100D01*
X166060Y936295D02*
X168540Y936295D01*
X168540Y938470D02*
X166060Y938470D01*
X166060Y940645D02*
X168540Y940645D01*
X168540Y942820D02*
X166060Y942820D01*
X166060Y944995D02*
X168540Y944995D01*
X168540Y947170D02*
X166060Y947170D01*
X166060Y949345D02*
X168540Y949345D01*
X168540Y951520D02*
X166060Y951520D01*
X166060Y953695D02*
X168540Y953695D01*
X168540Y955870D02*
X166060Y955870D01*
X166060Y958045D02*
X168540Y958045D01*
X161540Y958100D02*
X159060Y958100D01*
X161540Y958100D02*
X161540Y934120D01*
X159060Y934120D01*
X159060Y958100D01*
X159060Y936295D02*
X161540Y936295D01*
X161540Y938470D02*
X159060Y938470D01*
X159060Y940645D02*
X161540Y940645D01*
X161540Y942820D02*
X159060Y942820D01*
X159060Y944995D02*
X161540Y944995D01*
X161540Y947170D02*
X159060Y947170D01*
X159060Y949345D02*
X161540Y949345D01*
X161540Y951520D02*
X159060Y951520D01*
X159060Y953695D02*
X161540Y953695D01*
X161540Y955870D02*
X159060Y955870D01*
X159060Y958045D02*
X161540Y958045D01*
X154540Y958100D02*
X152060Y958100D01*
X154540Y958100D02*
X154540Y934120D01*
X152060Y934120D01*
X152060Y958100D01*
X152060Y936295D02*
X154540Y936295D01*
X154540Y938470D02*
X152060Y938470D01*
X152060Y940645D02*
X154540Y940645D01*
X154540Y942820D02*
X152060Y942820D01*
X152060Y944995D02*
X154540Y944995D01*
X154540Y947170D02*
X152060Y947170D01*
X152060Y949345D02*
X154540Y949345D01*
X154540Y951520D02*
X152060Y951520D01*
X152060Y953695D02*
X154540Y953695D01*
X154540Y955870D02*
X152060Y955870D01*
X152060Y958045D02*
X154540Y958045D01*
X147540Y958100D02*
X145060Y958100D01*
X147540Y958100D02*
X147540Y934120D01*
X145060Y934120D01*
X145060Y958100D01*
X145060Y936295D02*
X147540Y936295D01*
X147540Y938470D02*
X145060Y938470D01*
X145060Y940645D02*
X147540Y940645D01*
X147540Y942820D02*
X145060Y942820D01*
X145060Y944995D02*
X147540Y944995D01*
X147540Y947170D02*
X145060Y947170D01*
X145060Y949345D02*
X147540Y949345D01*
X147540Y951520D02*
X145060Y951520D01*
X145060Y953695D02*
X147540Y953695D01*
X147540Y955870D02*
X145060Y955870D01*
X145060Y958045D02*
X147540Y958045D01*
X140540Y958100D02*
X138060Y958100D01*
X140540Y958100D02*
X140540Y934120D01*
X138060Y934120D01*
X138060Y958100D01*
X138060Y936295D02*
X140540Y936295D01*
X140540Y938470D02*
X138060Y938470D01*
X138060Y940645D02*
X140540Y940645D01*
X140540Y942820D02*
X138060Y942820D01*
X138060Y944995D02*
X140540Y944995D01*
X140540Y947170D02*
X138060Y947170D01*
X138060Y949345D02*
X140540Y949345D01*
X140540Y951520D02*
X138060Y951520D01*
X138060Y953695D02*
X140540Y953695D01*
X140540Y955870D02*
X138060Y955870D01*
X138060Y958045D02*
X140540Y958045D01*
X133540Y958100D02*
X131060Y958100D01*
X133540Y958100D02*
X133540Y934120D01*
X131060Y934120D01*
X131060Y958100D01*
X131060Y936295D02*
X133540Y936295D01*
X133540Y938470D02*
X131060Y938470D01*
X131060Y940645D02*
X133540Y940645D01*
X133540Y942820D02*
X131060Y942820D01*
X131060Y944995D02*
X133540Y944995D01*
X133540Y947170D02*
X131060Y947170D01*
X131060Y949345D02*
X133540Y949345D01*
X133540Y951520D02*
X131060Y951520D01*
X131060Y953695D02*
X133540Y953695D01*
X133540Y955870D02*
X131060Y955870D01*
X131060Y958045D02*
X133540Y958045D01*
X126540Y958100D02*
X124060Y958100D01*
X126540Y958100D02*
X126540Y934120D01*
X124060Y934120D01*
X124060Y958100D01*
X124060Y936295D02*
X126540Y936295D01*
X126540Y938470D02*
X124060Y938470D01*
X124060Y940645D02*
X126540Y940645D01*
X126540Y942820D02*
X124060Y942820D01*
X124060Y944995D02*
X126540Y944995D01*
X126540Y947170D02*
X124060Y947170D01*
X124060Y949345D02*
X126540Y949345D01*
X126540Y951520D02*
X124060Y951520D01*
X124060Y953695D02*
X126540Y953695D01*
X126540Y955870D02*
X124060Y955870D01*
X124060Y958045D02*
X126540Y958045D01*
X119540Y958100D02*
X117060Y958100D01*
X119540Y958100D02*
X119540Y934120D01*
X117060Y934120D01*
X117060Y958100D01*
X117060Y936295D02*
X119540Y936295D01*
X119540Y938470D02*
X117060Y938470D01*
X117060Y940645D02*
X119540Y940645D01*
X119540Y942820D02*
X117060Y942820D01*
X117060Y944995D02*
X119540Y944995D01*
X119540Y947170D02*
X117060Y947170D01*
X117060Y949345D02*
X119540Y949345D01*
X119540Y951520D02*
X117060Y951520D01*
X117060Y953695D02*
X119540Y953695D01*
X119540Y955870D02*
X117060Y955870D01*
X117060Y958045D02*
X119540Y958045D01*
X112540Y958100D02*
X110060Y958100D01*
X112540Y958100D02*
X112540Y934120D01*
X110060Y934120D01*
X110060Y958100D01*
X110060Y936295D02*
X112540Y936295D01*
X112540Y938470D02*
X110060Y938470D01*
X110060Y940645D02*
X112540Y940645D01*
X112540Y942820D02*
X110060Y942820D01*
X110060Y944995D02*
X112540Y944995D01*
X112540Y947170D02*
X110060Y947170D01*
X110060Y949345D02*
X112540Y949345D01*
X112540Y951520D02*
X110060Y951520D01*
X110060Y953695D02*
X112540Y953695D01*
X112540Y955870D02*
X110060Y955870D01*
X110060Y958045D02*
X112540Y958045D01*
X105540Y958100D02*
X103060Y958100D01*
X105540Y958100D02*
X105540Y934120D01*
X103060Y934120D01*
X103060Y958100D01*
X103060Y936295D02*
X105540Y936295D01*
X105540Y938470D02*
X103060Y938470D01*
X103060Y940645D02*
X105540Y940645D01*
X105540Y942820D02*
X103060Y942820D01*
X103060Y944995D02*
X105540Y944995D01*
X105540Y947170D02*
X103060Y947170D01*
X103060Y949345D02*
X105540Y949345D01*
X105540Y951520D02*
X103060Y951520D01*
X103060Y953695D02*
X105540Y953695D01*
X105540Y955870D02*
X103060Y955870D01*
X103060Y958045D02*
X105540Y958045D01*
X98540Y958100D02*
X96060Y958100D01*
X98540Y958100D02*
X98540Y934120D01*
X96060Y934120D01*
X96060Y958100D01*
X96060Y936295D02*
X98540Y936295D01*
X98540Y938470D02*
X96060Y938470D01*
X96060Y940645D02*
X98540Y940645D01*
X98540Y942820D02*
X96060Y942820D01*
X96060Y944995D02*
X98540Y944995D01*
X98540Y947170D02*
X96060Y947170D01*
X96060Y949345D02*
X98540Y949345D01*
X98540Y951520D02*
X96060Y951520D01*
X96060Y953695D02*
X98540Y953695D01*
X98540Y955870D02*
X96060Y955870D01*
X96060Y958045D02*
X98540Y958045D01*
X91540Y958100D02*
X89060Y958100D01*
X91540Y958100D02*
X91540Y934120D01*
X89060Y934120D01*
X89060Y958100D01*
X89060Y936295D02*
X91540Y936295D01*
X91540Y938470D02*
X89060Y938470D01*
X89060Y940645D02*
X91540Y940645D01*
X91540Y942820D02*
X89060Y942820D01*
X89060Y944995D02*
X91540Y944995D01*
X91540Y947170D02*
X89060Y947170D01*
X89060Y949345D02*
X91540Y949345D01*
X91540Y951520D02*
X89060Y951520D01*
X89060Y953695D02*
X91540Y953695D01*
X91540Y955870D02*
X89060Y955870D01*
X89060Y958045D02*
X91540Y958045D01*
D11*
X97800Y906110D03*
X257800Y906110D03*
D10*
X84540Y958100D02*
X82060Y958100D01*
X84540Y958100D02*
X84540Y934120D01*
X82060Y934120D01*
X82060Y958100D01*
X82060Y936295D02*
X84540Y936295D01*
X84540Y938470D02*
X82060Y938470D01*
X82060Y940645D02*
X84540Y940645D01*
X84540Y942820D02*
X82060Y942820D01*
X82060Y944995D02*
X84540Y944995D01*
X84540Y947170D02*
X82060Y947170D01*
X82060Y949345D02*
X84540Y949345D01*
X84540Y951520D02*
X82060Y951520D01*
X82060Y953695D02*
X84540Y953695D01*
X84540Y955870D02*
X82060Y955870D01*
X82060Y958045D02*
X84540Y958045D01*
X77540Y958100D02*
X75060Y958100D01*
X77540Y958100D02*
X77540Y934120D01*
X75060Y934120D01*
X75060Y958100D01*
X75060Y936295D02*
X77540Y936295D01*
X77540Y938470D02*
X75060Y938470D01*
X75060Y940645D02*
X77540Y940645D01*
X77540Y942820D02*
X75060Y942820D01*
X75060Y944995D02*
X77540Y944995D01*
X77540Y947170D02*
X75060Y947170D01*
X75060Y949345D02*
X77540Y949345D01*
X77540Y951520D02*
X75060Y951520D01*
X75060Y953695D02*
X77540Y953695D01*
X77540Y955870D02*
X75060Y955870D01*
X75060Y958045D02*
X77540Y958045D01*
D12*
X342900Y1019810D03*
X342900Y1045210D03*
X342900Y1070610D03*
X342900Y1096010D03*
D13*
X25400Y1140460D03*
X330200Y1140460D03*
D14*
X25400Y1083310D03*
X330200Y880110D03*
D13*
X330200Y822960D03*
X25400Y822960D03*
D10*
X638740Y958100D02*
X641220Y958100D01*
X641220Y934120D01*
X638740Y934120D01*
X638740Y958100D01*
X638740Y936295D02*
X641220Y936295D01*
X641220Y938470D02*
X638740Y938470D01*
X638740Y940645D02*
X641220Y940645D01*
X641220Y942820D02*
X638740Y942820D01*
X638740Y944995D02*
X641220Y944995D01*
X641220Y947170D02*
X638740Y947170D01*
X638740Y949345D02*
X641220Y949345D01*
X641220Y951520D02*
X638740Y951520D01*
X638740Y953695D02*
X641220Y953695D01*
X641220Y955870D02*
X638740Y955870D01*
X638740Y958045D02*
X641220Y958045D01*
X634220Y958100D02*
X631740Y958100D01*
X634220Y958100D02*
X634220Y934120D01*
X631740Y934120D01*
X631740Y958100D01*
X631740Y936295D02*
X634220Y936295D01*
X634220Y938470D02*
X631740Y938470D01*
X631740Y940645D02*
X634220Y940645D01*
X634220Y942820D02*
X631740Y942820D01*
X631740Y944995D02*
X634220Y944995D01*
X634220Y947170D02*
X631740Y947170D01*
X631740Y949345D02*
X634220Y949345D01*
X634220Y951520D02*
X631740Y951520D01*
X631740Y953695D02*
X634220Y953695D01*
X634220Y955870D02*
X631740Y955870D01*
X631740Y958045D02*
X634220Y958045D01*
X627220Y958100D02*
X624740Y958100D01*
X627220Y958100D02*
X627220Y934120D01*
X624740Y934120D01*
X624740Y958100D01*
X624740Y936295D02*
X627220Y936295D01*
X627220Y938470D02*
X624740Y938470D01*
X624740Y940645D02*
X627220Y940645D01*
X627220Y942820D02*
X624740Y942820D01*
X624740Y944995D02*
X627220Y944995D01*
X627220Y947170D02*
X624740Y947170D01*
X624740Y949345D02*
X627220Y949345D01*
X627220Y951520D02*
X624740Y951520D01*
X624740Y953695D02*
X627220Y953695D01*
X627220Y955870D02*
X624740Y955870D01*
X624740Y958045D02*
X627220Y958045D01*
X620220Y958100D02*
X617740Y958100D01*
X620220Y958100D02*
X620220Y934120D01*
X617740Y934120D01*
X617740Y958100D01*
X617740Y936295D02*
X620220Y936295D01*
X620220Y938470D02*
X617740Y938470D01*
X617740Y940645D02*
X620220Y940645D01*
X620220Y942820D02*
X617740Y942820D01*
X617740Y944995D02*
X620220Y944995D01*
X620220Y947170D02*
X617740Y947170D01*
X617740Y949345D02*
X620220Y949345D01*
X620220Y951520D02*
X617740Y951520D01*
X617740Y953695D02*
X620220Y953695D01*
X620220Y955870D02*
X617740Y955870D01*
X617740Y958045D02*
X620220Y958045D01*
X613220Y958100D02*
X610740Y958100D01*
X613220Y958100D02*
X613220Y934120D01*
X610740Y934120D01*
X610740Y958100D01*
X610740Y936295D02*
X613220Y936295D01*
X613220Y938470D02*
X610740Y938470D01*
X610740Y940645D02*
X613220Y940645D01*
X613220Y942820D02*
X610740Y942820D01*
X610740Y944995D02*
X613220Y944995D01*
X613220Y947170D02*
X610740Y947170D01*
X610740Y949345D02*
X613220Y949345D01*
X613220Y951520D02*
X610740Y951520D01*
X610740Y953695D02*
X613220Y953695D01*
X613220Y955870D02*
X610740Y955870D01*
X610740Y958045D02*
X613220Y958045D01*
X606220Y958100D02*
X603740Y958100D01*
X606220Y958100D02*
X606220Y934120D01*
X603740Y934120D01*
X603740Y958100D01*
X603740Y936295D02*
X606220Y936295D01*
X606220Y938470D02*
X603740Y938470D01*
X603740Y940645D02*
X606220Y940645D01*
X606220Y942820D02*
X603740Y942820D01*
X603740Y944995D02*
X606220Y944995D01*
X606220Y947170D02*
X603740Y947170D01*
X603740Y949345D02*
X606220Y949345D01*
X606220Y951520D02*
X603740Y951520D01*
X603740Y953695D02*
X606220Y953695D01*
X606220Y955870D02*
X603740Y955870D01*
X603740Y958045D02*
X606220Y958045D01*
X599220Y958100D02*
X596740Y958100D01*
X599220Y958100D02*
X599220Y934120D01*
X596740Y934120D01*
X596740Y958100D01*
X596740Y936295D02*
X599220Y936295D01*
X599220Y938470D02*
X596740Y938470D01*
X596740Y940645D02*
X599220Y940645D01*
X599220Y942820D02*
X596740Y942820D01*
X596740Y944995D02*
X599220Y944995D01*
X599220Y947170D02*
X596740Y947170D01*
X596740Y949345D02*
X599220Y949345D01*
X599220Y951520D02*
X596740Y951520D01*
X596740Y953695D02*
X599220Y953695D01*
X599220Y955870D02*
X596740Y955870D01*
X596740Y958045D02*
X599220Y958045D01*
X592220Y958100D02*
X589740Y958100D01*
X592220Y958100D02*
X592220Y934120D01*
X589740Y934120D01*
X589740Y958100D01*
X589740Y936295D02*
X592220Y936295D01*
X592220Y938470D02*
X589740Y938470D01*
X589740Y940645D02*
X592220Y940645D01*
X592220Y942820D02*
X589740Y942820D01*
X589740Y944995D02*
X592220Y944995D01*
X592220Y947170D02*
X589740Y947170D01*
X589740Y949345D02*
X592220Y949345D01*
X592220Y951520D02*
X589740Y951520D01*
X589740Y953695D02*
X592220Y953695D01*
X592220Y955870D02*
X589740Y955870D01*
X589740Y958045D02*
X592220Y958045D01*
X585220Y958100D02*
X582740Y958100D01*
X585220Y958100D02*
X585220Y934120D01*
X582740Y934120D01*
X582740Y958100D01*
X582740Y936295D02*
X585220Y936295D01*
X585220Y938470D02*
X582740Y938470D01*
X582740Y940645D02*
X585220Y940645D01*
X585220Y942820D02*
X582740Y942820D01*
X582740Y944995D02*
X585220Y944995D01*
X585220Y947170D02*
X582740Y947170D01*
X582740Y949345D02*
X585220Y949345D01*
X585220Y951520D02*
X582740Y951520D01*
X582740Y953695D02*
X585220Y953695D01*
X585220Y955870D02*
X582740Y955870D01*
X582740Y958045D02*
X585220Y958045D01*
X578220Y958100D02*
X575740Y958100D01*
X578220Y958100D02*
X578220Y934120D01*
X575740Y934120D01*
X575740Y958100D01*
X575740Y936295D02*
X578220Y936295D01*
X578220Y938470D02*
X575740Y938470D01*
X575740Y940645D02*
X578220Y940645D01*
X578220Y942820D02*
X575740Y942820D01*
X575740Y944995D02*
X578220Y944995D01*
X578220Y947170D02*
X575740Y947170D01*
X575740Y949345D02*
X578220Y949345D01*
X578220Y951520D02*
X575740Y951520D01*
X575740Y953695D02*
X578220Y953695D01*
X578220Y955870D02*
X575740Y955870D01*
X575740Y958045D02*
X578220Y958045D01*
X571220Y958100D02*
X568740Y958100D01*
X571220Y958100D02*
X571220Y934120D01*
X568740Y934120D01*
X568740Y958100D01*
X568740Y936295D02*
X571220Y936295D01*
X571220Y938470D02*
X568740Y938470D01*
X568740Y940645D02*
X571220Y940645D01*
X571220Y942820D02*
X568740Y942820D01*
X568740Y944995D02*
X571220Y944995D01*
X571220Y947170D02*
X568740Y947170D01*
X568740Y949345D02*
X571220Y949345D01*
X571220Y951520D02*
X568740Y951520D01*
X568740Y953695D02*
X571220Y953695D01*
X571220Y955870D02*
X568740Y955870D01*
X568740Y958045D02*
X571220Y958045D01*
X564220Y958100D02*
X561740Y958100D01*
X564220Y958100D02*
X564220Y934120D01*
X561740Y934120D01*
X561740Y958100D01*
X561740Y936295D02*
X564220Y936295D01*
X564220Y938470D02*
X561740Y938470D01*
X561740Y940645D02*
X564220Y940645D01*
X564220Y942820D02*
X561740Y942820D01*
X561740Y944995D02*
X564220Y944995D01*
X564220Y947170D02*
X561740Y947170D01*
X561740Y949345D02*
X564220Y949345D01*
X564220Y951520D02*
X561740Y951520D01*
X561740Y953695D02*
X564220Y953695D01*
X564220Y955870D02*
X561740Y955870D01*
X561740Y958045D02*
X564220Y958045D01*
X557220Y958100D02*
X554740Y958100D01*
X557220Y958100D02*
X557220Y934120D01*
X554740Y934120D01*
X554740Y958100D01*
X554740Y936295D02*
X557220Y936295D01*
X557220Y938470D02*
X554740Y938470D01*
X554740Y940645D02*
X557220Y940645D01*
X557220Y942820D02*
X554740Y942820D01*
X554740Y944995D02*
X557220Y944995D01*
X557220Y947170D02*
X554740Y947170D01*
X554740Y949345D02*
X557220Y949345D01*
X557220Y951520D02*
X554740Y951520D01*
X554740Y953695D02*
X557220Y953695D01*
X557220Y955870D02*
X554740Y955870D01*
X554740Y958045D02*
X557220Y958045D01*
X550220Y958100D02*
X547740Y958100D01*
X550220Y958100D02*
X550220Y934120D01*
X547740Y934120D01*
X547740Y958100D01*
X547740Y936295D02*
X550220Y936295D01*
X550220Y938470D02*
X547740Y938470D01*
X547740Y940645D02*
X550220Y940645D01*
X550220Y942820D02*
X547740Y942820D01*
X547740Y944995D02*
X550220Y944995D01*
X550220Y947170D02*
X547740Y947170D01*
X547740Y949345D02*
X550220Y949345D01*
X550220Y951520D02*
X547740Y951520D01*
X547740Y953695D02*
X550220Y953695D01*
X550220Y955870D02*
X547740Y955870D01*
X547740Y958045D02*
X550220Y958045D01*
X543220Y958100D02*
X540740Y958100D01*
X543220Y958100D02*
X543220Y934120D01*
X540740Y934120D01*
X540740Y958100D01*
X540740Y936295D02*
X543220Y936295D01*
X543220Y938470D02*
X540740Y938470D01*
X540740Y940645D02*
X543220Y940645D01*
X543220Y942820D02*
X540740Y942820D01*
X540740Y944995D02*
X543220Y944995D01*
X543220Y947170D02*
X540740Y947170D01*
X540740Y949345D02*
X543220Y949345D01*
X543220Y951520D02*
X540740Y951520D01*
X540740Y953695D02*
X543220Y953695D01*
X543220Y955870D02*
X540740Y955870D01*
X540740Y958045D02*
X543220Y958045D01*
X536220Y958100D02*
X533740Y958100D01*
X536220Y958100D02*
X536220Y934120D01*
X533740Y934120D01*
X533740Y958100D01*
X533740Y936295D02*
X536220Y936295D01*
X536220Y938470D02*
X533740Y938470D01*
X533740Y940645D02*
X536220Y940645D01*
X536220Y942820D02*
X533740Y942820D01*
X533740Y944995D02*
X536220Y944995D01*
X536220Y947170D02*
X533740Y947170D01*
X533740Y949345D02*
X536220Y949345D01*
X536220Y951520D02*
X533740Y951520D01*
X533740Y953695D02*
X536220Y953695D01*
X536220Y955870D02*
X533740Y955870D01*
X533740Y958045D02*
X536220Y958045D01*
X529220Y958100D02*
X526740Y958100D01*
X529220Y958100D02*
X529220Y934120D01*
X526740Y934120D01*
X526740Y958100D01*
X526740Y936295D02*
X529220Y936295D01*
X529220Y938470D02*
X526740Y938470D01*
X526740Y940645D02*
X529220Y940645D01*
X529220Y942820D02*
X526740Y942820D01*
X526740Y944995D02*
X529220Y944995D01*
X529220Y947170D02*
X526740Y947170D01*
X526740Y949345D02*
X529220Y949345D01*
X529220Y951520D02*
X526740Y951520D01*
X526740Y953695D02*
X529220Y953695D01*
X529220Y955870D02*
X526740Y955870D01*
X526740Y958045D02*
X529220Y958045D01*
X522220Y958100D02*
X519740Y958100D01*
X522220Y958100D02*
X522220Y934120D01*
X519740Y934120D01*
X519740Y958100D01*
X519740Y936295D02*
X522220Y936295D01*
X522220Y938470D02*
X519740Y938470D01*
X519740Y940645D02*
X522220Y940645D01*
X522220Y942820D02*
X519740Y942820D01*
X519740Y944995D02*
X522220Y944995D01*
X522220Y947170D02*
X519740Y947170D01*
X519740Y949345D02*
X522220Y949345D01*
X522220Y951520D02*
X519740Y951520D01*
X519740Y953695D02*
X522220Y953695D01*
X522220Y955870D02*
X519740Y955870D01*
X519740Y958045D02*
X522220Y958045D01*
X515220Y958100D02*
X512740Y958100D01*
X515220Y958100D02*
X515220Y934120D01*
X512740Y934120D01*
X512740Y958100D01*
X512740Y936295D02*
X515220Y936295D01*
X515220Y938470D02*
X512740Y938470D01*
X512740Y940645D02*
X515220Y940645D01*
X515220Y942820D02*
X512740Y942820D01*
X512740Y944995D02*
X515220Y944995D01*
X515220Y947170D02*
X512740Y947170D01*
X512740Y949345D02*
X515220Y949345D01*
X515220Y951520D02*
X512740Y951520D01*
X512740Y953695D02*
X515220Y953695D01*
X515220Y955870D02*
X512740Y955870D01*
X512740Y958045D02*
X515220Y958045D01*
X508220Y958100D02*
X505740Y958100D01*
X508220Y958100D02*
X508220Y934120D01*
X505740Y934120D01*
X505740Y958100D01*
X505740Y936295D02*
X508220Y936295D01*
X508220Y938470D02*
X505740Y938470D01*
X505740Y940645D02*
X508220Y940645D01*
X508220Y942820D02*
X505740Y942820D01*
X505740Y944995D02*
X508220Y944995D01*
X508220Y947170D02*
X505740Y947170D01*
X505740Y949345D02*
X508220Y949345D01*
X508220Y951520D02*
X505740Y951520D01*
X505740Y953695D02*
X508220Y953695D01*
X508220Y955870D02*
X505740Y955870D01*
X505740Y958045D02*
X508220Y958045D01*
X501220Y958100D02*
X498740Y958100D01*
X501220Y958100D02*
X501220Y934120D01*
X498740Y934120D01*
X498740Y958100D01*
X498740Y936295D02*
X501220Y936295D01*
X501220Y938470D02*
X498740Y938470D01*
X498740Y940645D02*
X501220Y940645D01*
X501220Y942820D02*
X498740Y942820D01*
X498740Y944995D02*
X501220Y944995D01*
X501220Y947170D02*
X498740Y947170D01*
X498740Y949345D02*
X501220Y949345D01*
X501220Y951520D02*
X498740Y951520D01*
X498740Y953695D02*
X501220Y953695D01*
X501220Y955870D02*
X498740Y955870D01*
X498740Y958045D02*
X501220Y958045D01*
X494220Y958100D02*
X491740Y958100D01*
X494220Y958100D02*
X494220Y934120D01*
X491740Y934120D01*
X491740Y958100D01*
X491740Y936295D02*
X494220Y936295D01*
X494220Y938470D02*
X491740Y938470D01*
X491740Y940645D02*
X494220Y940645D01*
X494220Y942820D02*
X491740Y942820D01*
X491740Y944995D02*
X494220Y944995D01*
X494220Y947170D02*
X491740Y947170D01*
X491740Y949345D02*
X494220Y949345D01*
X494220Y951520D02*
X491740Y951520D01*
X491740Y953695D02*
X494220Y953695D01*
X494220Y955870D02*
X491740Y955870D01*
X491740Y958045D02*
X494220Y958045D01*
X487220Y958100D02*
X484740Y958100D01*
X487220Y958100D02*
X487220Y934120D01*
X484740Y934120D01*
X484740Y958100D01*
X484740Y936295D02*
X487220Y936295D01*
X487220Y938470D02*
X484740Y938470D01*
X484740Y940645D02*
X487220Y940645D01*
X487220Y942820D02*
X484740Y942820D01*
X484740Y944995D02*
X487220Y944995D01*
X487220Y947170D02*
X484740Y947170D01*
X484740Y949345D02*
X487220Y949345D01*
X487220Y951520D02*
X484740Y951520D01*
X484740Y953695D02*
X487220Y953695D01*
X487220Y955870D02*
X484740Y955870D01*
X484740Y958045D02*
X487220Y958045D01*
X480220Y958100D02*
X477740Y958100D01*
X480220Y958100D02*
X480220Y934120D01*
X477740Y934120D01*
X477740Y958100D01*
X477740Y936295D02*
X480220Y936295D01*
X480220Y938470D02*
X477740Y938470D01*
X477740Y940645D02*
X480220Y940645D01*
X480220Y942820D02*
X477740Y942820D01*
X477740Y944995D02*
X480220Y944995D01*
X480220Y947170D02*
X477740Y947170D01*
X477740Y949345D02*
X480220Y949345D01*
X480220Y951520D02*
X477740Y951520D01*
X477740Y953695D02*
X480220Y953695D01*
X480220Y955870D02*
X477740Y955870D01*
X477740Y958045D02*
X480220Y958045D01*
X473220Y958100D02*
X470740Y958100D01*
X473220Y958100D02*
X473220Y934120D01*
X470740Y934120D01*
X470740Y958100D01*
X470740Y936295D02*
X473220Y936295D01*
X473220Y938470D02*
X470740Y938470D01*
X470740Y940645D02*
X473220Y940645D01*
X473220Y942820D02*
X470740Y942820D01*
X470740Y944995D02*
X473220Y944995D01*
X473220Y947170D02*
X470740Y947170D01*
X470740Y949345D02*
X473220Y949345D01*
X473220Y951520D02*
X470740Y951520D01*
X470740Y953695D02*
X473220Y953695D01*
X473220Y955870D02*
X470740Y955870D01*
X470740Y958045D02*
X473220Y958045D01*
X466220Y958100D02*
X463740Y958100D01*
X466220Y958100D02*
X466220Y934120D01*
X463740Y934120D01*
X463740Y958100D01*
X463740Y936295D02*
X466220Y936295D01*
X466220Y938470D02*
X463740Y938470D01*
X463740Y940645D02*
X466220Y940645D01*
X466220Y942820D02*
X463740Y942820D01*
X463740Y944995D02*
X466220Y944995D01*
X466220Y947170D02*
X463740Y947170D01*
X463740Y949345D02*
X466220Y949345D01*
X466220Y951520D02*
X463740Y951520D01*
X463740Y953695D02*
X466220Y953695D01*
X466220Y955870D02*
X463740Y955870D01*
X463740Y958045D02*
X466220Y958045D01*
X459220Y958100D02*
X456740Y958100D01*
X459220Y958100D02*
X459220Y934120D01*
X456740Y934120D01*
X456740Y958100D01*
X456740Y936295D02*
X459220Y936295D01*
X459220Y938470D02*
X456740Y938470D01*
X456740Y940645D02*
X459220Y940645D01*
X459220Y942820D02*
X456740Y942820D01*
X456740Y944995D02*
X459220Y944995D01*
X459220Y947170D02*
X456740Y947170D01*
X456740Y949345D02*
X459220Y949345D01*
X459220Y951520D02*
X456740Y951520D01*
X456740Y953695D02*
X459220Y953695D01*
X459220Y955870D02*
X456740Y955870D01*
X456740Y958045D02*
X459220Y958045D01*
X452220Y958100D02*
X449740Y958100D01*
X452220Y958100D02*
X452220Y934120D01*
X449740Y934120D01*
X449740Y958100D01*
X449740Y936295D02*
X452220Y936295D01*
X452220Y938470D02*
X449740Y938470D01*
X449740Y940645D02*
X452220Y940645D01*
X452220Y942820D02*
X449740Y942820D01*
X449740Y944995D02*
X452220Y944995D01*
X452220Y947170D02*
X449740Y947170D01*
X449740Y949345D02*
X452220Y949345D01*
X452220Y951520D02*
X449740Y951520D01*
X449740Y953695D02*
X452220Y953695D01*
X452220Y955870D02*
X449740Y955870D01*
X449740Y958045D02*
X452220Y958045D01*
D11*
X458480Y906110D03*
X618480Y906110D03*
D10*
X445220Y958100D02*
X442740Y958100D01*
X445220Y958100D02*
X445220Y934120D01*
X442740Y934120D01*
X442740Y958100D01*
X442740Y936295D02*
X445220Y936295D01*
X445220Y938470D02*
X442740Y938470D01*
X442740Y940645D02*
X445220Y940645D01*
X445220Y942820D02*
X442740Y942820D01*
X442740Y944995D02*
X445220Y944995D01*
X445220Y947170D02*
X442740Y947170D01*
X442740Y949345D02*
X445220Y949345D01*
X445220Y951520D02*
X442740Y951520D01*
X442740Y953695D02*
X445220Y953695D01*
X445220Y955870D02*
X442740Y955870D01*
X442740Y958045D02*
X445220Y958045D01*
X438220Y958100D02*
X435740Y958100D01*
X438220Y958100D02*
X438220Y934120D01*
X435740Y934120D01*
X435740Y958100D01*
X435740Y936295D02*
X438220Y936295D01*
X438220Y938470D02*
X435740Y938470D01*
X435740Y940645D02*
X438220Y940645D01*
X438220Y942820D02*
X435740Y942820D01*
X435740Y944995D02*
X438220Y944995D01*
X438220Y947170D02*
X435740Y947170D01*
X435740Y949345D02*
X438220Y949345D01*
X438220Y951520D02*
X435740Y951520D01*
X435740Y953695D02*
X438220Y953695D01*
X438220Y955870D02*
X435740Y955870D01*
X435740Y958045D02*
X438220Y958045D01*
D12*
X703580Y1019810D03*
X703580Y1045210D03*
X703580Y1070610D03*
X703580Y1096010D03*
D13*
X386080Y1140460D03*
X690880Y1140460D03*
D14*
X386080Y1083310D03*
X690880Y880110D03*
D13*
X690880Y822960D03*
X386080Y822960D03*
D10*
X999420Y958100D02*
X1001900Y958100D01*
X1001900Y934120D01*
X999420Y934120D01*
X999420Y958100D01*
X999420Y936295D02*
X1001900Y936295D01*
X1001900Y938470D02*
X999420Y938470D01*
X999420Y940645D02*
X1001900Y940645D01*
X1001900Y942820D02*
X999420Y942820D01*
X999420Y944995D02*
X1001900Y944995D01*
X1001900Y947170D02*
X999420Y947170D01*
X999420Y949345D02*
X1001900Y949345D01*
X1001900Y951520D02*
X999420Y951520D01*
X999420Y953695D02*
X1001900Y953695D01*
X1001900Y955870D02*
X999420Y955870D01*
X999420Y958045D02*
X1001900Y958045D01*
X994900Y958100D02*
X992420Y958100D01*
X994900Y958100D02*
X994900Y934120D01*
X992420Y934120D01*
X992420Y958100D01*
X992420Y936295D02*
X994900Y936295D01*
X994900Y938470D02*
X992420Y938470D01*
X992420Y940645D02*
X994900Y940645D01*
X994900Y942820D02*
X992420Y942820D01*
X992420Y944995D02*
X994900Y944995D01*
X994900Y947170D02*
X992420Y947170D01*
X992420Y949345D02*
X994900Y949345D01*
X994900Y951520D02*
X992420Y951520D01*
X992420Y953695D02*
X994900Y953695D01*
X994900Y955870D02*
X992420Y955870D01*
X992420Y958045D02*
X994900Y958045D01*
X987900Y958100D02*
X985420Y958100D01*
X987900Y958100D02*
X987900Y934120D01*
X985420Y934120D01*
X985420Y958100D01*
X985420Y936295D02*
X987900Y936295D01*
X987900Y938470D02*
X985420Y938470D01*
X985420Y940645D02*
X987900Y940645D01*
X987900Y942820D02*
X985420Y942820D01*
X985420Y944995D02*
X987900Y944995D01*
X987900Y947170D02*
X985420Y947170D01*
X985420Y949345D02*
X987900Y949345D01*
X987900Y951520D02*
X985420Y951520D01*
X985420Y953695D02*
X987900Y953695D01*
X987900Y955870D02*
X985420Y955870D01*
X985420Y958045D02*
X987900Y958045D01*
X980900Y958100D02*
X978420Y958100D01*
X980900Y958100D02*
X980900Y934120D01*
X978420Y934120D01*
X978420Y958100D01*
X978420Y936295D02*
X980900Y936295D01*
X980900Y938470D02*
X978420Y938470D01*
X978420Y940645D02*
X980900Y940645D01*
X980900Y942820D02*
X978420Y942820D01*
X978420Y944995D02*
X980900Y944995D01*
X980900Y947170D02*
X978420Y947170D01*
X978420Y949345D02*
X980900Y949345D01*
X980900Y951520D02*
X978420Y951520D01*
X978420Y953695D02*
X980900Y953695D01*
X980900Y955870D02*
X978420Y955870D01*
X978420Y958045D02*
X980900Y958045D01*
X973900Y958100D02*
X971420Y958100D01*
X973900Y958100D02*
X973900Y934120D01*
X971420Y934120D01*
X971420Y958100D01*
X971420Y936295D02*
X973900Y936295D01*
X973900Y938470D02*
X971420Y938470D01*
X971420Y940645D02*
X973900Y940645D01*
X973900Y942820D02*
X971420Y942820D01*
X971420Y944995D02*
X973900Y944995D01*
X973900Y947170D02*
X971420Y947170D01*
X971420Y949345D02*
X973900Y949345D01*
X973900Y951520D02*
X971420Y951520D01*
X971420Y953695D02*
X973900Y953695D01*
X973900Y955870D02*
X971420Y955870D01*
X971420Y958045D02*
X973900Y958045D01*
X966900Y958100D02*
X964420Y958100D01*
X966900Y958100D02*
X966900Y934120D01*
X964420Y934120D01*
X964420Y958100D01*
X964420Y936295D02*
X966900Y936295D01*
X966900Y938470D02*
X964420Y938470D01*
X964420Y940645D02*
X966900Y940645D01*
X966900Y942820D02*
X964420Y942820D01*
X964420Y944995D02*
X966900Y944995D01*
X966900Y947170D02*
X964420Y947170D01*
X964420Y949345D02*
X966900Y949345D01*
X966900Y951520D02*
X964420Y951520D01*
X964420Y953695D02*
X966900Y953695D01*
X966900Y955870D02*
X964420Y955870D01*
X964420Y958045D02*
X966900Y958045D01*
X959900Y958100D02*
X957420Y958100D01*
X959900Y958100D02*
X959900Y934120D01*
X957420Y934120D01*
X957420Y958100D01*
X957420Y936295D02*
X959900Y936295D01*
X959900Y938470D02*
X957420Y938470D01*
X957420Y940645D02*
X959900Y940645D01*
X959900Y942820D02*
X957420Y942820D01*
X957420Y944995D02*
X959900Y944995D01*
X959900Y947170D02*
X957420Y947170D01*
X957420Y949345D02*
X959900Y949345D01*
X959900Y951520D02*
X957420Y951520D01*
X957420Y953695D02*
X959900Y953695D01*
X959900Y955870D02*
X957420Y955870D01*
X957420Y958045D02*
X959900Y958045D01*
X952900Y958100D02*
X950420Y958100D01*
X952900Y958100D02*
X952900Y934120D01*
X950420Y934120D01*
X950420Y958100D01*
X950420Y936295D02*
X952900Y936295D01*
X952900Y938470D02*
X950420Y938470D01*
X950420Y940645D02*
X952900Y940645D01*
X952900Y942820D02*
X950420Y942820D01*
X950420Y944995D02*
X952900Y944995D01*
X952900Y947170D02*
X950420Y947170D01*
X950420Y949345D02*
X952900Y949345D01*
X952900Y951520D02*
X950420Y951520D01*
X950420Y953695D02*
X952900Y953695D01*
X952900Y955870D02*
X950420Y955870D01*
X950420Y958045D02*
X952900Y958045D01*
X945900Y958100D02*
X943420Y958100D01*
X945900Y958100D02*
X945900Y934120D01*
X943420Y934120D01*
X943420Y958100D01*
X943420Y936295D02*
X945900Y936295D01*
X945900Y938470D02*
X943420Y938470D01*
X943420Y940645D02*
X945900Y940645D01*
X945900Y942820D02*
X943420Y942820D01*
X943420Y944995D02*
X945900Y944995D01*
X945900Y947170D02*
X943420Y947170D01*
X943420Y949345D02*
X945900Y949345D01*
X945900Y951520D02*
X943420Y951520D01*
X943420Y953695D02*
X945900Y953695D01*
X945900Y955870D02*
X943420Y955870D01*
X943420Y958045D02*
X945900Y958045D01*
X938900Y958100D02*
X936420Y958100D01*
X938900Y958100D02*
X938900Y934120D01*
X936420Y934120D01*
X936420Y958100D01*
X936420Y936295D02*
X938900Y936295D01*
X938900Y938470D02*
X936420Y938470D01*
X936420Y940645D02*
X938900Y940645D01*
X938900Y942820D02*
X936420Y942820D01*
X936420Y944995D02*
X938900Y944995D01*
X938900Y947170D02*
X936420Y947170D01*
X936420Y949345D02*
X938900Y949345D01*
X938900Y951520D02*
X936420Y951520D01*
X936420Y953695D02*
X938900Y953695D01*
X938900Y955870D02*
X936420Y955870D01*
X936420Y958045D02*
X938900Y958045D01*
X931900Y958100D02*
X929420Y958100D01*
X931900Y958100D02*
X931900Y934120D01*
X929420Y934120D01*
X929420Y958100D01*
X929420Y936295D02*
X931900Y936295D01*
X931900Y938470D02*
X929420Y938470D01*
X929420Y940645D02*
X931900Y940645D01*
X931900Y942820D02*
X929420Y942820D01*
X929420Y944995D02*
X931900Y944995D01*
X931900Y947170D02*
X929420Y947170D01*
X929420Y949345D02*
X931900Y949345D01*
X931900Y951520D02*
X929420Y951520D01*
X929420Y953695D02*
X931900Y953695D01*
X931900Y955870D02*
X929420Y955870D01*
X929420Y958045D02*
X931900Y958045D01*
X924900Y958100D02*
X922420Y958100D01*
X924900Y958100D02*
X924900Y934120D01*
X922420Y934120D01*
X922420Y958100D01*
X922420Y936295D02*
X924900Y936295D01*
X924900Y938470D02*
X922420Y938470D01*
X922420Y940645D02*
X924900Y940645D01*
X924900Y942820D02*
X922420Y942820D01*
X922420Y944995D02*
X924900Y944995D01*
X924900Y947170D02*
X922420Y947170D01*
X922420Y949345D02*
X924900Y949345D01*
X924900Y951520D02*
X922420Y951520D01*
X922420Y953695D02*
X924900Y953695D01*
X924900Y955870D02*
X922420Y955870D01*
X922420Y958045D02*
X924900Y958045D01*
X917900Y958100D02*
X915420Y958100D01*
X917900Y958100D02*
X917900Y934120D01*
X915420Y934120D01*
X915420Y958100D01*
X915420Y936295D02*
X917900Y936295D01*
X917900Y938470D02*
X915420Y938470D01*
X915420Y940645D02*
X917900Y940645D01*
X917900Y942820D02*
X915420Y942820D01*
X915420Y944995D02*
X917900Y944995D01*
X917900Y947170D02*
X915420Y947170D01*
X915420Y949345D02*
X917900Y949345D01*
X917900Y951520D02*
X915420Y951520D01*
X915420Y953695D02*
X917900Y953695D01*
X917900Y955870D02*
X915420Y955870D01*
X915420Y958045D02*
X917900Y958045D01*
X910900Y958100D02*
X908420Y958100D01*
X910900Y958100D02*
X910900Y934120D01*
X908420Y934120D01*
X908420Y958100D01*
X908420Y936295D02*
X910900Y936295D01*
X910900Y938470D02*
X908420Y938470D01*
X908420Y940645D02*
X910900Y940645D01*
X910900Y942820D02*
X908420Y942820D01*
X908420Y944995D02*
X910900Y944995D01*
X910900Y947170D02*
X908420Y947170D01*
X908420Y949345D02*
X910900Y949345D01*
X910900Y951520D02*
X908420Y951520D01*
X908420Y953695D02*
X910900Y953695D01*
X910900Y955870D02*
X908420Y955870D01*
X908420Y958045D02*
X910900Y958045D01*
X903900Y958100D02*
X901420Y958100D01*
X903900Y958100D02*
X903900Y934120D01*
X901420Y934120D01*
X901420Y958100D01*
X901420Y936295D02*
X903900Y936295D01*
X903900Y938470D02*
X901420Y938470D01*
X901420Y940645D02*
X903900Y940645D01*
X903900Y942820D02*
X901420Y942820D01*
X901420Y944995D02*
X903900Y944995D01*
X903900Y947170D02*
X901420Y947170D01*
X901420Y949345D02*
X903900Y949345D01*
X903900Y951520D02*
X901420Y951520D01*
X901420Y953695D02*
X903900Y953695D01*
X903900Y955870D02*
X901420Y955870D01*
X901420Y958045D02*
X903900Y958045D01*
X896900Y958100D02*
X894420Y958100D01*
X896900Y958100D02*
X896900Y934120D01*
X894420Y934120D01*
X894420Y958100D01*
X894420Y936295D02*
X896900Y936295D01*
X896900Y938470D02*
X894420Y938470D01*
X894420Y940645D02*
X896900Y940645D01*
X896900Y942820D02*
X894420Y942820D01*
X894420Y944995D02*
X896900Y944995D01*
X896900Y947170D02*
X894420Y947170D01*
X894420Y949345D02*
X896900Y949345D01*
X896900Y951520D02*
X894420Y951520D01*
X894420Y953695D02*
X896900Y953695D01*
X896900Y955870D02*
X894420Y955870D01*
X894420Y958045D02*
X896900Y958045D01*
X889900Y958100D02*
X887420Y958100D01*
X889900Y958100D02*
X889900Y934120D01*
X887420Y934120D01*
X887420Y958100D01*
X887420Y936295D02*
X889900Y936295D01*
X889900Y938470D02*
X887420Y938470D01*
X887420Y940645D02*
X889900Y940645D01*
X889900Y942820D02*
X887420Y942820D01*
X887420Y944995D02*
X889900Y944995D01*
X889900Y947170D02*
X887420Y947170D01*
X887420Y949345D02*
X889900Y949345D01*
X889900Y951520D02*
X887420Y951520D01*
X887420Y953695D02*
X889900Y953695D01*
X889900Y955870D02*
X887420Y955870D01*
X887420Y958045D02*
X889900Y958045D01*
X882900Y958100D02*
X880420Y958100D01*
X882900Y958100D02*
X882900Y934120D01*
X880420Y934120D01*
X880420Y958100D01*
X880420Y936295D02*
X882900Y936295D01*
X882900Y938470D02*
X880420Y938470D01*
X880420Y940645D02*
X882900Y940645D01*
X882900Y942820D02*
X880420Y942820D01*
X880420Y944995D02*
X882900Y944995D01*
X882900Y947170D02*
X880420Y947170D01*
X880420Y949345D02*
X882900Y949345D01*
X882900Y951520D02*
X880420Y951520D01*
X880420Y953695D02*
X882900Y953695D01*
X882900Y955870D02*
X880420Y955870D01*
X880420Y958045D02*
X882900Y958045D01*
X875900Y958100D02*
X873420Y958100D01*
X875900Y958100D02*
X875900Y934120D01*
X873420Y934120D01*
X873420Y958100D01*
X873420Y936295D02*
X875900Y936295D01*
X875900Y938470D02*
X873420Y938470D01*
X873420Y940645D02*
X875900Y940645D01*
X875900Y942820D02*
X873420Y942820D01*
X873420Y944995D02*
X875900Y944995D01*
X875900Y947170D02*
X873420Y947170D01*
X873420Y949345D02*
X875900Y949345D01*
X875900Y951520D02*
X873420Y951520D01*
X873420Y953695D02*
X875900Y953695D01*
X875900Y955870D02*
X873420Y955870D01*
X873420Y958045D02*
X875900Y958045D01*
X868900Y958100D02*
X866420Y958100D01*
X868900Y958100D02*
X868900Y934120D01*
X866420Y934120D01*
X866420Y958100D01*
X866420Y936295D02*
X868900Y936295D01*
X868900Y938470D02*
X866420Y938470D01*
X866420Y940645D02*
X868900Y940645D01*
X868900Y942820D02*
X866420Y942820D01*
X866420Y944995D02*
X868900Y944995D01*
X868900Y947170D02*
X866420Y947170D01*
X866420Y949345D02*
X868900Y949345D01*
X868900Y951520D02*
X866420Y951520D01*
X866420Y953695D02*
X868900Y953695D01*
X868900Y955870D02*
X866420Y955870D01*
X866420Y958045D02*
X868900Y958045D01*
X861900Y958100D02*
X859420Y958100D01*
X861900Y958100D02*
X861900Y934120D01*
X859420Y934120D01*
X859420Y958100D01*
X859420Y936295D02*
X861900Y936295D01*
X861900Y938470D02*
X859420Y938470D01*
X859420Y940645D02*
X861900Y940645D01*
X861900Y942820D02*
X859420Y942820D01*
X859420Y944995D02*
X861900Y944995D01*
X861900Y947170D02*
X859420Y947170D01*
X859420Y949345D02*
X861900Y949345D01*
X861900Y951520D02*
X859420Y951520D01*
X859420Y953695D02*
X861900Y953695D01*
X861900Y955870D02*
X859420Y955870D01*
X859420Y958045D02*
X861900Y958045D01*
X854900Y958100D02*
X852420Y958100D01*
X854900Y958100D02*
X854900Y934120D01*
X852420Y934120D01*
X852420Y958100D01*
X852420Y936295D02*
X854900Y936295D01*
X854900Y938470D02*
X852420Y938470D01*
X852420Y940645D02*
X854900Y940645D01*
X854900Y942820D02*
X852420Y942820D01*
X852420Y944995D02*
X854900Y944995D01*
X854900Y947170D02*
X852420Y947170D01*
X852420Y949345D02*
X854900Y949345D01*
X854900Y951520D02*
X852420Y951520D01*
X852420Y953695D02*
X854900Y953695D01*
X854900Y955870D02*
X852420Y955870D01*
X852420Y958045D02*
X854900Y958045D01*
X847900Y958100D02*
X845420Y958100D01*
X847900Y958100D02*
X847900Y934120D01*
X845420Y934120D01*
X845420Y958100D01*
X845420Y936295D02*
X847900Y936295D01*
X847900Y938470D02*
X845420Y938470D01*
X845420Y940645D02*
X847900Y940645D01*
X847900Y942820D02*
X845420Y942820D01*
X845420Y944995D02*
X847900Y944995D01*
X847900Y947170D02*
X845420Y947170D01*
X845420Y949345D02*
X847900Y949345D01*
X847900Y951520D02*
X845420Y951520D01*
X845420Y953695D02*
X847900Y953695D01*
X847900Y955870D02*
X845420Y955870D01*
X845420Y958045D02*
X847900Y958045D01*
X840900Y958100D02*
X838420Y958100D01*
X840900Y958100D02*
X840900Y934120D01*
X838420Y934120D01*
X838420Y958100D01*
X838420Y936295D02*
X840900Y936295D01*
X840900Y938470D02*
X838420Y938470D01*
X838420Y940645D02*
X840900Y940645D01*
X840900Y942820D02*
X838420Y942820D01*
X838420Y944995D02*
X840900Y944995D01*
X840900Y947170D02*
X838420Y947170D01*
X838420Y949345D02*
X840900Y949345D01*
X840900Y951520D02*
X838420Y951520D01*
X838420Y953695D02*
X840900Y953695D01*
X840900Y955870D02*
X838420Y955870D01*
X838420Y958045D02*
X840900Y958045D01*
X833900Y958100D02*
X831420Y958100D01*
X833900Y958100D02*
X833900Y934120D01*
X831420Y934120D01*
X831420Y958100D01*
X831420Y936295D02*
X833900Y936295D01*
X833900Y938470D02*
X831420Y938470D01*
X831420Y940645D02*
X833900Y940645D01*
X833900Y942820D02*
X831420Y942820D01*
X831420Y944995D02*
X833900Y944995D01*
X833900Y947170D02*
X831420Y947170D01*
X831420Y949345D02*
X833900Y949345D01*
X833900Y951520D02*
X831420Y951520D01*
X831420Y953695D02*
X833900Y953695D01*
X833900Y955870D02*
X831420Y955870D01*
X831420Y958045D02*
X833900Y958045D01*
X826900Y958100D02*
X824420Y958100D01*
X826900Y958100D02*
X826900Y934120D01*
X824420Y934120D01*
X824420Y958100D01*
X824420Y936295D02*
X826900Y936295D01*
X826900Y938470D02*
X824420Y938470D01*
X824420Y940645D02*
X826900Y940645D01*
X826900Y942820D02*
X824420Y942820D01*
X824420Y944995D02*
X826900Y944995D01*
X826900Y947170D02*
X824420Y947170D01*
X824420Y949345D02*
X826900Y949345D01*
X826900Y951520D02*
X824420Y951520D01*
X824420Y953695D02*
X826900Y953695D01*
X826900Y955870D02*
X824420Y955870D01*
X824420Y958045D02*
X826900Y958045D01*
X819900Y958100D02*
X817420Y958100D01*
X819900Y958100D02*
X819900Y934120D01*
X817420Y934120D01*
X817420Y958100D01*
X817420Y936295D02*
X819900Y936295D01*
X819900Y938470D02*
X817420Y938470D01*
X817420Y940645D02*
X819900Y940645D01*
X819900Y942820D02*
X817420Y942820D01*
X817420Y944995D02*
X819900Y944995D01*
X819900Y947170D02*
X817420Y947170D01*
X817420Y949345D02*
X819900Y949345D01*
X819900Y951520D02*
X817420Y951520D01*
X817420Y953695D02*
X819900Y953695D01*
X819900Y955870D02*
X817420Y955870D01*
X817420Y958045D02*
X819900Y958045D01*
X812900Y958100D02*
X810420Y958100D01*
X812900Y958100D02*
X812900Y934120D01*
X810420Y934120D01*
X810420Y958100D01*
X810420Y936295D02*
X812900Y936295D01*
X812900Y938470D02*
X810420Y938470D01*
X810420Y940645D02*
X812900Y940645D01*
X812900Y942820D02*
X810420Y942820D01*
X810420Y944995D02*
X812900Y944995D01*
X812900Y947170D02*
X810420Y947170D01*
X810420Y949345D02*
X812900Y949345D01*
X812900Y951520D02*
X810420Y951520D01*
X810420Y953695D02*
X812900Y953695D01*
X812900Y955870D02*
X810420Y955870D01*
X810420Y958045D02*
X812900Y958045D01*
D11*
X819160Y906110D03*
X979160Y906110D03*
D10*
X805900Y958100D02*
X803420Y958100D01*
X805900Y958100D02*
X805900Y934120D01*
X803420Y934120D01*
X803420Y958100D01*
X803420Y936295D02*
X805900Y936295D01*
X805900Y938470D02*
X803420Y938470D01*
X803420Y940645D02*
X805900Y940645D01*
X805900Y942820D02*
X803420Y942820D01*
X803420Y944995D02*
X805900Y944995D01*
X805900Y947170D02*
X803420Y947170D01*
X803420Y949345D02*
X805900Y949345D01*
X805900Y951520D02*
X803420Y951520D01*
X803420Y953695D02*
X805900Y953695D01*
X805900Y955870D02*
X803420Y955870D01*
X803420Y958045D02*
X805900Y958045D01*
X798900Y958100D02*
X796420Y958100D01*
X798900Y958100D02*
X798900Y934120D01*
X796420Y934120D01*
X796420Y958100D01*
X796420Y936295D02*
X798900Y936295D01*
X798900Y938470D02*
X796420Y938470D01*
X796420Y940645D02*
X798900Y940645D01*
X798900Y942820D02*
X796420Y942820D01*
X796420Y944995D02*
X798900Y944995D01*
X798900Y947170D02*
X796420Y947170D01*
X796420Y949345D02*
X798900Y949345D01*
X798900Y951520D02*
X796420Y951520D01*
X796420Y953695D02*
X798900Y953695D01*
X798900Y955870D02*
X796420Y955870D01*
X796420Y958045D02*
X798900Y958045D01*
D12*
X1064260Y1019810D03*
X1064260Y1045210D03*
X1064260Y1070610D03*
X1064260Y1096010D03*
D13*
X746760Y1140460D03*
X1051560Y1140460D03*
D14*
X746760Y1083310D03*
X1051560Y880110D03*
D13*
X1051560Y822960D03*
X746760Y822960D03*
D14*
X-26238Y1164590D03*
X1103198Y1164590D03*
D15*
X-35293Y25400D02*
X-35290Y25622D01*
X-35282Y25844D01*
X-35268Y26066D01*
X-35249Y26288D01*
X-35225Y26508D01*
X-35195Y26729D01*
X-35160Y26948D01*
X-35119Y27167D01*
X-35073Y27384D01*
X-35022Y27600D01*
X-34965Y27815D01*
X-34903Y28029D01*
X-34836Y28240D01*
X-34764Y28451D01*
X-34686Y28659D01*
X-34604Y28865D01*
X-34516Y29069D01*
X-34424Y29272D01*
X-34326Y29471D01*
X-34224Y29668D01*
X-34117Y29863D01*
X-34005Y30055D01*
X-33888Y30244D01*
X-33767Y30431D01*
X-33641Y30614D01*
X-33511Y30794D01*
X-33376Y30971D01*
X-33238Y31144D01*
X-33095Y31314D01*
X-32947Y31481D01*
X-32796Y31644D01*
X-32641Y31803D01*
X-32482Y31958D01*
X-32319Y32109D01*
X-32152Y32257D01*
X-31982Y32400D01*
X-31809Y32538D01*
X-31632Y32673D01*
X-31452Y32803D01*
X-31269Y32929D01*
X-31082Y33050D01*
X-30893Y33167D01*
X-30701Y33279D01*
X-30506Y33386D01*
X-30309Y33488D01*
X-30110Y33586D01*
X-29907Y33678D01*
X-29703Y33766D01*
X-29497Y33848D01*
X-29289Y33926D01*
X-29078Y33998D01*
X-28867Y34065D01*
X-28653Y34127D01*
X-28438Y34184D01*
X-28222Y34235D01*
X-28005Y34281D01*
X-27786Y34322D01*
X-27567Y34357D01*
X-27346Y34387D01*
X-27126Y34411D01*
X-26904Y34430D01*
X-26682Y34444D01*
X-26460Y34452D01*
X-26238Y34455D01*
X-26016Y34452D01*
X-25794Y34444D01*
X-25572Y34430D01*
X-25350Y34411D01*
X-25130Y34387D01*
X-24909Y34357D01*
X-24690Y34322D01*
X-24471Y34281D01*
X-24254Y34235D01*
X-24038Y34184D01*
X-23823Y34127D01*
X-23609Y34065D01*
X-23398Y33998D01*
X-23187Y33926D01*
X-22979Y33848D01*
X-22773Y33766D01*
X-22569Y33678D01*
X-22366Y33586D01*
X-22167Y33488D01*
X-21970Y33386D01*
X-21775Y33279D01*
X-21583Y33167D01*
X-21394Y33050D01*
X-21207Y32929D01*
X-21024Y32803D01*
X-20844Y32673D01*
X-20667Y32538D01*
X-20494Y32400D01*
X-20324Y32257D01*
X-20157Y32109D01*
X-19994Y31958D01*
X-19835Y31803D01*
X-19680Y31644D01*
X-19529Y31481D01*
X-19381Y31314D01*
X-19238Y31144D01*
X-19100Y30971D01*
X-18965Y30794D01*
X-18835Y30614D01*
X-18709Y30431D01*
X-18588Y30244D01*
X-18471Y30055D01*
X-18359Y29863D01*
X-18252Y29668D01*
X-18150Y29471D01*
X-18052Y29272D01*
X-17960Y29069D01*
X-17872Y28865D01*
X-17790Y28659D01*
X-17712Y28451D01*
X-17640Y28240D01*
X-17573Y28029D01*
X-17511Y27815D01*
X-17454Y27600D01*
X-17403Y27384D01*
X-17357Y27167D01*
X-17316Y26948D01*
X-17281Y26729D01*
X-17251Y26508D01*
X-17227Y26288D01*
X-17208Y26066D01*
X-17194Y25844D01*
X-17186Y25622D01*
X-17183Y25400D01*
X-17186Y25178D01*
X-17194Y24956D01*
X-17208Y24734D01*
X-17227Y24512D01*
X-17251Y24292D01*
X-17281Y24071D01*
X-17316Y23852D01*
X-17357Y23633D01*
X-17403Y23416D01*
X-17454Y23200D01*
X-17511Y22985D01*
X-17573Y22771D01*
X-17640Y22560D01*
X-17712Y22349D01*
X-17790Y22141D01*
X-17872Y21935D01*
X-17960Y21731D01*
X-18052Y21528D01*
X-18150Y21329D01*
X-18252Y21132D01*
X-18359Y20937D01*
X-18471Y20745D01*
X-18588Y20556D01*
X-18709Y20369D01*
X-18835Y20186D01*
X-18965Y20006D01*
X-19100Y19829D01*
X-19238Y19656D01*
X-19381Y19486D01*
X-19529Y19319D01*
X-19680Y19156D01*
X-19835Y18997D01*
X-19994Y18842D01*
X-20157Y18691D01*
X-20324Y18543D01*
X-20494Y18400D01*
X-20667Y18262D01*
X-20844Y18127D01*
X-21024Y17997D01*
X-21207Y17871D01*
X-21394Y17750D01*
X-21583Y17633D01*
X-21775Y17521D01*
X-21970Y17414D01*
X-22167Y17312D01*
X-22366Y17214D01*
X-22569Y17122D01*
X-22773Y17034D01*
X-22979Y16952D01*
X-23187Y16874D01*
X-23398Y16802D01*
X-23609Y16735D01*
X-23823Y16673D01*
X-24038Y16616D01*
X-24254Y16565D01*
X-24471Y16519D01*
X-24690Y16478D01*
X-24909Y16443D01*
X-25130Y16413D01*
X-25350Y16389D01*
X-25572Y16370D01*
X-25794Y16356D01*
X-26016Y16348D01*
X-26238Y16345D01*
X-26460Y16348D01*
X-26682Y16356D01*
X-26904Y16370D01*
X-27126Y16389D01*
X-27346Y16413D01*
X-27567Y16443D01*
X-27786Y16478D01*
X-28005Y16519D01*
X-28222Y16565D01*
X-28438Y16616D01*
X-28653Y16673D01*
X-28867Y16735D01*
X-29078Y16802D01*
X-29289Y16874D01*
X-29497Y16952D01*
X-29703Y17034D01*
X-29907Y17122D01*
X-30110Y17214D01*
X-30309Y17312D01*
X-30506Y17414D01*
X-30701Y17521D01*
X-30893Y17633D01*
X-31082Y17750D01*
X-31269Y17871D01*
X-31452Y17997D01*
X-31632Y18127D01*
X-31809Y18262D01*
X-31982Y18400D01*
X-32152Y18543D01*
X-32319Y18691D01*
X-32482Y18842D01*
X-32641Y18997D01*
X-32796Y19156D01*
X-32947Y19319D01*
X-33095Y19486D01*
X-33238Y19656D01*
X-33376Y19829D01*
X-33511Y20006D01*
X-33641Y20186D01*
X-33767Y20369D01*
X-33888Y20556D01*
X-34005Y20745D01*
X-34117Y20937D01*
X-34224Y21132D01*
X-34326Y21329D01*
X-34424Y21528D01*
X-34516Y21731D01*
X-34604Y21935D01*
X-34686Y22141D01*
X-34764Y22349D01*
X-34836Y22560D01*
X-34903Y22771D01*
X-34965Y22985D01*
X-35022Y23200D01*
X-35073Y23416D01*
X-35119Y23633D01*
X-35160Y23852D01*
X-35195Y24071D01*
X-35225Y24292D01*
X-35249Y24512D01*
X-35268Y24734D01*
X-35282Y24956D01*
X-35290Y25178D01*
X-35293Y25400D01*
D16*
X-26238Y25400D03*
M02*
